<?xml version="1.0" encoding="UTF-8" standalone="no"?>
<!DOCTYPE svg PUBLIC "-//W3C//DTD SVG 1.1//EN"
 "http://www.w3.org/Graphics/SVG/1.1/DTD/svg11.dtd">
<!-- Generated by graphviz version 2.43.0 (0)
 -->
<!-- Title: MTA Pages: 1 -->
<svg width="1957pt" height="515pt"
 viewBox="0.00 0.00 1957.00 515.23" xmlns="http://www.w3.org/2000/svg" xmlns:xlink="http://www.w3.org/1999/xlink">
<g id="graph0" class="graph" transform="scale(1 1) rotate(0) translate(4 511.23)">
<title>MTA</title>
<polygon fill="#e6cfd4" stroke="#000000" points="-4,4 -4,-511.23 1953,-511.23 1953,4 -4,4"/>
<g id="clust1" class="cluster">
<title>cluster_MTA_MAIN</title>
<polygon fill="white" stroke="black" points="8,-8 8,-499.23 1941,-499.23 1941,-8 8,-8"/>
<text text-anchor="middle" x="134.5" y="-484.03" font-family="Helvetica,sans-Serif" font-size="14.00">MTA ID: BOOKSHOP&#45;DEMO [0.0.1]</text>
</g>
<g id="clust2" class="cluster">
<title>cluster_DESTINATIONS</title>
<polygon fill="#e6dbcf" stroke="black" stroke-dasharray="1,5" points="1254,-16 1254,-436.93 1579,-436.93 1579,-16 1254,-16"/>
<text text-anchor="middle" x="1307" y="-423.33" font-family="Helvetica,sans-Serif" font-size="12.00">DESTINATIONS</text>
</g>
<g id="clust3" class="cluster">
<title>cluster_CAP_SERVICE</title>
<polygon fill="#e6dbcf" stroke="black" stroke-dasharray="1,5" points="16,-146 16,-468.23 1114,-468.23 1114,-146 16,-146"/>
<text text-anchor="middle" x="63.5" y="-454.63" font-family="Helvetica,sans-Serif" font-size="12.00">CAP SERVICE</text>
</g>
<g id="clust4" class="cluster">
<title>cluster_APP_ROUTER</title>
<polygon fill="#e6dbcf" stroke="black" stroke-dasharray="1,5" points="1122,-147.12 1122,-436.93 1246,-436.93 1246,-147.12 1122,-147.12"/>
<text text-anchor="middle" x="1169" y="-423.33" font-family="Helvetica,sans-Serif" font-size="12.00">APP ROUTER</text>
</g>
<g id="clust5" class="cluster">
<title>cluster_HTML5_APPS</title>
<polygon fill="#e6dbcf" stroke="black" stroke-dasharray="1,5" points="1587,-16 1587,-256.62 1933,-256.62 1933,-16 1587,-16"/>
<text text-anchor="middle" x="1633" y="-243.03" font-family="Helvetica,sans-Serif" font-size="12.00">HTML5 APPS</text>
</g>
<!-- bookshop&#45;demo&#45;destination&#45;service -->
<g id="node1" class="node">
<title>bookshop&#45;demo&#45;destination&#45;service</title>
<polygon fill="#488791" stroke="transparent" points="1446.5,-227.12 1261.5,-227.12 1261.5,-155.12 1446.5,-155.12 1446.5,-227.12"/>
<polyline fill="none" stroke="#407780" points="1261.5,-155.12 1446.5,-155.12 "/>
<text text-anchor="middle" x="1354" y="-194.12" font-family="Helvetica,sans-Serif" font-size="10.00">SERVICE DESTINATION</text>
<text text-anchor="middle" x="1354" y="-171.12" font-family="Helvetica,sans-Serif" font-size="10.00">bookshop&#45;demo&#45;destination&#45;service</text>
</g>
<!-- bookshop&#45;demo&#45;uaa&#45;apiaccess -->
<g id="node2" class="node">
<title>bookshop&#45;demo&#45;uaa&#45;apiaccess</title>
<polygon fill="#bfb9ac" stroke="transparent" points="1465.5,-96 1304.5,-96 1304.5,-24 1465.5,-24 1465.5,-96"/>
<polyline fill="none" stroke="#737c80" points="1304.5,-24 1465.5,-24 "/>
<text text-anchor="middle" x="1385" y="-63" font-family="Helvetica,sans-Serif" font-size="10.00">DESTINATION</text>
<text text-anchor="middle" x="1385" y="-40" font-family="Helvetica,sans-Serif" font-size="10.00">bookshop&#45;demo&#45;uaa&#45;apiaccess</text>
</g>
<!-- bookshop&#45;demo&#45;destination&#45;service&#45;&gt;bookshop&#45;demo&#45;uaa&#45;apiaccess -->
<g id="edge1" class="edge">
<title>bookshop&#45;demo&#45;destination&#45;service&#45;&gt;bookshop&#45;demo&#45;uaa&#45;apiaccess</title>
<path fill="none" stroke="black" stroke-width="0.7" d="M1362.47,-154.84C1366.06,-139.9 1370.28,-122.29 1374.1,-106.4"/>
<polygon fill="black" stroke="black" stroke-width="0.7" points="1377.61,-106.78 1376.54,-96.24 1370.8,-105.15 1377.61,-106.78"/>
<text text-anchor="middle" x="1419" y="-128" font-family="Helvetica,sans-Serif" font-size="10.00">define destination</text>
<text text-anchor="middle" x="1419" y="-117" font-family="Helvetica,sans-Serif" font-size="10.00">at subaccount level</text>
</g>
<!-- bookshop&#45;demo&#45;uaa&#45;apiaccess&#45;&gt;bookshop&#45;demo&#45;uaa&#45;apiaccess -->
<g id="edge3" class="edge">
<title>bookshop&#45;demo&#45;uaa&#45;apiaccess&#45;&gt;bookshop&#45;demo&#45;uaa&#45;apiaccess</title>
<path fill="none" stroke="black" stroke-width="0.7" d="M1465.77,-70.58C1476.43,-68.78 1483.5,-65.25 1483.5,-60 1483.5,-56.64 1480.6,-53.98 1475.71,-52.03"/>
<polygon fill="black" stroke="black" stroke-width="0.7" points="1476.33,-48.58 1465.77,-49.42 1474.55,-55.35 1476.33,-48.58"/>
<text text-anchor="middle" x="1521.5" y="-57.5" font-family="Helvetica,sans-Serif" font-size="10.00">point to service</text>
</g>
<!-- bookshop&#45;demo&#45;destination&#45;content&#45;deployer -->
<g id="node3" class="node">
<title>bookshop&#45;demo&#45;destination&#45;content&#45;deployer</title>
<polygon fill="#bfb9ac" stroke="#737c80" points="1532.5,-407.93 1303.5,-407.93 1299.5,-403.93 1299.5,-335.93 1528.5,-335.93 1532.5,-339.93 1532.5,-407.93"/>
<polyline fill="none" stroke="#737c80" points="1528.5,-403.93 1299.5,-403.93 "/>
<polyline fill="none" stroke="#737c80" points="1528.5,-403.93 1528.5,-335.93 "/>
<polyline fill="none" stroke="#737c80" points="1528.5,-403.93 1532.5,-407.93 "/>
<text text-anchor="middle" x="1416" y="-374.93" font-family="Helvetica,sans-Serif" font-size="10.00">DESTINATIONS DEPLOYER</text>
<text text-anchor="middle" x="1416" y="-351.93" font-family="Helvetica,sans-Serif" font-size="10.00">bookshop&#45;demo&#45;destination&#45;content&#45;deployer</text>
</g>
<!-- bookshop&#45;demo&#45;destination&#45;content&#45;deployer&#45;&gt;bookshop&#45;demo&#45;destination&#45;service -->
<g id="edge2" class="edge">
<title>bookshop&#45;demo&#45;destination&#45;content&#45;deployer&#45;&gt;bookshop&#45;demo&#45;destination&#45;service</title>
<path fill="none" stroke="black" stroke-width="0.7" d="M1382.92,-335.52C1371.84,-321.39 1360.83,-304.3 1355,-286.62 1349.9,-271.16 1348.61,-253.48 1348.93,-237.63"/>
<polygon fill="black" stroke="black" stroke-width="0.7" points="1352.43,-237.66 1349.35,-227.52 1345.44,-237.36 1352.43,-237.66"/>
<text text-anchor="middle" x="1418.5" y="-273.12" font-family="Helvetica,sans-Serif" font-size="10.00">create destination service</text>
</g>
<!-- bookshop&#45;demo&#45;destination&#45;content&#45;deployer&#45;&gt;bookshop&#45;demo&#45;uaa&#45;apiaccess -->
<g id="edge21" class="edge">
<title>bookshop&#45;demo&#45;destination&#45;content&#45;deployer&#45;&gt;bookshop&#45;demo&#45;uaa&#45;apiaccess</title>
<path fill="none" stroke="#40806e" stroke-width="0.7" d="M1452.21,-335.57C1464.09,-321.57 1475.82,-304.55 1482,-286.62 1485.82,-275.55 1493.38,-150.86 1471,-114 1468.75,-110.29 1466.13,-106.8 1463.23,-103.53"/>
<polygon fill="#40806e" stroke="#40806e" stroke-width="0.7" points="1465.55,-100.89 1456.01,-96.27 1460.58,-105.83 1465.55,-100.89"/>
<text text-anchor="middle" x="1530" y="-188.62" font-family="Helvetica,sans-Serif" font-size="10.00" fill="#40806e">use xsuaa service</text>
</g>
<!-- bookshop&#45;demo&#45;db -->
<g id="node4" class="node">
<title>bookshop&#45;demo&#45;db</title>
<polygon fill="#bfb9ac" stroke="#737c80" points="146.5,-407.93 47.5,-407.93 43.5,-403.93 43.5,-335.93 142.5,-335.93 146.5,-339.93 146.5,-407.93"/>
<polyline fill="none" stroke="#737c80" points="142.5,-403.93 43.5,-403.93 "/>
<polyline fill="none" stroke="#737c80" points="142.5,-403.93 142.5,-335.93 "/>
<polyline fill="none" stroke="#737c80" points="142.5,-403.93 146.5,-407.93 "/>
<text text-anchor="middle" x="95" y="-374.93" font-family="Helvetica,sans-Serif" font-size="10.00">DB DEPLOYER</text>
<text text-anchor="middle" x="95" y="-351.93" font-family="Helvetica,sans-Serif" font-size="10.00">bookshop&#45;demo&#45;db</text>
</g>
<!-- bookshop&#45;demo&#45;db&#45;service -->
<g id="node5" class="node">
<title>bookshop&#45;demo&#45;db&#45;service</title>
<path fill="#e6bb73" stroke="#bf8a30" d="M166,-221.6C166,-225.34 134.18,-228.38 95,-228.38 55.82,-228.38 24,-225.34 24,-221.6 24,-221.6 24,-160.65 24,-160.65 24,-156.91 55.82,-153.87 95,-153.87 134.18,-153.87 166,-156.91 166,-160.65 166,-160.65 166,-221.6 166,-221.6"/>
<path fill="none" stroke="#bf8a30" d="M166,-221.6C166,-217.87 134.18,-214.83 95,-214.83 55.82,-214.83 24,-217.87 24,-221.6"/>
<text text-anchor="middle" x="95" y="-194.12" font-family="Helvetica,sans-Serif" font-size="10.00">SERVICE HANA CLOUD</text>
<text text-anchor="middle" x="95" y="-171.12" font-family="Helvetica,sans-Serif" font-size="10.00">bookshop&#45;demo&#45;db&#45;service</text>
</g>
<!-- bookshop&#45;demo&#45;db&#45;&gt;bookshop&#45;demo&#45;db&#45;service -->
<g id="edge4" class="edge">
<title>bookshop&#45;demo&#45;db&#45;&gt;bookshop&#45;demo&#45;db&#45;service</title>
<path fill="none" stroke="#bf8a30" stroke-width="0.7" d="M95,-335.6C95,-307.83 95,-268.92 95,-238.62"/>
<polygon fill="#bf8a30" stroke="#bf8a30" stroke-width="0.7" points="98.5,-238.3 95,-228.3 91.5,-238.3 98.5,-238.3"/>
<text text-anchor="middle" x="134.5" y="-273.12" font-family="Helvetica,sans-Serif" font-size="10.00" fill="#bf8a30">deploy tables to</text>
</g>
<!-- bookshop&#45;demo&#45;db&#45;service:hdi&#45;container&#45;name -->
<g id="node19" class="node">
<title>bookshop&#45;demo&#45;db&#45;service:hdi&#45;container&#45;name</title>
<polygon fill="#ffffe6" stroke="#737c80" points="159,-96 25,-96 25,-24 165,-24 165,-90 159,-96"/>
<polyline fill="none" stroke="#737c80" points="159,-96 159,-90 "/>
<polyline fill="none" stroke="#737c80" points="165,-90 159,-90 "/>
<text text-anchor="middle" x="95" y="-63" font-family="Helvetica,sans-Serif" font-size="10.00">Name: hdi&#45;container&#45;name</text>
<text text-anchor="middle" x="95" y="-40" font-family="Helvetica,sans-Serif" font-size="10.00">Value: ${service&#45;name}</text>
</g>
<!-- bookshop&#45;demo&#45;db&#45;service&#45;&gt;bookshop&#45;demo&#45;db&#45;service:hdi&#45;container&#45;name -->
<g id="edge20" class="edge">
<title>bookshop&#45;demo&#45;db&#45;service&#45;&gt;bookshop&#45;demo&#45;db&#45;service:hdi&#45;container&#45;name</title>
<path fill="none" stroke="grey" stroke-width="0.7" d="M95,-153.81C95,-139.15 95,-122.06 95,-106.57"/>
<polygon fill="grey" stroke="grey" stroke-width="0.7" points="98.5,-106.15 95,-96.15 91.5,-106.15 98.5,-106.15"/>
<text text-anchor="middle" x="144.5" y="-122.5" font-family="Helvetica,sans-Serif" font-size="10.00" fill="grey">define MTA property</text>
</g>
<!-- bookshop&#45;demo&#45;srv -->
<g id="node6" class="node">
<title>bookshop&#45;demo&#45;srv</title>
<path fill="#bfb9ac" stroke="#737c80" d="M605.06,-398.02C605.06,-398.02 533.73,-433.66 533.73,-433.66 528.37,-436.35 517.63,-436.35 512.27,-433.66 512.27,-433.66 440.94,-398.02 440.94,-398.02 435.57,-395.34 430.21,-386.66 430.22,-380.66 430.22,-380.66 430.28,-329.64 430.28,-329.64 430.28,-323.64 436.29,-317.64 442.29,-317.64 442.29,-317.64 603.71,-317.64 603.71,-317.64 609.71,-317.64 615.72,-323.64 615.72,-329.64 615.72,-329.64 615.78,-380.66 615.78,-380.66 615.79,-386.66 610.43,-395.34 605.06,-398.02"/>
<text text-anchor="middle" x="523" y="-386.43" font-family="Helvetica,sans-Serif" font-size="10.00">CAP</text>
<text text-anchor="middle" x="523" y="-363.43" font-family="Helvetica,sans-Serif" font-size="10.00">bookshop&#45;demo&#45;srv</text>
<text text-anchor="middle" x="523" y="-340.43" font-family="Helvetica,sans-Serif" font-size="10.00">Memory: 256M</text>
</g>
<!-- bookshop&#45;demo&#45;srv&#45;&gt;bookshop&#45;demo&#45;destination&#45;service -->
<g id="edge6" class="edge">
<title>bookshop&#45;demo&#45;srv&#45;&gt;bookshop&#45;demo&#45;destination&#45;service</title>
<path fill="none" stroke="black" stroke-width="0.7" stroke-dasharray="5,2" d="M615.87,-360.59C810.32,-338.9 1243.04,-290.31 1250,-286.62 1261.42,-280.58 1259.84,-273.73 1269,-264.62 1279.4,-254.29 1291.06,-243.74 1302.34,-234.01"/>
<polygon fill="black" stroke="black" stroke-width="0.7" points="1304.73,-236.56 1310.06,-227.41 1300.19,-231.24 1304.73,-236.56"/>
<text text-anchor="middle" x="1278" y="-273.12" font-family="Helvetica,sans-Serif" font-size="10.00">use</text>
</g>
<!-- bookshop&#45;demo&#45;srv&#45;&gt;bookshop&#45;demo&#45;db&#45;service -->
<g id="edge8" class="edge">
<title>bookshop&#45;demo&#45;srv&#45;&gt;bookshop&#45;demo&#45;db&#45;service</title>
<path fill="none" stroke="#bf8a30" stroke-width="0.7" d="M430.17,-350.39C357.79,-332.08 256.26,-301.21 175,-256.62 163.89,-250.53 152.79,-242.85 142.55,-234.94"/>
<polygon fill="#bf8a30" stroke="#bf8a30" stroke-width="0.7" points="144.54,-232.05 134.53,-228.57 140.18,-237.53 144.54,-232.05"/>
<text text-anchor="middle" x="254" y="-273.12" font-family="Helvetica,sans-Serif" font-size="10.00" fill="#bf8a30">read/write</text>
</g>
<!-- srv_api -->
<g id="node7" class="node">
<title>srv_api</title>
<polygon fill="#ffffcc" stroke="#737c80" points="764,-227.12 698,-227.12 698,-155.12 770,-155.12 770,-221.12 764,-227.12"/>
<polyline fill="none" stroke="#737c80" points="764,-227.12 764,-221.12 "/>
<polyline fill="none" stroke="#737c80" points="770,-221.12 764,-221.12 "/>
<text text-anchor="middle" x="734" y="-188.62" font-family="Helvetica,sans-Serif" font-size="10.00">srv_api</text>
</g>
<!-- bookshop&#45;demo&#45;srv&#45;&gt;srv_api -->
<g id="edge5" class="edge">
<title>bookshop&#45;demo&#45;srv&#45;&gt;srv_api</title>
<path fill="none" stroke="black" stroke-width="0.7" d="M534.26,-317.4C541.2,-297.61 552.31,-277.01 570,-264.62 591.71,-249.42 665.93,-269.66 689,-256.62 697.92,-251.59 705.47,-243.96 711.69,-235.7"/>
<polygon fill="black" stroke="black" stroke-width="0.7" points="714.69,-237.53 717.48,-227.3 708.92,-233.56 714.69,-237.53"/>
<text text-anchor="middle" x="633" y="-273.12" font-family="Helvetica,sans-Serif" font-size="10.00">define MTA Properties Set</text>
</g>
<!-- bookshop&#45;demo&#45;connectivity&#45;service -->
<g id="node8" class="node">
<title>bookshop&#45;demo&#45;connectivity&#45;service</title>
<path fill="#488791" stroke="#407780" d="M928,-155.12C928,-155.12 1094,-155.12 1094,-155.12 1100,-155.12 1106,-161.12 1106,-167.12 1106,-167.12 1106,-215.12 1106,-215.12 1106,-221.12 1100,-227.12 1094,-227.12 1094,-227.12 928,-227.12 928,-227.12 922,-227.12 916,-221.12 916,-215.12 916,-215.12 916,-167.12 916,-167.12 916,-161.12 922,-155.12 928,-155.12"/>
<text text-anchor="middle" x="1011" y="-194.12" font-family="Helvetica,sans-Serif" font-size="10.00">SERVICE CONNECTIVITY</text>
<text text-anchor="middle" x="1011" y="-171.12" font-family="Helvetica,sans-Serif" font-size="10.00">bookshop&#45;demo&#45;connectivity&#45;service</text>
</g>
<!-- bookshop&#45;demo&#45;srv&#45;&gt;bookshop&#45;demo&#45;connectivity&#45;service -->
<g id="edge7" class="edge">
<title>bookshop&#45;demo&#45;srv&#45;&gt;bookshop&#45;demo&#45;connectivity&#45;service</title>
<path fill="none" stroke="black" stroke-width="0.7" d="M615.77,-353.15C673.07,-339.85 746.86,-318.4 807,-286.62 820.69,-279.39 819.73,-270.61 834,-264.62 863.69,-252.17 875.55,-267.08 906,-256.62 922.83,-250.85 939.81,-242.01 955.06,-232.72"/>
<polygon fill="black" stroke="black" stroke-width="0.7" points="957.22,-235.5 963.83,-227.22 953.5,-229.57 957.22,-235.5"/>
<text text-anchor="middle" x="874.5" y="-273.12" font-family="Helvetica,sans-Serif" font-size="10.00">use connectivity</text>
</g>
<!-- bookshop&#45;demo&#45;uaa -->
<g id="node9" class="node">
<title>bookshop&#45;demo&#45;uaa</title>
<path fill="#488791" stroke="#40806e" d="M800.5,-155.12C800.5,-155.12 885.5,-155.12 885.5,-155.12 891.5,-155.12 897.5,-161.12 897.5,-167.12 897.5,-167.12 897.5,-215.12 897.5,-215.12 897.5,-221.12 891.5,-227.12 885.5,-227.12 885.5,-227.12 800.5,-227.12 800.5,-227.12 794.5,-227.12 788.5,-221.12 788.5,-215.12 788.5,-215.12 788.5,-167.12 788.5,-167.12 788.5,-161.12 794.5,-155.12 800.5,-155.12"/>
<text text-anchor="middle" x="843" y="-194.12" font-family="Helvetica,sans-Serif" font-size="10.00">🔑 SERVICE XSUAA</text>
<text text-anchor="middle" x="843" y="-171.12" font-family="Helvetica,sans-Serif" font-size="10.00">bookshop&#45;demo&#45;uaa</text>
</g>
<!-- bookshop&#45;demo&#45;srv&#45;&gt;bookshop&#45;demo&#45;uaa -->
<g id="edge9" class="edge">
<title>bookshop&#45;demo&#45;srv&#45;&gt;bookshop&#45;demo&#45;uaa</title>
<path fill="none" stroke="#40806e" stroke-width="0.7" d="M615.76,-332.23C642.62,-319.33 671.32,-303.81 696,-286.62 707.61,-278.54 706.25,-270.75 719,-264.62 743.25,-252.98 754.9,-268.59 779,-256.62 789.93,-251.2 800.09,-243.16 808.96,-234.59"/>
<polygon fill="#40806e" stroke="#40806e" stroke-width="0.7" points="811.6,-236.9 816.09,-227.31 806.6,-232 811.6,-236.9"/>
<text text-anchor="middle" x="763" y="-273.12" font-family="Helvetica,sans-Serif" font-size="10.00" fill="#40806e">use xsuaa service</text>
</g>
<!-- bookshop&#45;demo&#45;job&#45;scheduler -->
<g id="node10" class="node">
<title>bookshop&#45;demo&#45;job&#45;scheduler</title>
<path fill="#488791" stroke="#407780" d="M196.5,-155.12C196.5,-155.12 329.5,-155.12 329.5,-155.12 335.5,-155.12 341.5,-161.12 341.5,-167.12 341.5,-167.12 341.5,-215.12 341.5,-215.12 341.5,-221.12 335.5,-227.12 329.5,-227.12 329.5,-227.12 196.5,-227.12 196.5,-227.12 190.5,-227.12 184.5,-221.12 184.5,-215.12 184.5,-215.12 184.5,-167.12 184.5,-167.12 184.5,-161.12 190.5,-155.12 196.5,-155.12"/>
<text text-anchor="middle" x="263" y="-194.12" font-family="Helvetica,sans-Serif" font-size="10.00">🕑 SERVICE JOB SCHEDULER</text>
<text text-anchor="middle" x="263" y="-171.12" font-family="Helvetica,sans-Serif" font-size="10.00">bookshop&#45;demo&#45;job&#45;scheduler</text>
</g>
<!-- bookshop&#45;demo&#45;srv&#45;&gt;bookshop&#45;demo&#45;job&#45;scheduler -->
<g id="edge10" class="edge">
<title>bookshop&#45;demo&#45;srv&#45;&gt;bookshop&#45;demo&#45;job&#45;scheduler</title>
<path fill="none" stroke="black" stroke-width="0.7" d="M430.3,-338.4C399.5,-325.09 366.17,-307.78 339,-286.62 320.87,-272.51 304.38,-253.25 291.44,-235.81"/>
<polygon fill="black" stroke="black" stroke-width="0.7" points="294.07,-233.47 285.37,-227.42 288.39,-237.57 294.07,-233.47"/>
<text text-anchor="middle" x="378.5" y="-273.12" font-family="Helvetica,sans-Serif" font-size="10.00">schedule jobs in</text>
</g>
<!-- bookshop&#45;demo&#45;logging -->
<g id="node11" class="node">
<title>bookshop&#45;demo&#45;logging</title>
<path fill="#488791" stroke="#815d72" d="M372,-155.12C372,-155.12 508,-155.12 508,-155.12 514,-155.12 520,-161.12 520,-167.12 520,-167.12 520,-215.12 520,-215.12 520,-221.12 514,-227.12 508,-227.12 508,-227.12 372,-227.12 372,-227.12 366,-227.12 360,-221.12 360,-215.12 360,-215.12 360,-167.12 360,-167.12 360,-161.12 366,-155.12 372,-155.12"/>
<text text-anchor="middle" x="440" y="-194.12" font-family="Helvetica,sans-Serif" font-size="10.00">📃 SERVICE APPLICATION LOG</text>
<text text-anchor="middle" x="440" y="-171.12" font-family="Helvetica,sans-Serif" font-size="10.00">bookshop&#45;demo&#45;logging</text>
</g>
<!-- bookshop&#45;demo&#45;srv&#45;&gt;bookshop&#45;demo&#45;logging -->
<g id="edge11" class="edge">
<title>bookshop&#45;demo&#45;srv&#45;&gt;bookshop&#45;demo&#45;logging</title>
<path fill="none" stroke="#815d72" stroke-width="0.7" d="M447.92,-317.43C439.46,-308.15 432.08,-297.84 427,-286.62 420.1,-271.38 420.67,-253.45 423.89,-237.33"/>
<polygon fill="#815d72" stroke="#815d72" stroke-width="0.7" points="427.3,-238.1 426.19,-227.57 420.49,-236.49 427.3,-238.1"/>
<text text-anchor="middle" x="441" y="-273.12" font-family="Helvetica,sans-Serif" font-size="10.00" fill="#815d72">log to</text>
</g>
<!-- bookshop&#45;demo&#45;autoscaler -->
<g id="node12" class="node">
<title>bookshop&#45;demo&#45;autoscaler</title>
<path fill="#488791" stroke="#407780" d="M550,-155.12C550,-155.12 668,-155.12 668,-155.12 674,-155.12 680,-161.12 680,-167.12 680,-167.12 680,-215.12 680,-215.12 680,-221.12 674,-227.12 668,-227.12 668,-227.12 550,-227.12 550,-227.12 544,-227.12 538,-221.12 538,-215.12 538,-215.12 538,-167.12 538,-167.12 538,-161.12 544,-155.12 550,-155.12"/>
<text text-anchor="middle" x="609" y="-194.12" font-family="Helvetica,sans-Serif" font-size="10.00">📈 SERVICE AUTOSCALER</text>
<text text-anchor="middle" x="609" y="-171.12" font-family="Helvetica,sans-Serif" font-size="10.00">bookshop&#45;demo&#45;autoscaler</text>
</g>
<!-- bookshop&#45;demo&#45;srv&#45;&gt;bookshop&#45;demo&#45;autoscaler -->
<g id="edge12" class="edge">
<title>bookshop&#45;demo&#45;srv&#45;&gt;bookshop&#45;demo&#45;autoscaler</title>
<path fill="none" stroke="black" stroke-width="0.7" d="M478.72,-317.58C468.99,-299.41 464.97,-279.85 478,-264.62 492.91,-247.19 508.02,-265.92 529,-256.62 541.86,-250.93 554.39,-242.62 565.57,-233.85"/>
<polygon fill="black" stroke="black" stroke-width="0.7" points="567.93,-236.45 573.46,-227.41 563.5,-231.02 567.93,-236.45"/>
<text text-anchor="middle" x="512.5" y="-273.12" font-family="Helvetica,sans-Serif" font-size="10.00">autoscaled by</text>
</g>
<!-- srv_api:url -->
<g id="node20" class="node">
<title>srv_api:url</title>
<polygon fill="#ffffe6" stroke="#737c80" points="920.5,-96 815.5,-96 815.5,-24 926.5,-24 926.5,-90 920.5,-96"/>
<polyline fill="none" stroke="#737c80" points="920.5,-96 920.5,-90 "/>
<polyline fill="none" stroke="#737c80" points="926.5,-90 920.5,-90 "/>
<text text-anchor="middle" x="871" y="-63" font-family="Helvetica,sans-Serif" font-size="10.00">Name: url</text>
<text text-anchor="middle" x="871" y="-40" font-family="Helvetica,sans-Serif" font-size="10.00">Value: ${default&#45;url}</text>
</g>
<!-- srv_api&#45;&gt;srv_api:url -->
<g id="edge22" class="edge">
<title>srv_api&#45;&gt;srv_api:url</title>
<path fill="none" stroke="grey" stroke-width="0.7" d="M769.77,-154.86C772.88,-151.85 775.99,-148.87 779,-146 793.75,-131.96 810.03,-116.81 824.74,-103.25"/>
<polygon fill="grey" stroke="grey" stroke-width="0.7" points="827.28,-105.66 832.27,-96.31 822.54,-100.51 827.28,-105.66"/>
<text text-anchor="middle" x="861.5" y="-122.5" font-family="Helvetica,sans-Serif" font-size="10.00" fill="grey">define MTA property</text>
</g>
<!-- bookshop&#45;demo&#45;ui -->
<g id="node13" class="node">
<title>bookshop&#45;demo&#45;ui</title>
<polygon fill="#bfb9ac" stroke="#737c80" points="1230,-407.93 1134,-407.93 1130,-403.93 1130,-335.93 1226,-335.93 1230,-339.93 1230,-407.93"/>
<polyline fill="none" stroke="#737c80" points="1226,-403.93 1130,-403.93 "/>
<polyline fill="none" stroke="#737c80" points="1226,-403.93 1226,-335.93 "/>
<polyline fill="none" stroke="#737c80" points="1226,-403.93 1230,-407.93 "/>
<text text-anchor="middle" x="1180" y="-374.93" font-family="Helvetica,sans-Serif" font-size="10.00">APPROUTER</text>
<text text-anchor="middle" x="1180" y="-351.93" font-family="Helvetica,sans-Serif" font-size="10.00">bookshop&#45;demo&#45;ui</text>
</g>
<!-- bookshop&#45;demo&#45;ui&#45;&gt;bookshop&#45;demo&#45;destination&#45;service -->
<g id="edge13" class="edge">
<title>bookshop&#45;demo&#45;ui&#45;&gt;bookshop&#45;demo&#45;destination&#45;service</title>
<path fill="none" stroke="black" stroke-width="0.7" stroke-dasharray="5,2" d="M1212.51,-335.67C1223.7,-324.82 1236.75,-313.42 1250,-304.62 1266.58,-293.62 1275.76,-299.42 1291,-286.62 1307.46,-272.81 1321.33,-253.63 1331.82,-236.15"/>
<polygon fill="black" stroke="black" stroke-width="0.7" points="1335.02,-237.61 1337,-227.21 1328.96,-234.11 1335.02,-237.61"/>
<text text-anchor="middle" x="1320" y="-273.12" font-family="Helvetica,sans-Serif" font-size="10.00">use</text>
</g>
<!-- bookshop&#45;demo&#45;ui&#45;&gt;bookshop&#45;demo&#45;connectivity&#45;service -->
<g id="edge14" class="edge">
<title>bookshop&#45;demo&#45;ui&#45;&gt;bookshop&#45;demo&#45;connectivity&#45;service</title>
<path fill="none" stroke="black" stroke-width="0.7" d="M1152.17,-335.73C1142.24,-324.75 1130.42,-313.26 1118,-304.62 1100.99,-292.8 1091.03,-299.75 1075,-286.62 1058.29,-272.94 1044.2,-253.78 1033.54,-236.29"/>
<polygon fill="black" stroke="black" stroke-width="0.7" points="1036.36,-234.18 1028.28,-227.33 1030.33,-237.72 1036.36,-234.18"/>
<text text-anchor="middle" x="1115.5" y="-273.12" font-family="Helvetica,sans-Serif" font-size="10.00">use connectivity</text>
</g>
<!-- bookshop&#45;demo&#45;ui&#45;&gt;bookshop&#45;demo&#45;uaa -->
<g id="edge15" class="edge">
<title>bookshop&#45;demo&#45;ui&#45;&gt;bookshop&#45;demo&#45;uaa</title>
<path fill="none" stroke="#40806e" stroke-width="0.7" d="M1155.26,-335.68C1145.11,-323.87 1132.35,-311.87 1118,-304.62 1056.49,-273.56 1029.82,-307.02 964,-286.62 936.65,-278.15 930.02,-273.65 907,-256.62 898.16,-250.09 889.4,-242.33 881.32,-234.51"/>
<polygon fill="#40806e" stroke="#40806e" stroke-width="0.7" points="883.66,-231.9 874.11,-227.33 878.72,-236.86 883.66,-231.9"/>
<text text-anchor="middle" x="1008" y="-273.12" font-family="Helvetica,sans-Serif" font-size="10.00" fill="#40806e">use xsuaa service</text>
</g>
<!-- destinations -->
<g id="node14" class="node">
<title>destinations</title>
<ellipse fill="#bfb9ac" stroke="#737c80" cx="1166" cy="-191.12" rx="36" ry="36"/>
<text text-anchor="middle" x="1166" y="-188.62" font-family="Helvetica,sans-Serif" font-size="10.00">destinations</text>
</g>
<!-- bookshop&#45;demo&#45;ui&#45;&gt;destinations -->
<g id="edge16" class="edge">
<title>bookshop&#45;demo&#45;ui&#45;&gt;destinations</title>
<path fill="none" stroke="black" stroke-width="0.7" d="M1169.67,-335.57C1165.81,-320.61 1161.91,-302.91 1160,-286.62 1158.86,-276.91 1159.6,-274.39 1160,-264.62 1160.37,-255.73 1160.99,-246.24 1161.69,-237.15"/>
<polygon fill="black" stroke="black" stroke-width="0.7" points="1165.19,-237.37 1162.52,-227.12 1158.21,-236.8 1165.19,-237.37"/>
<text text-anchor="middle" x="1205" y="-278.62" font-family="Helvetica,sans-Serif" font-size="10.00">define enviroment</text>
<text text-anchor="middle" x="1205" y="-267.62" font-family="Helvetica,sans-Serif" font-size="10.00">variable</text>
</g>
<!-- bookshop&#45;demo&#45;repo&#45;runtime -->
<g id="node15" class="node">
<title>bookshop&#45;demo&#45;repo&#45;runtime</title>
<path fill="#488791" stroke="#407780" d="M1767.5,-155.12C1767.5,-155.12 1898.5,-155.12 1898.5,-155.12 1904.5,-155.12 1910.5,-161.12 1910.5,-167.12 1910.5,-167.12 1910.5,-215.12 1910.5,-215.12 1910.5,-221.12 1904.5,-227.12 1898.5,-227.12 1898.5,-227.12 1767.5,-227.12 1767.5,-227.12 1761.5,-227.12 1755.5,-221.12 1755.5,-215.12 1755.5,-215.12 1755.5,-167.12 1755.5,-167.12 1755.5,-161.12 1761.5,-155.12 1767.5,-155.12"/>
<text text-anchor="middle" x="1833" y="-194.12" font-family="Helvetica,sans-Serif" font-size="10.00">SERVICE HTML5 RUNTIME</text>
<text text-anchor="middle" x="1833" y="-171.12" font-family="Helvetica,sans-Serif" font-size="10.00">bookshop&#45;demo&#45;repo&#45;runtime</text>
</g>
<!-- bookshop&#45;demo&#45;ui&#45;&gt;bookshop&#45;demo&#45;repo&#45;runtime -->
<g id="edge17" class="edge">
<title>bookshop&#45;demo&#45;ui&#45;&gt;bookshop&#45;demo&#45;repo&#45;runtime</title>
<path fill="none" stroke="black" stroke-width="0.7" d="M1207.81,-335.83C1219.46,-323.73 1234.01,-311.5 1250,-304.62 1318.08,-275.35 1509.41,-295.35 1583,-286.62 1656.15,-277.95 1678.44,-285.99 1746,-256.62 1759.59,-250.72 1773.06,-242.34 1785.19,-233.56"/>
<polygon fill="black" stroke="black" stroke-width="0.7" points="1787.45,-236.24 1793.36,-227.45 1783.26,-230.64 1787.45,-236.24"/>
<text text-anchor="middle" x="1766.5" y="-278.62" font-family="Helvetica,sans-Serif" font-size="10.00">route apps to</text>
<text text-anchor="middle" x="1766.5" y="-267.62" font-family="Helvetica,sans-Serif" font-size="10.00">HTML5 repository</text>
</g>
<!-- destinations&#45;&gt;srv_api:url -->
<g id="edge23" class="edge">
<title>destinations&#45;&gt;srv_api:url</title>
<path fill="none" stroke="grey" stroke-width="0.7" d="M1141.67,-164.19C1134.52,-157.6 1126.36,-150.98 1118,-146 1060.91,-111.98 988.23,-89.05 936.53,-75.67"/>
<polygon fill="grey" stroke="grey" stroke-width="0.7" points="937.36,-72.27 926.8,-73.2 935.63,-79.05 937.36,-72.27"/>
<text text-anchor="middle" x="1143" y="-122.5" font-family="Helvetica,sans-Serif" font-size="10.00" fill="grey">use MTA property</text>
</g>
<!-- bookshop&#45;demo&#45;deployer -->
<g id="node16" class="node">
<title>bookshop&#45;demo&#45;deployer</title>
<polygon fill="#bfb9ac" stroke="#737c80" points="1737,-227.12 1607,-227.12 1603,-223.12 1603,-155.12 1733,-155.12 1737,-159.12 1737,-227.12"/>
<polyline fill="none" stroke="#737c80" points="1733,-223.12 1603,-223.12 "/>
<polyline fill="none" stroke="#737c80" points="1733,-223.12 1733,-155.12 "/>
<polyline fill="none" stroke="#737c80" points="1733,-223.12 1737,-227.12 "/>
<text text-anchor="middle" x="1670" y="-194.12" font-family="Helvetica,sans-Serif" font-size="10.00">APPS DEPLOYER</text>
<text text-anchor="middle" x="1670" y="-171.12" font-family="Helvetica,sans-Serif" font-size="10.00">bookshop&#45;demo&#45;deployer</text>
</g>
<!-- bookshop&#45;demo&#45;repo&#45;host -->
<g id="node17" class="node">
<title>bookshop&#45;demo&#45;repo&#45;host</title>
<polygon fill="#488791" stroke="#407780" points="1745,-96 1742,-100 1721,-100 1718,-96 1595,-96 1595,-24 1745,-24 1745,-96"/>
<text text-anchor="middle" x="1670" y="-63" font-family="Helvetica,sans-Serif" font-size="10.00">SERVICE HTML5 REPOSITORY</text>
<text text-anchor="middle" x="1670" y="-40" font-family="Helvetica,sans-Serif" font-size="10.00">bookshop&#45;demo&#45;repo&#45;host</text>
</g>
<!-- bookshop&#45;demo&#45;deployer&#45;&gt;bookshop&#45;demo&#45;repo&#45;host -->
<g id="edge18" class="edge">
<title>bookshop&#45;demo&#45;deployer&#45;&gt;bookshop&#45;demo&#45;repo&#45;host</title>
<path fill="none" stroke="black" stroke-width="0.7" d="M1670,-154.84C1670,-139.9 1670,-122.29 1670,-106.4"/>
<polygon fill="black" stroke="black" stroke-width="0.7" points="1673.5,-106.24 1670,-96.24 1666.5,-106.24 1673.5,-106.24"/>
<text text-anchor="middle" x="1713.5" y="-128" font-family="Helvetica,sans-Serif" font-size="10.00">deploy apps to</text>
<text text-anchor="middle" x="1713.5" y="-117" font-family="Helvetica,sans-Serif" font-size="10.00">HTML5 repository</text>
</g>
<!-- bookshop&#45;demo&#45;HTML5Module -->
<g id="node18" class="node">
<title>bookshop&#45;demo&#45;HTML5Module</title>
<path fill="#b0ac89" stroke="#8b875d" d="M1912.5,-96C1912.5,-96 1775.5,-96 1775.5,-96 1769.5,-96 1763.5,-90 1763.5,-84 1763.5,-84 1763.5,-36 1763.5,-36 1763.5,-30 1769.5,-24 1775.5,-24 1775.5,-24 1912.5,-24 1912.5,-24 1918.5,-24 1924.5,-30 1924.5,-36 1924.5,-36 1924.5,-84 1924.5,-84 1924.5,-90 1918.5,-96 1912.5,-96"/>
<text text-anchor="middle" x="1844" y="-63" font-family="Helvetica,sans-Serif" font-size="10.00">APP HTML5</text>
<text text-anchor="middle" x="1844" y="-40" font-family="Helvetica,sans-Serif" font-size="10.00">bookshop&#45;demo&#45;HTML5Module</text>
</g>
<!-- bookshop&#45;demo&#45;deployer&#45;&gt;bookshop&#45;demo&#45;HTML5Module -->
<g id="edge19" class="edge">
<title>bookshop&#45;demo&#45;deployer&#45;&gt;bookshop&#45;demo&#45;HTML5Module</title>
<path fill="none" stroke="#8b875d" stroke-width="0.7" d="M1732.74,-155.04C1742.41,-149 1752.13,-142.55 1761,-136 1774.46,-126.07 1788.26,-114.33 1800.64,-103.13"/>
<polygon fill="#8b875d" stroke="#8b875d" stroke-width="0.7" points="1803.15,-105.58 1808.15,-96.24 1798.42,-100.42 1803.15,-105.58"/>
<text text-anchor="middle" x="1813" y="-122.5" font-family="Helvetica,sans-Serif" font-size="10.00" fill="#8b875d">deployApp</text>
</g>
</g>
</svg>
