<?xml version="1.0" encoding="UTF-8" standalone="no"?>
<!DOCTYPE svg PUBLIC "-//W3C//DTD SVG 1.1//EN"
 "http://www.w3.org/Graphics/SVG/1.1/DTD/svg11.dtd">
<!-- Generated by graphviz version 2.43.0 (0)
 -->
<!-- Title: MTA Pages: 1 -->
<svg width="2329pt" height="520pt"
 viewBox="0.00 0.00 2329.00 519.60" xmlns="http://www.w3.org/2000/svg" xmlns:xlink="http://www.w3.org/1999/xlink">
<g id="graph0" class="graph" transform="scale(1 1) rotate(0) translate(4 515.6)">
<title>MTA</title>
<polygon fill="#e6cfd4" stroke="#000000" points="-4,4 -4,-515.6 2325,-515.6 2325,4 -4,4"/>
<g id="clust1" class="cluster">
<title>cluster_MTA_MAIN</title>
<polygon fill="white" stroke="black" points="8,-8 8,-503.6 2313,-503.6 2313,-8 8,-8"/>
<text text-anchor="middle" x="378" y="-488.4" font-family="Helvetica,sans-Serif" font-size="14.00">MTA ID: CLOUD&#45;COLD&#45;CHAIN&#45;MULTITENANT [0.0.118&#45;2ad32986758c2ff265b8f85616025660d98a9453]</text>
</g>
<g id="clust2" class="cluster">
<title>cluster_CAP_SERVICE</title>
<polygon fill="#e6dbcf" stroke="black" stroke-dasharray="1,5" points="1242,-151 1242,-472.6 2305,-472.6 2305,-151 1242,-151"/>
<text text-anchor="middle" x="1289.5" y="-459" font-family="Helvetica,sans-Serif" font-size="12.00">CAP SERVICE</text>
</g>
<g id="clust3" class="cluster">
<title>cluster_APP_ROUTER</title>
<polygon fill="#e6dbcf" stroke="black" stroke-dasharray="1,5" points="623,-151 623,-441.3 1117,-441.3 1117,-151 623,-151"/>
<text text-anchor="middle" x="670" y="-427.7" font-family="Helvetica,sans-Serif" font-size="12.00">APP ROUTER</text>
</g>
<g id="clust4" class="cluster">
<title>cluster_HTML5_APPS</title>
<polygon fill="#e6dbcf" stroke="black" stroke-dasharray="1,5" points="16,-16 16,-261 615,-261 615,-16 16,-16"/>
<text text-anchor="middle" x="62" y="-247.4" font-family="Helvetica,sans-Serif" font-size="12.00">HTML5 APPS</text>
</g>
<!-- mtt&#45;cap&#45;services -->
<g id="node1" class="node">
<title>mtt&#45;cap&#45;services</title>
<path fill="#bfb9ac" stroke="#737c80" d="M1875.21,-403.08C1875.21,-403.08 1816.37,-437.36 1816.37,-437.36 1811.18,-440.38 1800.82,-440.38 1795.63,-437.36 1795.63,-437.36 1736.79,-403.08 1736.79,-403.08 1731.61,-400.06 1726.43,-391.04 1726.44,-385.04 1726.44,-385.04 1726.49,-334.01 1726.49,-334.01 1726.49,-328.01 1732.5,-322.01 1738.5,-322.01 1738.5,-322.01 1873.5,-322.01 1873.5,-322.01 1879.5,-322.01 1885.51,-328.01 1885.51,-334.01 1885.51,-334.01 1885.56,-385.04 1885.56,-385.04 1885.57,-391.04 1880.39,-400.06 1875.21,-403.08"/>
<text text-anchor="middle" x="1806" y="-390.8" font-family="Helvetica,sans-Serif" font-size="10.00">CAP</text>
<text text-anchor="middle" x="1806" y="-367.8" font-family="Helvetica,sans-Serif" font-size="10.00">mtt&#45;cap&#45;services</text>
<text text-anchor="middle" x="1806" y="-344.8" font-family="Helvetica,sans-Serif" font-size="10.00">Memory: 300M</text>
</g>
<!-- mtt&#45;cap&#45;services&#45;api -->
<g id="node2" class="node">
<title>mtt&#45;cap&#45;services&#45;api</title>
<polygon fill="#ffffcc" stroke="#737c80" points="1855,-231.5 1751,-231.5 1751,-159.5 1861,-159.5 1861,-225.5 1855,-231.5"/>
<polyline fill="none" stroke="#737c80" points="1855,-231.5 1855,-225.5 "/>
<polyline fill="none" stroke="#737c80" points="1861,-225.5 1855,-225.5 "/>
<text text-anchor="middle" x="1806" y="-193" font-family="Helvetica,sans-Serif" font-size="10.00">mtt&#45;cap&#45;services&#45;api</text>
</g>
<!-- mtt&#45;cap&#45;services&#45;&gt;mtt&#45;cap&#45;services&#45;api -->
<g id="edge1" class="edge">
<title>mtt&#45;cap&#45;services&#45;&gt;mtt&#45;cap&#45;services&#45;api</title>
<path fill="none" stroke="black" stroke-width="0.7" d="M1806,-321.65C1806,-296.18 1806,-266.07 1806,-241.77"/>
<polygon fill="black" stroke="black" stroke-width="0.7" points="1809.5,-241.74 1806,-231.74 1802.5,-241.74 1809.5,-241.74"/>
<text text-anchor="middle" x="1869" y="-277.5" font-family="Helvetica,sans-Serif" font-size="10.00">define MTA Properties Set</text>
</g>
<!-- mtt&#45;cap&#45;services&#45;mtx&#45;api -->
<g id="node3" class="node">
<title>mtt&#45;cap&#45;services&#45;mtx&#45;api</title>
<polygon fill="#ffffcc" stroke="#737c80" points="2006.5,-231.5 1879.5,-231.5 1879.5,-159.5 2012.5,-159.5 2012.5,-225.5 2006.5,-231.5"/>
<polyline fill="none" stroke="#737c80" points="2006.5,-231.5 2006.5,-225.5 "/>
<polyline fill="none" stroke="#737c80" points="2012.5,-225.5 2006.5,-225.5 "/>
<text text-anchor="middle" x="1946" y="-193" font-family="Helvetica,sans-Serif" font-size="10.00">mtt&#45;cap&#45;services&#45;mtx&#45;api</text>
</g>
<!-- mtt&#45;cap&#45;services&#45;&gt;mtt&#45;cap&#45;services&#45;mtx&#45;api -->
<g id="edge2" class="edge">
<title>mtt&#45;cap&#45;services&#45;&gt;mtt&#45;cap&#45;services&#45;mtx&#45;api</title>
<path fill="none" stroke="black" stroke-width="0.7" d="M1885.84,-339.23C1905.26,-326.7 1923.9,-310.72 1936,-291 1944.93,-276.44 1948.28,-258.21 1949.09,-241.65"/>
<polygon fill="black" stroke="black" stroke-width="0.7" points="1952.59,-241.67 1949.3,-231.6 1945.59,-241.53 1952.59,-241.67"/>
<text text-anchor="middle" x="2007" y="-277.5" font-family="Helvetica,sans-Serif" font-size="10.00">define MTA Properties Set</text>
</g>
<!-- mtt&#45;xsuaa -->
<g id="node4" class="node">
<title>mtt&#45;xsuaa</title>
<path fill="#488791" stroke="#40806e" d="M1365.5,-159.5C1365.5,-159.5 1448.5,-159.5 1448.5,-159.5 1454.5,-159.5 1460.5,-165.5 1460.5,-171.5 1460.5,-171.5 1460.5,-219.5 1460.5,-219.5 1460.5,-225.5 1454.5,-231.5 1448.5,-231.5 1448.5,-231.5 1365.5,-231.5 1365.5,-231.5 1359.5,-231.5 1353.5,-225.5 1353.5,-219.5 1353.5,-219.5 1353.5,-171.5 1353.5,-171.5 1353.5,-165.5 1359.5,-159.5 1365.5,-159.5"/>
<text text-anchor="middle" x="1407" y="-198.5" font-family="Helvetica,sans-Serif" font-size="10.00">🔑 SERVICE XSUAA</text>
<text text-anchor="middle" x="1407" y="-175.5" font-family="Helvetica,sans-Serif" font-size="10.00">mtt&#45;xsuaa</text>
</g>
<!-- mtt&#45;cap&#45;services&#45;&gt;mtt&#45;xsuaa -->
<g id="edge3" class="edge">
<title>mtt&#45;cap&#45;services&#45;&gt;mtt&#45;xsuaa</title>
<path fill="none" stroke="#40806e" stroke-width="0.7" d="M1726.42,-333.98C1706.71,-324.84 1685.39,-315.85 1665,-309 1628.39,-296.7 1613.25,-310.64 1580,-291 1568.88,-284.43 1572.5,-274.89 1561,-269 1524.86,-250.5 1506.69,-278.38 1470,-261 1458.95,-255.76 1448.77,-247.72 1439.97,-239.06"/>
<polygon fill="#40806e" stroke="#40806e" stroke-width="0.7" points="1442.36,-236.49 1432.91,-231.7 1437.31,-241.34 1442.36,-236.49"/>
<text text-anchor="middle" x="1624" y="-277.5" font-family="Helvetica,sans-Serif" font-size="10.00" fill="#40806e">use xsuaa service</text>
</g>
<!-- mtt&#45;service&#45;manager -->
<g id="node5" class="node">
<title>mtt&#45;service&#45;manager</title>
<path fill="#488791" stroke="#407780" d="M2043,-159.5C2043,-159.5 2131,-159.5 2131,-159.5 2137,-159.5 2143,-165.5 2143,-171.5 2143,-171.5 2143,-219.5 2143,-219.5 2143,-225.5 2137,-231.5 2131,-231.5 2131,-231.5 2043,-231.5 2043,-231.5 2037,-231.5 2031,-225.5 2031,-219.5 2031,-219.5 2031,-171.5 2031,-171.5 2031,-165.5 2037,-159.5 2043,-159.5"/>
<text text-anchor="middle" x="2087" y="-198.5" font-family="Helvetica,sans-Serif" font-size="10.00">SERVICE&#45;MANAGER</text>
<text text-anchor="middle" x="2087" y="-175.5" font-family="Helvetica,sans-Serif" font-size="10.00">mtt&#45;service&#45;manager</text>
</g>
<!-- mtt&#45;cap&#45;services&#45;&gt;mtt&#45;service&#45;manager -->
<g id="edge4" class="edge">
<title>mtt&#45;cap&#45;services&#45;&gt;mtt&#45;service&#45;manager</title>
<path fill="none" stroke="black" stroke-width="0.7" stroke-dasharray="5,2" d="M1885.84,-372.19C1946.79,-365.31 2027.89,-345.59 2074,-291 2085.33,-277.59 2089.5,-259.08 2090.51,-242"/>
<polygon fill="black" stroke="black" stroke-width="0.7" points="2094.02,-241.69 2090.76,-231.6 2087.02,-241.52 2094.02,-241.69"/>
<text text-anchor="middle" x="2094" y="-277.5" font-family="Helvetica,sans-Serif" font-size="10.00">use</text>
</g>
<!-- mtt&#45;saas -->
<g id="node6" class="node">
<title>mtt&#45;saas</title>
<path fill="#488791" stroke="#407780" d="M1262.5,-159.5C1262.5,-159.5 1323.5,-159.5 1323.5,-159.5 1329.5,-159.5 1335.5,-165.5 1335.5,-171.5 1335.5,-171.5 1335.5,-219.5 1335.5,-219.5 1335.5,-225.5 1329.5,-231.5 1323.5,-231.5 1323.5,-231.5 1262.5,-231.5 1262.5,-231.5 1256.5,-231.5 1250.5,-225.5 1250.5,-219.5 1250.5,-219.5 1250.5,-171.5 1250.5,-171.5 1250.5,-165.5 1256.5,-159.5 1262.5,-159.5"/>
<text text-anchor="middle" x="1293" y="-198.5" font-family="Helvetica,sans-Serif" font-size="10.00">SAAS REGISTRY</text>
<text text-anchor="middle" x="1293" y="-175.5" font-family="Helvetica,sans-Serif" font-size="10.00">mtt&#45;saas</text>
</g>
<!-- mtt&#45;cap&#45;services&#45;&gt;mtt&#45;saas -->
<g id="edge5" class="edge">
<title>mtt&#45;cap&#45;services&#45;&gt;mtt&#45;saas</title>
<path fill="none" stroke="black" stroke-width="0.7" stroke-dasharray="5,2" d="M1726.48,-332.42C1706.85,-323.39 1685.56,-314.84 1665,-309 1597.44,-289.8 1574.8,-312.69 1508,-291 1489.07,-284.86 1488.08,-274.67 1469,-269 1442.53,-261.13 1369.51,-273.71 1345,-261 1335.22,-255.93 1326.64,-248.12 1319.42,-239.67"/>
<polygon fill="black" stroke="black" stroke-width="0.7" points="1322.12,-237.45 1313.17,-231.79 1316.64,-241.8 1322.12,-237.45"/>
<text text-anchor="middle" x="1517" y="-277.5" font-family="Helvetica,sans-Serif" font-size="10.00">use</text>
</g>
<!-- mtt&#45;application&#45;logging -->
<g id="node7" class="node">
<title>mtt&#45;application&#45;logging</title>
<path fill="#488791" stroke="#815d72" d="M1491,-159.5C1491,-159.5 1627,-159.5 1627,-159.5 1633,-159.5 1639,-165.5 1639,-171.5 1639,-171.5 1639,-219.5 1639,-219.5 1639,-225.5 1633,-231.5 1627,-231.5 1627,-231.5 1491,-231.5 1491,-231.5 1485,-231.5 1479,-225.5 1479,-219.5 1479,-219.5 1479,-171.5 1479,-171.5 1479,-165.5 1485,-159.5 1491,-159.5"/>
<text text-anchor="middle" x="1559" y="-198.5" font-family="Helvetica,sans-Serif" font-size="10.00">📃 SERVICE APPLICATION LOG</text>
<text text-anchor="middle" x="1559" y="-175.5" font-family="Helvetica,sans-Serif" font-size="10.00">mtt&#45;application&#45;logging</text>
</g>
<!-- mtt&#45;cap&#45;services&#45;&gt;mtt&#45;application&#45;logging -->
<g id="edge6" class="edge">
<title>mtt&#45;cap&#45;services&#45;&gt;mtt&#45;application&#45;logging</title>
<path fill="none" stroke="#815d72" stroke-width="0.7" d="M1760.24,-321.97C1739.43,-299.05 1716.49,-275.92 1703,-269 1681.41,-257.92 1671.49,-270.1 1649,-261 1634.67,-255.2 1620.47,-246.69 1607.73,-237.73"/>
<polygon fill="#815d72" stroke="#815d72" stroke-width="0.7" points="1609.72,-234.85 1599.57,-231.81 1605.6,-240.52 1609.72,-234.85"/>
<text text-anchor="middle" x="1744" y="-277.5" font-family="Helvetica,sans-Serif" font-size="10.00" fill="#815d72">log to</text>
</g>
<!-- mtt&#45;redis -->
<g id="node8" class="node">
<title>mtt&#45;redis</title>
<path fill="#488791" stroke="#407780" d="M1669.5,-159.5C1669.5,-159.5 1720.5,-159.5 1720.5,-159.5 1726.5,-159.5 1732.5,-165.5 1732.5,-171.5 1732.5,-171.5 1732.5,-219.5 1732.5,-219.5 1732.5,-225.5 1726.5,-231.5 1720.5,-231.5 1720.5,-231.5 1669.5,-231.5 1669.5,-231.5 1663.5,-231.5 1657.5,-225.5 1657.5,-219.5 1657.5,-219.5 1657.5,-171.5 1657.5,-171.5 1657.5,-165.5 1663.5,-159.5 1669.5,-159.5"/>
<text text-anchor="middle" x="1695" y="-198.5" font-family="Helvetica,sans-Serif" font-size="10.00">REDIS&#45;CACHE</text>
<text text-anchor="middle" x="1695" y="-175.5" font-family="Helvetica,sans-Serif" font-size="10.00">mtt&#45;redis</text>
</g>
<!-- mtt&#45;cap&#45;services&#45;&gt;mtt&#45;redis -->
<g id="edge7" class="edge">
<title>mtt&#45;cap&#45;services&#45;&gt;mtt&#45;redis</title>
<path fill="none" stroke="black" stroke-width="0.7" stroke-dasharray="5,2" d="M1794.53,-321.78C1788.22,-303.05 1778.58,-283.18 1764,-269 1756.54,-261.75 1750.31,-267.25 1742,-261 1734.28,-255.19 1727.27,-247.76 1721.17,-240.01"/>
<polygon fill="black" stroke="black" stroke-width="0.7" points="1723.67,-237.51 1714.91,-231.56 1718.04,-241.68 1723.67,-237.51"/>
<text text-anchor="middle" x="1789" y="-277.5" font-family="Helvetica,sans-Serif" font-size="10.00">use</text>
</g>
<!-- mtt&#45;enterprise&#45;messaging -->
<g id="node9" class="node">
<title>mtt&#45;enterprise&#45;messaging</title>
<path fill="#488791" stroke="#407780" d="M2173,-159.5C2173,-159.5 2285,-159.5 2285,-159.5 2291,-159.5 2297,-165.5 2297,-171.5 2297,-171.5 2297,-219.5 2297,-219.5 2297,-225.5 2291,-231.5 2285,-231.5 2285,-231.5 2173,-231.5 2173,-231.5 2167,-231.5 2161,-225.5 2161,-219.5 2161,-219.5 2161,-171.5 2161,-171.5 2161,-165.5 2167,-159.5 2173,-159.5"/>
<text text-anchor="middle" x="2229" y="-198.5" font-family="Helvetica,sans-Serif" font-size="10.00">ENTERPRISE&#45;MESSAGING</text>
<text text-anchor="middle" x="2229" y="-175.5" font-family="Helvetica,sans-Serif" font-size="10.00">mtt&#45;enterprise&#45;messaging</text>
</g>
<!-- mtt&#45;cap&#45;services&#45;&gt;mtt&#45;enterprise&#45;messaging -->
<g id="edge8" class="edge">
<title>mtt&#45;cap&#45;services&#45;&gt;mtt&#45;enterprise&#45;messaging</title>
<path fill="none" stroke="black" stroke-width="0.7" stroke-dasharray="5,2" d="M1885.72,-360.16C1947.82,-346.68 2035.25,-323.95 2107,-291 2128.84,-280.97 2132.76,-275.41 2152,-261 2161.49,-253.9 2171.37,-246.02 2180.76,-238.28"/>
<polygon fill="black" stroke="black" stroke-width="0.7" points="2183.06,-240.91 2188.51,-231.83 2178.59,-235.53 2183.06,-240.91"/>
<text text-anchor="middle" x="2150" y="-277.5" font-family="Helvetica,sans-Serif" font-size="10.00">use</text>
</g>
<!-- mtt&#45;cap&#45;services&#45;api:srv_api -->
<g id="node28" class="node">
<title>mtt&#45;cap&#45;services&#45;api:srv_api</title>
<polygon fill="#ffffe6" stroke="#737c80" points="1371.5,-98.5 1266.5,-98.5 1266.5,-26.5 1377.5,-26.5 1377.5,-92.5 1371.5,-98.5"/>
<polyline fill="none" stroke="#737c80" points="1371.5,-98.5 1371.5,-92.5 "/>
<polyline fill="none" stroke="#737c80" points="1377.5,-92.5 1371.5,-92.5 "/>
<text text-anchor="middle" x="1322" y="-65.5" font-family="Helvetica,sans-Serif" font-size="10.00">Name: srv_api</text>
<text text-anchor="middle" x="1322" y="-42.5" font-family="Helvetica,sans-Serif" font-size="10.00">Value: ${default&#45;url}</text>
</g>
<!-- mtt&#45;cap&#45;services&#45;api&#45;&gt;mtt&#45;cap&#45;services&#45;api:srv_api -->
<g id="edge32" class="edge">
<title>mtt&#45;cap&#45;services&#45;api&#45;&gt;mtt&#45;cap&#45;services&#45;api:srv_api</title>
<path fill="none" stroke="grey" stroke-width="0.7" d="M1760.77,-159.4C1754.71,-156.03 1748.38,-153.1 1742,-151 1686.44,-132.74 1531.71,-166.35 1479,-141 1467.36,-135.4 1470.51,-126.51 1460,-119 1438.21,-103.43 1411.42,-91.36 1387.26,-82.52"/>
<polygon fill="grey" stroke="grey" stroke-width="0.7" points="1388.39,-79.21 1377.79,-79.17 1386.05,-85.81 1388.39,-79.21"/>
<text text-anchor="middle" x="1528.5" y="-127.5" font-family="Helvetica,sans-Serif" font-size="10.00" fill="grey">define MTA property</text>
</g>
<!-- mtt&#45;cap&#45;services&#45;mtx&#45;api:mtx&#45;url -->
<g id="node25" class="node">
<title>mtt&#45;cap&#45;services&#45;mtx&#45;api:mtx&#45;url</title>
<polygon fill="#ffffe6" stroke="#737c80" points="1836.5,-98.5 1731.5,-98.5 1731.5,-26.5 1842.5,-26.5 1842.5,-92.5 1836.5,-98.5"/>
<polyline fill="none" stroke="#737c80" points="1836.5,-98.5 1836.5,-92.5 "/>
<polyline fill="none" stroke="#737c80" points="1842.5,-92.5 1836.5,-92.5 "/>
<text text-anchor="middle" x="1787" y="-65.5" font-family="Helvetica,sans-Serif" font-size="10.00">Name: mtx&#45;url</text>
<text text-anchor="middle" x="1787" y="-42.5" font-family="Helvetica,sans-Serif" font-size="10.00">Value: ${default&#45;url}</text>
</g>
<!-- mtt&#45;cap&#45;services&#45;mtx&#45;api&#45;&gt;mtt&#45;cap&#45;services&#45;mtx&#45;api:mtx&#45;url -->
<g id="edge33" class="edge">
<title>mtt&#45;cap&#45;services&#45;mtx&#45;api&#45;&gt;mtt&#45;cap&#45;services&#45;mtx&#45;api:mtx&#45;url</title>
<path fill="none" stroke="grey" stroke-width="0.7" d="M1903.39,-159.39C1883.16,-142.73 1858.84,-122.69 1837.67,-105.25"/>
<polygon fill="grey" stroke="grey" stroke-width="0.7" points="1839.67,-102.36 1829.73,-98.7 1835.22,-107.76 1839.67,-102.36"/>
<text text-anchor="middle" x="1929.5" y="-127.5" font-family="Helvetica,sans-Serif" font-size="10.00" fill="grey">define MTA property</text>
</g>
<!-- mtt&#45;xsuaa:XSAPPNAME -->
<g id="node24" class="node">
<title>mtt&#45;xsuaa:XSAPPNAME</title>
<polygon fill="#ffffe6" stroke="#737c80" points="1653.5,-98.5 1548.5,-98.5 1548.5,-26.5 1659.5,-26.5 1659.5,-92.5 1653.5,-98.5"/>
<polyline fill="none" stroke="#737c80" points="1653.5,-98.5 1653.5,-92.5 "/>
<polyline fill="none" stroke="#737c80" points="1659.5,-92.5 1653.5,-92.5 "/>
<text text-anchor="middle" x="1604" y="-65.5" font-family="Helvetica,sans-Serif" font-size="10.00">Name: XSAPPNAME</text>
<text text-anchor="middle" x="1604" y="-42.5" font-family="Helvetica,sans-Serif" font-size="10.00">Value: ${xsuaa&#45;app}</text>
</g>
<!-- mtt&#45;xsuaa&#45;&gt;mtt&#45;xsuaa:XSAPPNAME -->
<g id="edge25" class="edge">
<title>mtt&#45;xsuaa&#45;&gt;mtt&#45;xsuaa:XSAPPNAME</title>
<path fill="none" stroke="grey" stroke-width="0.7" d="M1452.3,-159.31C1458.03,-156.05 1464,-153.17 1470,-151 1493.5,-142.51 1562.75,-156.94 1582,-141 1591.68,-132.99 1597.27,-121.05 1600.46,-108.94"/>
<polygon fill="grey" stroke="grey" stroke-width="0.7" points="1603.96,-109.31 1602.6,-98.8 1597.11,-107.86 1603.96,-109.31"/>
<text text-anchor="middle" x="1645.5" y="-127.5" font-family="Helvetica,sans-Serif" font-size="10.00" fill="grey">define MTA property</text>
</g>
<!-- mtt&#45;service&#45;manager:hdi&#45;service&#45;name -->
<g id="node23" class="node">
<title>mtt&#45;service&#45;manager:hdi&#45;service&#45;name</title>
<polygon fill="#ffffe6" stroke="#737c80" points="2145.5,-98.5 2022.5,-98.5 2022.5,-26.5 2151.5,-26.5 2151.5,-92.5 2145.5,-98.5"/>
<polyline fill="none" stroke="#737c80" points="2145.5,-98.5 2145.5,-92.5 "/>
<polyline fill="none" stroke="#737c80" points="2151.5,-92.5 2145.5,-92.5 "/>
<text text-anchor="middle" x="2087" y="-65.5" font-family="Helvetica,sans-Serif" font-size="10.00">Name: hdi&#45;service&#45;name</text>
<text text-anchor="middle" x="2087" y="-42.5" font-family="Helvetica,sans-Serif" font-size="10.00">Value: ${service&#45;name}</text>
</g>
<!-- mtt&#45;service&#45;manager&#45;&gt;mtt&#45;service&#45;manager:hdi&#45;service&#45;name -->
<g id="edge24" class="edge">
<title>mtt&#45;service&#45;manager&#45;&gt;mtt&#45;service&#45;manager:hdi&#45;service&#45;name</title>
<path fill="none" stroke="grey" stroke-width="0.7" d="M2087,-159.39C2087,-143.83 2087,-125.32 2087,-108.74"/>
<polygon fill="grey" stroke="grey" stroke-width="0.7" points="2090.5,-108.7 2087,-98.7 2083.5,-108.7 2090.5,-108.7"/>
<text text-anchor="middle" x="2136.5" y="-127.5" font-family="Helvetica,sans-Serif" font-size="10.00" fill="grey">define MTA property</text>
</g>
<!-- mtt&#45;saas&#45;&gt;mtt&#45;cap&#45;services&#45;mtx&#45;api:mtx&#45;url -->
<g id="edge26" class="edge">
<title>mtt&#45;saas&#45;&gt;mtt&#45;cap&#45;services&#45;mtx&#45;api:mtx&#45;url</title>
<path fill="none" stroke="grey" stroke-width="0.7" d="M1334.11,-159.42C1337.75,-156.52 1341.42,-153.68 1345,-151 1351.42,-146.2 1353.86,-146.15 1360,-141 1370.35,-132.31 1368.74,-124.7 1381,-119 1439.14,-91.95 1605.97,-112.8 1669,-101 1686.31,-97.76 1704.62,-92.75 1721.53,-87.44"/>
<polygon fill="grey" stroke="grey" stroke-width="0.7" points="1722.86,-90.69 1731.3,-84.29 1720.71,-84.03 1722.86,-90.69"/>
<text text-anchor="middle" x="1418.5" y="-127.5" font-family="Helvetica,sans-Serif" font-size="10.00" fill="grey">on subscription</text>
</g>
<!-- mtt&#45;approuter&#45;provisioning:url -->
<g id="node26" class="node">
<title>mtt&#45;approuter&#45;provisioning:url</title>
<polygon fill="#ffffe6" stroke="#737c80" points="1094,-98.5 926,-98.5 926,-26.5 1100,-26.5 1100,-92.5 1094,-98.5"/>
<polyline fill="none" stroke="#737c80" points="1094,-98.5 1094,-92.5 "/>
<polyline fill="none" stroke="#737c80" points="1100,-92.5 1094,-92.5 "/>
<text text-anchor="middle" x="1013" y="-65.5" font-family="Helvetica,sans-Serif" font-size="10.00">Name: url</text>
<text text-anchor="middle" x="1013" y="-42.5" font-family="Helvetica,sans-Serif" font-size="10.00">Value: ${default&#45;url}/provisioning</text>
</g>
<!-- mtt&#45;saas&#45;&gt;mtt&#45;approuter&#45;provisioning:url -->
<g id="edge27" class="edge">
<title>mtt&#45;saas&#45;&gt;mtt&#45;approuter&#45;provisioning:url</title>
<path fill="none" stroke="grey" stroke-width="0.7" d="M1283.21,-159.34C1277.5,-144.87 1268.82,-129.15 1256,-119 1233.19,-100.94 1167.3,-86.54 1109.87,-76.93"/>
<polygon fill="grey" stroke="grey" stroke-width="0.7" points="1110.44,-73.48 1100,-75.32 1109.31,-80.39 1110.44,-73.48"/>
<text text-anchor="middle" x="1314.5" y="-127.5" font-family="Helvetica,sans-Serif" font-size="10.00" fill="grey">on dependencies</text>
</g>
<!-- jobs&#45;monitor -->
<g id="node10" class="node">
<title>jobs&#45;monitor</title>
<path fill="#bfb9ac" stroke="#737c80" d="M1645.56,-403.62C1645.56,-403.62 1595.03,-436.81 1595.03,-436.81 1590.02,-440.11 1579.98,-440.11 1574.97,-436.81 1574.97,-436.81 1524.44,-403.62 1524.44,-403.62 1519.42,-400.33 1514.41,-391.04 1514.42,-385.04 1514.42,-385.04 1514.46,-334.01 1514.46,-334.01 1514.47,-328.01 1520.47,-322.01 1526.47,-322.01 1526.47,-322.01 1643.53,-322.01 1643.53,-322.01 1649.53,-322.01 1655.53,-328.01 1655.54,-334.01 1655.54,-334.01 1655.58,-385.04 1655.58,-385.04 1655.59,-391.04 1650.58,-400.33 1645.56,-403.62"/>
<text text-anchor="middle" x="1585" y="-390.8" font-family="Helvetica,sans-Serif" font-size="10.00">CAP</text>
<text text-anchor="middle" x="1585" y="-367.8" font-family="Helvetica,sans-Serif" font-size="10.00">jobs&#45;monitor</text>
<text text-anchor="middle" x="1585" y="-344.8" font-family="Helvetica,sans-Serif" font-size="10.00">Memory: 130M</text>
</g>
<!-- jobs&#45;monitor&#45;&gt;mtt&#45;application&#45;logging -->
<g id="edge9" class="edge">
<title>jobs&#45;monitor&#45;&gt;mtt&#45;application&#45;logging</title>
<path fill="none" stroke="#815d72" stroke-width="0.7" d="M1545.94,-321.57C1540.61,-311.82 1535.96,-301.42 1533,-291 1528.39,-274.73 1531.27,-256.85 1536.53,-241.07"/>
<polygon fill="#815d72" stroke="#815d72" stroke-width="0.7" points="1539.87,-242.13 1540.07,-231.54 1533.31,-239.7 1539.87,-242.13"/>
<text text-anchor="middle" x="1547" y="-277.5" font-family="Helvetica,sans-Serif" font-size="10.00" fill="#815d72">log to</text>
</g>
<!-- jobs&#45;monitor&#45;&gt;mtt&#45;redis -->
<g id="edge10" class="edge">
<title>jobs&#45;monitor&#45;&gt;mtt&#45;redis</title>
<path fill="none" stroke="black" stroke-width="0.7" stroke-dasharray="5,2" d="M1648.88,-321.98C1657.62,-312.4 1665.73,-301.95 1672,-291 1680.55,-276.07 1685.93,-258.06 1689.32,-241.79"/>
<polygon fill="black" stroke="black" stroke-width="0.7" points="1692.77,-242.4 1691.18,-231.92 1685.89,-241.1 1692.77,-242.4"/>
<text text-anchor="middle" x="1690" y="-277.5" font-family="Helvetica,sans-Serif" font-size="10.00">use</text>
</g>
<!-- mtt&#45;approuter -->
<g id="node11" class="node">
<title>mtt&#45;approuter</title>
<polygon fill="#bfb9ac" stroke="#737c80" points="998.5,-412.3 925.5,-412.3 921.5,-408.3 921.5,-340.3 994.5,-340.3 998.5,-344.3 998.5,-412.3"/>
<polyline fill="none" stroke="#737c80" points="994.5,-408.3 921.5,-408.3 "/>
<polyline fill="none" stroke="#737c80" points="994.5,-408.3 994.5,-340.3 "/>
<polyline fill="none" stroke="#737c80" points="994.5,-408.3 998.5,-412.3 "/>
<text text-anchor="middle" x="960" y="-379.3" font-family="Helvetica,sans-Serif" font-size="10.00">APPROUTER</text>
<text text-anchor="middle" x="960" y="-356.3" font-family="Helvetica,sans-Serif" font-size="10.00">mtt&#45;approuter</text>
</g>
<!-- mtt&#45;approuter&#45;&gt;mtt&#45;xsuaa -->
<g id="edge13" class="edge">
<title>mtt&#45;approuter&#45;&gt;mtt&#45;xsuaa</title>
<path fill="none" stroke="#40806e" stroke-width="0.7" d="M974.54,-340.22C981.18,-328.43 990.24,-316.4 1002,-309 1059.95,-272.54 1093.38,-320.86 1155,-291 1167.44,-284.97 1164.35,-274.59 1177,-269 1211.18,-253.88 1310.97,-276.46 1345,-261 1356.16,-255.93 1366.33,-247.86 1375.06,-239.12"/>
<polygon fill="#40806e" stroke="#40806e" stroke-width="0.7" points="1377.76,-241.36 1382.05,-231.67 1372.65,-236.57 1377.76,-241.36"/>
<text text-anchor="middle" x="1221" y="-277.5" font-family="Helvetica,sans-Serif" font-size="10.00" fill="#40806e">use xsuaa service</text>
</g>
<!-- mtt&#45;approuter&#45;&gt;mtt&#45;saas -->
<g id="edge15" class="edge">
<title>mtt&#45;approuter&#45;&gt;mtt&#45;saas</title>
<path fill="none" stroke="black" stroke-width="0.7" stroke-dasharray="5,2" d="M974.95,-340.21C981.6,-328.56 990.55,-316.63 1002,-309 1041.4,-282.74 1063.41,-309.49 1107,-291 1122.22,-284.54 1121.48,-274.71 1137,-269 1160,-260.53 1225.63,-273.01 1247,-261 1255.99,-255.95 1263.66,-248.32 1270.02,-240.06"/>
<polygon fill="black" stroke="black" stroke-width="0.7" points="1273.04,-241.85 1275.93,-231.66 1267.31,-237.82 1273.04,-241.85"/>
<text text-anchor="middle" x="1146" y="-277.5" font-family="Helvetica,sans-Serif" font-size="10.00">use</text>
</g>
<!-- mtt&#45;approuter&#45;&gt;mtt&#45;application&#45;logging -->
<g id="edge16" class="edge">
<title>mtt&#45;approuter&#45;&gt;mtt&#45;application&#45;logging</title>
<path fill="none" stroke="#815d72" stroke-width="0.7" d="M974.12,-340.2C980.75,-328.25 989.91,-316.13 1002,-309 1060.49,-274.53 1256.18,-336.02 1307,-291 1314.44,-284.41 1303.53,-275.56 1311,-269 1324.29,-257.33 1453.32,-266.88 1470,-261 1484.91,-255.75 1499.49,-247.14 1512.4,-237.9"/>
<polygon fill="#815d72" stroke="#815d72" stroke-width="0.7" points="1514.7,-240.55 1520.62,-231.76 1510.51,-234.94 1514.7,-240.55"/>
<text text-anchor="middle" x="1325" y="-277.5" font-family="Helvetica,sans-Serif" font-size="10.00" fill="#815d72">log to</text>
</g>
<!-- mtt&#45;approuter&#45;provisioning -->
<g id="node12" class="node">
<title>mtt&#45;approuter&#45;provisioning</title>
<polygon fill="#ffffcc" stroke="#737c80" points="766.5,-231.5 631.5,-231.5 631.5,-159.5 772.5,-159.5 772.5,-225.5 766.5,-231.5"/>
<polyline fill="none" stroke="#737c80" points="766.5,-231.5 766.5,-225.5 "/>
<polyline fill="none" stroke="#737c80" points="772.5,-225.5 766.5,-225.5 "/>
<text text-anchor="middle" x="702" y="-193" font-family="Helvetica,sans-Serif" font-size="10.00">mtt&#45;approuter&#45;provisioning</text>
</g>
<!-- mtt&#45;approuter&#45;&gt;mtt&#45;approuter&#45;provisioning -->
<g id="edge11" class="edge">
<title>mtt&#45;approuter&#45;&gt;mtt&#45;approuter&#45;provisioning</title>
<path fill="none" stroke="black" stroke-width="0.7" d="M921.13,-375.02C863.81,-372.28 757.92,-357.84 707,-291 696.53,-277.26 693.82,-258.85 694.26,-241.94"/>
<polygon fill="black" stroke="black" stroke-width="0.7" points="697.77,-241.86 694.9,-231.66 690.78,-241.42 697.77,-241.86"/>
<text text-anchor="middle" x="770" y="-277.5" font-family="Helvetica,sans-Serif" font-size="10.00">define MTA Properties Set</text>
</g>
<!-- mtt&#45;destination -->
<g id="node13" class="node">
<title>mtt&#45;destination</title>
<polygon fill="#488791" stroke="transparent" points="1000.5,-231.5 881.5,-231.5 881.5,-159.5 1000.5,-159.5 1000.5,-231.5"/>
<polyline fill="none" stroke="#407780" points="881.5,-159.5 1000.5,-159.5 "/>
<text text-anchor="middle" x="941" y="-198.5" font-family="Helvetica,sans-Serif" font-size="10.00">SERVICE DESTINATION</text>
<text text-anchor="middle" x="941" y="-175.5" font-family="Helvetica,sans-Serif" font-size="10.00">mtt&#45;destination</text>
</g>
<!-- mtt&#45;approuter&#45;&gt;mtt&#45;destination -->
<g id="edge12" class="edge">
<title>mtt&#45;approuter&#45;&gt;mtt&#45;destination</title>
<path fill="none" stroke="black" stroke-width="0.7" stroke-dasharray="5,2" d="M950.19,-339.91C946.52,-324.95 942.81,-307.25 941,-291 939.23,-275.1 938.81,-257.61 938.97,-242.04"/>
<polygon fill="black" stroke="black" stroke-width="0.7" points="942.47,-241.67 939.16,-231.61 935.47,-241.54 942.47,-241.67"/>
<text text-anchor="middle" x="950" y="-277.5" font-family="Helvetica,sans-Serif" font-size="10.00">use</text>
</g>
<!-- mtt&#45;portal -->
<g id="node14" class="node">
<title>mtt&#45;portal</title>
<path fill="#488791" stroke="#407780" d="M1031,-159.5C1031,-159.5 1097,-159.5 1097,-159.5 1103,-159.5 1109,-165.5 1109,-171.5 1109,-171.5 1109,-219.5 1109,-219.5 1109,-225.5 1103,-231.5 1097,-231.5 1097,-231.5 1031,-231.5 1031,-231.5 1025,-231.5 1019,-225.5 1019,-219.5 1019,-219.5 1019,-171.5 1019,-171.5 1019,-165.5 1025,-159.5 1031,-159.5"/>
<text text-anchor="middle" x="1064" y="-198.5" font-family="Helvetica,sans-Serif" font-size="10.00">SERVICE PORTAL</text>
<text text-anchor="middle" x="1064" y="-175.5" font-family="Helvetica,sans-Serif" font-size="10.00">mtt&#45;portal</text>
</g>
<!-- mtt&#45;approuter&#45;&gt;mtt&#45;portal -->
<g id="edge14" class="edge">
<title>mtt&#45;approuter&#45;&gt;mtt&#45;portal</title>
<path fill="none" stroke="black" stroke-width="0.7" stroke-dasharray="5,2" d="M954.73,-340.23C953.35,-317.19 955.82,-287.93 973,-269 984.01,-256.86 994.96,-269.45 1009,-261 1018.36,-255.37 1026.92,-247.57 1034.36,-239.35"/>
<polygon fill="black" stroke="black" stroke-width="0.7" points="1037.04,-241.6 1040.86,-231.72 1031.71,-237.06 1037.04,-241.6"/>
<text text-anchor="middle" x="982" y="-277.5" font-family="Helvetica,sans-Serif" font-size="10.00">use</text>
</g>
<!-- destinations -->
<g id="node15" class="node">
<title>destinations</title>
<ellipse fill="#bfb9ac" stroke="#737c80" cx="827" cy="-195.5" rx="36" ry="36"/>
<text text-anchor="middle" x="827" y="-193" font-family="Helvetica,sans-Serif" font-size="10.00">destinations</text>
</g>
<!-- mtt&#45;approuter&#45;&gt;destinations -->
<g id="edge17" class="edge">
<title>mtt&#45;approuter&#45;&gt;destinations</title>
<path fill="none" stroke="black" stroke-width="0.7" d="M921.28,-356.35C895.93,-341.92 864.22,-319.67 846,-291 836.71,-276.38 831.82,-258.13 829.3,-241.58"/>
<polygon fill="black" stroke="black" stroke-width="0.7" points="832.76,-241.02 828.02,-231.54 825.81,-241.91 832.76,-241.02"/>
<text text-anchor="middle" x="891" y="-283" font-family="Helvetica,sans-Serif" font-size="10.00">define enviroment</text>
<text text-anchor="middle" x="891" y="-272" font-family="Helvetica,sans-Serif" font-size="10.00">variable</text>
</g>
<!-- mtt&#45;html5&#45;repo&#45;runtime -->
<g id="node16" class="node">
<title>mtt&#45;html5&#45;repo&#45;runtime</title>
<path fill="#488791" stroke="#407780" d="M483.5,-159.5C483.5,-159.5 594.5,-159.5 594.5,-159.5 600.5,-159.5 606.5,-165.5 606.5,-171.5 606.5,-171.5 606.5,-219.5 606.5,-219.5 606.5,-225.5 600.5,-231.5 594.5,-231.5 594.5,-231.5 483.5,-231.5 483.5,-231.5 477.5,-231.5 471.5,-225.5 471.5,-219.5 471.5,-219.5 471.5,-171.5 471.5,-171.5 471.5,-165.5 477.5,-159.5 483.5,-159.5"/>
<text text-anchor="middle" x="539" y="-198.5" font-family="Helvetica,sans-Serif" font-size="10.00">SERVICE HTML5 RUNTIME</text>
<text text-anchor="middle" x="539" y="-175.5" font-family="Helvetica,sans-Serif" font-size="10.00">mtt&#45;html5&#45;repo&#45;runtime</text>
</g>
<!-- mtt&#45;approuter&#45;&gt;mtt&#45;html5&#45;repo&#45;runtime -->
<g id="edge18" class="edge">
<title>mtt&#45;approuter&#45;&gt;mtt&#45;html5&#45;repo&#45;runtime</title>
<path fill="none" stroke="black" stroke-width="0.7" d="M921.26,-374.66C852.33,-371.78 706.3,-357.59 607,-291 588.1,-278.33 572.67,-258.52 561.32,-240.31"/>
<polygon fill="black" stroke="black" stroke-width="0.7" points="564.21,-238.33 556.08,-231.54 558.2,-241.92 564.21,-238.33"/>
<text text-anchor="middle" x="650.5" y="-283" font-family="Helvetica,sans-Serif" font-size="10.00">route apps to</text>
<text text-anchor="middle" x="650.5" y="-272" font-family="Helvetica,sans-Serif" font-size="10.00">HTML5 repository</text>
</g>
<!-- mtt&#45;approuter&#45;provisioning&#45;&gt;mtt&#45;approuter&#45;provisioning:url -->
<g id="edge34" class="edge">
<title>mtt&#45;approuter&#45;provisioning&#45;&gt;mtt&#45;approuter&#45;provisioning:url</title>
<path fill="none" stroke="grey" stroke-width="0.7" d="M764.47,-159.49C770.35,-156.51 776.25,-153.64 782,-151 825.21,-131.18 874.32,-112.11 916.11,-96.87"/>
<polygon fill="grey" stroke="grey" stroke-width="0.7" points="917.53,-100.08 925.74,-93.38 915.15,-93.5 917.53,-100.08"/>
<text text-anchor="middle" x="907.5" y="-127.5" font-family="Helvetica,sans-Serif" font-size="10.00" fill="grey">define MTA property</text>
</g>
<!-- destinations&#45;&gt;mtt&#45;cap&#45;services&#45;api:srv_api -->
<g id="edge35" class="edge">
<title>destinations&#45;&gt;mtt&#45;cap&#45;services&#45;api:srv_api</title>
<path fill="none" stroke="grey" stroke-width="0.7" d="M849.46,-167.24C856.06,-160.91 863.74,-154.89 872,-151 908.01,-134.04 921.71,-147.41 961,-141 1065.08,-124.02 1184.47,-96.86 1256.52,-79.62"/>
<polygon fill="grey" stroke="grey" stroke-width="0.7" points="1257.45,-82.99 1266.36,-77.25 1255.82,-76.18 1257.45,-82.99"/>
<text text-anchor="middle" x="1114" y="-127.5" font-family="Helvetica,sans-Serif" font-size="10.00" fill="grey">use MTA property</text>
</g>
<!-- mtt&#45;html&#45;deployer -->
<g id="node17" class="node">
<title>mtt&#45;html&#45;deployer</title>
<polygon fill="#bfb9ac" stroke="#737c80" points="328.5,-231.5 233.5,-231.5 229.5,-227.5 229.5,-159.5 324.5,-159.5 328.5,-163.5 328.5,-231.5"/>
<polyline fill="none" stroke="#737c80" points="324.5,-227.5 229.5,-227.5 "/>
<polyline fill="none" stroke="#737c80" points="324.5,-227.5 324.5,-159.5 "/>
<polyline fill="none" stroke="#737c80" points="324.5,-227.5 328.5,-231.5 "/>
<text text-anchor="middle" x="279" y="-198.5" font-family="Helvetica,sans-Serif" font-size="10.00">APPS DEPLOYER</text>
<text text-anchor="middle" x="279" y="-175.5" font-family="Helvetica,sans-Serif" font-size="10.00">mtt&#45;html&#45;deployer</text>
</g>
<!-- mtt&#45;html5&#45;repo&#45;host -->
<g id="node18" class="node">
<title>mtt&#45;html5&#45;repo&#45;host</title>
<polygon fill="#488791" stroke="#407780" points="607,-101 604,-105 583,-105 580,-101 457,-101 457,-24 607,-24 607,-101"/>
<text text-anchor="middle" x="532" y="-77" font-family="Helvetica,sans-Serif" font-size="10.00">SERVICE HTML5 REPOSITORY</text>
<text text-anchor="middle" x="532" y="-54" font-family="Helvetica,sans-Serif" font-size="10.00">mtt&#45;html5&#45;repo&#45;host</text>
<text text-anchor="middle" x="532" y="-31" font-family="Helvetica,sans-Serif" font-size="10.00">Size: 1 MB</text>
</g>
<!-- mtt&#45;html&#45;deployer&#45;&gt;mtt&#45;html5&#45;repo&#45;host -->
<g id="edge19" class="edge">
<title>mtt&#45;html&#45;deployer&#45;&gt;mtt&#45;html5&#45;repo&#45;host</title>
<path fill="none" stroke="black" stroke-width="0.7" d="M328.67,-176.37C353.28,-166.81 383.19,-154.32 409,-141 428.84,-130.76 449.65,-118.35 468.4,-106.48"/>
<polygon fill="black" stroke="black" stroke-width="0.7" points="470.31,-109.41 476.86,-101.08 466.55,-103.51 470.31,-109.41"/>
<text text-anchor="middle" x="491.5" y="-133" font-family="Helvetica,sans-Serif" font-size="10.00">deploy apps to</text>
<text text-anchor="middle" x="491.5" y="-122" font-family="Helvetica,sans-Serif" font-size="10.00">HTML5 repository</text>
</g>
<!-- ui_controlpoints -->
<g id="node19" class="node">
<title>ui_controlpoints</title>
<path fill="#b0ac89" stroke="#8b875d" d="M99.5,-98.5C99.5,-98.5 36.5,-98.5 36.5,-98.5 30.5,-98.5 24.5,-92.5 24.5,-86.5 24.5,-86.5 24.5,-38.5 24.5,-38.5 24.5,-32.5 30.5,-26.5 36.5,-26.5 36.5,-26.5 99.5,-26.5 99.5,-26.5 105.5,-26.5 111.5,-32.5 111.5,-38.5 111.5,-38.5 111.5,-86.5 111.5,-86.5 111.5,-92.5 105.5,-98.5 99.5,-98.5"/>
<text text-anchor="middle" x="68" y="-65.5" font-family="Helvetica,sans-Serif" font-size="10.00">APP HTML5</text>
<text text-anchor="middle" x="68" y="-42.5" font-family="Helvetica,sans-Serif" font-size="10.00">ui_controlpoints</text>
</g>
<!-- mtt&#45;html&#45;deployer&#45;&gt;ui_controlpoints -->
<g id="edge20" class="edge">
<title>mtt&#45;html&#45;deployer&#45;&gt;ui_controlpoints</title>
<path fill="none" stroke="#8b875d" stroke-width="0.7" d="M229.26,-178.41C204.67,-169.31 175.18,-156.62 151,-141 135.77,-131.16 120.78,-118.39 107.81,-106.07"/>
<polygon fill="#8b875d" stroke="#8b875d" stroke-width="0.7" points="110.03,-103.35 100.42,-98.89 105.15,-108.37 110.03,-103.35"/>
<text text-anchor="middle" x="177" y="-127.5" font-family="Helvetica,sans-Serif" font-size="10.00" fill="#8b875d">deployApp</text>
</g>
<!-- ui_areas -->
<g id="node20" class="node">
<title>ui_areas</title>
<path fill="#b0ac89" stroke="#8b875d" d="M190,-98.5C190,-98.5 142,-98.5 142,-98.5 136,-98.5 130,-92.5 130,-86.5 130,-86.5 130,-38.5 130,-38.5 130,-32.5 136,-26.5 142,-26.5 142,-26.5 190,-26.5 190,-26.5 196,-26.5 202,-32.5 202,-38.5 202,-38.5 202,-86.5 202,-86.5 202,-92.5 196,-98.5 190,-98.5"/>
<text text-anchor="middle" x="166" y="-65.5" font-family="Helvetica,sans-Serif" font-size="10.00">APP HTML5</text>
<text text-anchor="middle" x="166" y="-42.5" font-family="Helvetica,sans-Serif" font-size="10.00">ui_areas</text>
</g>
<!-- mtt&#45;html&#45;deployer&#45;&gt;ui_areas -->
<g id="edge21" class="edge">
<title>mtt&#45;html&#45;deployer&#45;&gt;ui_areas</title>
<path fill="none" stroke="#8b875d" stroke-width="0.7" d="M240.45,-159.39C234.43,-153.42 228.42,-147.16 223,-141 213.68,-130.4 204.31,-118.36 195.92,-106.98"/>
<polygon fill="#8b875d" stroke="#8b875d" stroke-width="0.7" points="198.72,-104.87 190.01,-98.83 193.06,-108.98 198.72,-104.87"/>
<text text-anchor="middle" x="249" y="-127.5" font-family="Helvetica,sans-Serif" font-size="10.00" fill="#8b875d">deployApp</text>
</g>
<!-- ui_temperatureranges -->
<g id="node21" class="node">
<title>ui_temperatureranges</title>
<path fill="#b0ac89" stroke="#8b875d" d="M325.5,-98.5C325.5,-98.5 232.5,-98.5 232.5,-98.5 226.5,-98.5 220.5,-92.5 220.5,-86.5 220.5,-86.5 220.5,-38.5 220.5,-38.5 220.5,-32.5 226.5,-26.5 232.5,-26.5 232.5,-26.5 325.5,-26.5 325.5,-26.5 331.5,-26.5 337.5,-32.5 337.5,-38.5 337.5,-38.5 337.5,-86.5 337.5,-86.5 337.5,-92.5 331.5,-98.5 325.5,-98.5"/>
<text text-anchor="middle" x="279" y="-65.5" font-family="Helvetica,sans-Serif" font-size="10.00">APP HTML5</text>
<text text-anchor="middle" x="279" y="-42.5" font-family="Helvetica,sans-Serif" font-size="10.00">ui_temperatureranges</text>
</g>
<!-- mtt&#45;html&#45;deployer&#45;&gt;ui_temperatureranges -->
<g id="edge22" class="edge">
<title>mtt&#45;html&#45;deployer&#45;&gt;ui_temperatureranges</title>
<path fill="none" stroke="#8b875d" stroke-width="0.7" d="M279,-159.39C279,-143.83 279,-125.32 279,-108.74"/>
<polygon fill="#8b875d" stroke="#8b875d" stroke-width="0.7" points="282.5,-108.7 279,-98.7 275.5,-108.7 282.5,-108.7"/>
<text text-anchor="middle" x="305" y="-127.5" font-family="Helvetica,sans-Serif" font-size="10.00" fill="#8b875d">deployApp</text>
</g>
<!-- ui_notifications -->
<g id="node22" class="node">
<title>ui_notifications</title>
<path fill="#b0ac89" stroke="#8b875d" d="M426.5,-98.5C426.5,-98.5 367.5,-98.5 367.5,-98.5 361.5,-98.5 355.5,-92.5 355.5,-86.5 355.5,-86.5 355.5,-38.5 355.5,-38.5 355.5,-32.5 361.5,-26.5 367.5,-26.5 367.5,-26.5 426.5,-26.5 426.5,-26.5 432.5,-26.5 438.5,-32.5 438.5,-38.5 438.5,-38.5 438.5,-86.5 438.5,-86.5 438.5,-92.5 432.5,-98.5 426.5,-98.5"/>
<text text-anchor="middle" x="397" y="-65.5" font-family="Helvetica,sans-Serif" font-size="10.00">APP HTML5</text>
<text text-anchor="middle" x="397" y="-42.5" font-family="Helvetica,sans-Serif" font-size="10.00">ui_notifications</text>
</g>
<!-- mtt&#45;html&#45;deployer&#45;&gt;ui_notifications -->
<g id="edge23" class="edge">
<title>mtt&#45;html&#45;deployer&#45;&gt;ui_notifications</title>
<path fill="none" stroke="#8b875d" stroke-width="0.7" d="M317.04,-159.49C323.18,-153.46 329.37,-147.15 335,-141 344.83,-130.26 354.93,-118.17 364.04,-106.79"/>
<polygon fill="#8b875d" stroke="#8b875d" stroke-width="0.7" points="367.02,-108.67 370.49,-98.66 361.53,-104.32 367.02,-108.67"/>
<text text-anchor="middle" x="379" y="-127.5" font-family="Helvetica,sans-Serif" font-size="10.00" fill="#8b875d">deployApp</text>
</g>
<!-- mtt&#45;portal&#45;deployer -->
<g id="node27" class="node">
<title>mtt&#45;portal&#45;deployer</title>
<polygon fill="#bfb9ac" stroke="#737c80" points="1232.5,-412.3 1131.5,-412.3 1127.5,-408.3 1127.5,-340.3 1228.5,-340.3 1232.5,-344.3 1232.5,-412.3"/>
<polyline fill="none" stroke="#737c80" points="1228.5,-408.3 1127.5,-408.3 "/>
<polyline fill="none" stroke="#737c80" points="1228.5,-408.3 1228.5,-340.3 "/>
<polyline fill="none" stroke="#737c80" points="1228.5,-408.3 1232.5,-412.3 "/>
<text text-anchor="middle" x="1180" y="-379.3" font-family="Helvetica,sans-Serif" font-size="10.00">PORTAL DEPLOYER</text>
<text text-anchor="middle" x="1180" y="-356.3" font-family="Helvetica,sans-Serif" font-size="10.00">mtt&#45;portal&#45;deployer</text>
</g>
<!-- mtt&#45;portal&#45;deployer&#45;&gt;mtt&#45;xsuaa -->
<g id="edge30" class="edge">
<title>mtt&#45;portal&#45;deployer&#45;&gt;mtt&#45;xsuaa</title>
<path fill="none" stroke="#40806e" stroke-width="0.7" d="M1203.14,-339.97C1212.56,-328.3 1224.45,-316.41 1238,-309 1285.32,-283.12 1314.13,-322.36 1358,-291 1374.9,-278.92 1386.4,-259.23 1394,-240.94"/>
<polygon fill="#40806e" stroke="#40806e" stroke-width="0.7" points="1397.28,-242.14 1397.62,-231.55 1390.75,-239.62 1397.28,-242.14"/>
<text text-anchor="middle" x="1421" y="-277.5" font-family="Helvetica,sans-Serif" font-size="10.00" fill="#40806e">use xsuaa service</text>
</g>
<!-- mtt&#45;portal&#45;deployer&#45;&gt;mtt&#45;saas -->
<g id="edge31" class="edge">
<title>mtt&#45;portal&#45;deployer&#45;&gt;mtt&#45;saas</title>
<path fill="none" stroke="black" stroke-width="0.7" stroke-dasharray="5,2" d="M1207.5,-340.19C1216.63,-329.58 1227.23,-318.29 1238,-309 1249.2,-299.34 1257.18,-302.88 1266,-291 1276.62,-276.71 1283.06,-258.37 1286.98,-241.65"/>
<polygon fill="black" stroke="black" stroke-width="0.7" points="1290.48,-242.01 1289.1,-231.51 1283.63,-240.58 1290.48,-242.01"/>
<text text-anchor="middle" x="1286" y="-277.5" font-family="Helvetica,sans-Serif" font-size="10.00">use</text>
</g>
<!-- mtt&#45;portal&#45;deployer&#45;&gt;mtt&#45;portal -->
<g id="edge28" class="edge">
<title>mtt&#45;portal&#45;deployer&#45;&gt;mtt&#45;portal</title>
<path fill="none" stroke="black" stroke-width="0.7" d="M1156.22,-340.21C1146.61,-328.56 1134.56,-316.63 1121,-309 1082.41,-287.28 1051.34,-325.02 1023,-291 1010.82,-276.37 1015.85,-257.57 1025.9,-240.6"/>
<polygon fill="black" stroke="black" stroke-width="0.7" points="1029.02,-242.21 1031.54,-231.92 1023.15,-238.39 1029.02,-242.21"/>
<text text-anchor="middle" x="1065" y="-277.5" font-family="Helvetica,sans-Serif" font-size="10.00">publish apps into</text>
</g>
<!-- mtt&#45;portal&#45;deployer&#45;&gt;mtt&#45;html5&#45;repo&#45;host -->
<g id="edge29" class="edge">
<title>mtt&#45;portal&#45;deployer&#45;&gt;mtt&#45;html5&#45;repo&#45;host</title>
<path fill="none" stroke="black" stroke-width="0.7" d="M1170.73,-339.84C1154.24,-276.72 1121.44,-151.41 1121,-151 1068.21,-101.28 1032.96,-128 961,-119 809.76,-100.09 763.98,-137.46 616.85,-102.35"/>
<polygon fill="black" stroke="black" stroke-width="0.7" points="617.56,-98.92 607.01,-99.93 615.89,-105.72 617.56,-98.92"/>
<text text-anchor="middle" x="1192.5" y="-198.5" font-family="Helvetica,sans-Serif" font-size="10.00">use apps from</text>
<text text-anchor="middle" x="1192.5" y="-187.5" font-family="Helvetica,sans-Serif" font-size="10.00">HTML5 repository</text>
</g>
</g>
</svg>
