<?xml version="1.0" encoding="UTF-8" standalone="no"?>
<!DOCTYPE svg PUBLIC "-//W3C//DTD SVG 1.1//EN"
 "http://www.w3.org/Graphics/SVG/1.1/DTD/svg11.dtd">
<!-- Generated by graphviz version 2.43.0 (0)
 -->
<!-- Title: MTA Pages: 1 -->
<svg width="1314pt" height="478pt"
 viewBox="0.00 0.00 1313.50 477.85" xmlns="http://www.w3.org/2000/svg" xmlns:xlink="http://www.w3.org/1999/xlink">
<g id="graph0" class="graph" transform="scale(1 1) rotate(0) translate(4 473.85)">
<title>MTA</title>
<polygon fill="#e6cfd4" stroke="#000000" points="-4,4 -4,-473.85 1309.5,-473.85 1309.5,4 -4,4"/>
<g id="clust1" class="cluster">
<title>cluster_MTA_MAIN</title>
<polygon fill="white" stroke="black" points="8,-8 8,-461.85 1144,-461.85 1144,-8 8,-8"/>
<text text-anchor="middle" x="174" y="-446.65" font-family="Helvetica,sans-Serif" font-size="14.00">MTA ID: HANA&#45;OPENSAP&#45;CLOUD&#45;2020 [1.0.0]</text>
</g>
<g id="clust2" class="cluster">
<title>cluster_CAP_SERVICE</title>
<polygon fill="#e6dbcf" stroke="black" stroke-dasharray="1,5" points="560,-127 560,-430.85 1136,-430.85 1136,-127 560,-127"/>
<text text-anchor="middle" x="607.5" y="-417.25" font-family="Helvetica,sans-Serif" font-size="12.00">CAP SERVICE</text>
</g>
<!-- hana&#45;opensap&#45;cloud&#45;2020&#45;srv -->
<g id="node1" class="node">
<title>hana&#45;opensap&#45;cloud&#45;2020&#45;srv</title>
<path fill="#bfb9ac" stroke="#737c80" d="M1090.36,-359.19C1090.36,-359.19 978.35,-397.75 978.35,-397.75 972.67,-399.7 961.33,-399.7 955.65,-397.75 955.65,-397.75 843.64,-359.19 843.64,-359.19 837.97,-357.24 832.31,-349.29 832.32,-343.29 832.32,-343.29 832.4,-292.26 832.4,-292.26 832.41,-286.26 838.42,-280.26 844.42,-280.26 844.42,-280.26 1089.58,-280.26 1089.58,-280.26 1095.58,-280.26 1101.59,-286.26 1101.6,-292.26 1101.6,-292.26 1101.68,-343.29 1101.68,-343.29 1101.69,-349.29 1096.03,-357.24 1090.36,-359.19"/>
<text text-anchor="middle" x="967" y="-349.05" font-family="Helvetica,sans-Serif" font-size="10.00">CAP</text>
<text text-anchor="middle" x="967" y="-326.05" font-family="Helvetica,sans-Serif" font-size="10.00">hana&#45;opensap&#45;cloud&#45;2020&#45;srv</text>
<text text-anchor="middle" x="967" y="-303.05" font-family="Helvetica,sans-Serif" font-size="10.00">Memory: 512M</text>
</g>
<!-- srv_api -->
<g id="node2" class="node">
<title>srv_api</title>
<polygon fill="#ffffcc" stroke="#737c80" points="828,-208.12 762,-208.12 762,-136.12 834,-136.12 834,-202.12 828,-208.12"/>
<polyline fill="none" stroke="#737c80" points="828,-208.12 828,-202.12 "/>
<polyline fill="none" stroke="#737c80" points="834,-202.12 828,-202.12 "/>
<text text-anchor="middle" x="798" y="-169.62" font-family="Helvetica,sans-Serif" font-size="10.00">srv_api</text>
</g>
<!-- hana&#45;opensap&#45;cloud&#45;2020&#45;srv&#45;&gt;srv_api -->
<g id="edge1" class="edge">
<title>hana&#45;opensap&#45;cloud&#45;2020&#45;srv&#45;&gt;srv_api</title>
<path fill="none" stroke="black" stroke-width="0.7" d="M846.21,-280C834.44,-271.06 823.67,-260.85 815,-249.25 808.29,-240.28 804.15,-229.17 801.6,-218.22"/>
<polygon fill="black" stroke="black" stroke-width="0.7" points="805.02,-217.45 799.69,-208.29 798.15,-218.77 805.02,-217.45"/>
<text text-anchor="middle" x="878" y="-235.75" font-family="Helvetica,sans-Serif" font-size="10.00">define MTA Properties Set</text>
</g>
<!-- hana&#45;opensap&#45;cloud&#45;2020&#45;db -->
<g id="node3" class="node">
<title>hana&#45;opensap&#45;cloud&#45;2020&#45;db</title>
<path fill="#e6bb73" stroke="#bf8a30" d="M1003.5,-202.6C1003.5,-206.34 969.66,-209.38 928,-209.38 886.34,-209.38 852.5,-206.34 852.5,-202.6 852.5,-202.6 852.5,-141.65 852.5,-141.65 852.5,-137.91 886.34,-134.87 928,-134.87 969.66,-134.87 1003.5,-137.91 1003.5,-141.65 1003.5,-141.65 1003.5,-202.6 1003.5,-202.6"/>
<path fill="none" stroke="#bf8a30" d="M1003.5,-202.6C1003.5,-198.87 969.66,-195.83 928,-195.83 886.34,-195.83 852.5,-198.87 852.5,-202.6"/>
<text text-anchor="middle" x="928" y="-175.12" font-family="Helvetica,sans-Serif" font-size="10.00">SERVICE HANA CLOUD</text>
<text text-anchor="middle" x="928" y="-152.12" font-family="Helvetica,sans-Serif" font-size="10.00">hana&#45;opensap&#45;cloud&#45;2020&#45;db</text>
</g>
<!-- hana&#45;opensap&#45;cloud&#45;2020&#45;srv&#45;&gt;hana&#45;opensap&#45;cloud&#45;2020&#45;db -->
<g id="edge2" class="edge">
<title>hana&#45;opensap&#45;cloud&#45;2020&#45;srv&#45;&gt;hana&#45;opensap&#45;cloud&#45;2020&#45;db</title>
<path fill="none" stroke="#bf8a30" stroke-width="0.7" d="M957.02,-280.05C953.56,-263.08 949.43,-244.3 945,-227.25 944.32,-224.62 943.58,-221.92 942.81,-219.2"/>
<polygon fill="#bf8a30" stroke="#bf8a30" stroke-width="0.7" points="946.1,-217.99 939.93,-209.37 939.39,-219.95 946.1,-217.99"/>
<text text-anchor="middle" x="974" y="-235.75" font-family="Helvetica,sans-Serif" font-size="10.00" fill="#bf8a30">read/write</text>
</g>
<!-- openSAPHANA&#45;uaa -->
<g id="node4" class="node">
<title>openSAPHANA&#45;uaa</title>
<path fill="#488791" stroke="#40806e" d="M1033.5,-136.12C1033.5,-136.12 1116.5,-136.12 1116.5,-136.12 1122.5,-136.12 1128.5,-142.12 1128.5,-148.12 1128.5,-148.12 1128.5,-196.12 1128.5,-196.12 1128.5,-202.12 1122.5,-208.12 1116.5,-208.12 1116.5,-208.12 1033.5,-208.12 1033.5,-208.12 1027.5,-208.12 1021.5,-202.12 1021.5,-196.12 1021.5,-196.12 1021.5,-148.12 1021.5,-148.12 1021.5,-142.12 1027.5,-136.12 1033.5,-136.12"/>
<text text-anchor="middle" x="1075" y="-175.12" font-family="Helvetica,sans-Serif" font-size="10.00">🔑 SERVICE XSUAA</text>
<text text-anchor="middle" x="1075" y="-152.12" font-family="Helvetica,sans-Serif" font-size="10.00">openSAPHANA&#45;uaa</text>
</g>
<!-- hana&#45;opensap&#45;cloud&#45;2020&#45;srv&#45;&gt;openSAPHANA&#45;uaa -->
<g id="edge3" class="edge">
<title>hana&#45;opensap&#45;cloud&#45;2020&#45;srv&#45;&gt;openSAPHANA&#45;uaa</title>
<path fill="none" stroke="#40806e" stroke-width="0.7" d="M1002.96,-280.13C1016.86,-259.49 1032.56,-236.17 1045.74,-216.58"/>
<polygon fill="#40806e" stroke="#40806e" stroke-width="0.7" points="1048.74,-218.4 1051.42,-208.15 1042.93,-214.49 1048.74,-218.4"/>
<text text-anchor="middle" x="1080" y="-235.75" font-family="Helvetica,sans-Serif" font-size="10.00" fill="#40806e">use xsuaa service</text>
</g>
<!-- srv_api:url -->
<g id="node15" class="node">
<title>srv_api:url</title>
<polygon fill="#ffffe6" stroke="#737c80" points="842.5,-88 737.5,-88 737.5,-16 848.5,-16 848.5,-82 842.5,-88"/>
<polyline fill="none" stroke="#737c80" points="842.5,-88 842.5,-82 "/>
<polyline fill="none" stroke="#737c80" points="848.5,-82 842.5,-82 "/>
<text text-anchor="middle" x="793" y="-55" font-family="Helvetica,sans-Serif" font-size="10.00">Name: url</text>
<text text-anchor="middle" x="793" y="-32" font-family="Helvetica,sans-Serif" font-size="10.00">Value: ${default&#45;url}</text>
</g>
<!-- srv_api&#45;&gt;srv_api:url -->
<g id="edge12" class="edge">
<title>srv_api&#45;&gt;srv_api:url</title>
<path fill="none" stroke="grey" stroke-width="0.7" d="M796.51,-136C796.01,-124.21 795.45,-110.88 794.92,-98.41"/>
<polygon fill="grey" stroke="grey" stroke-width="0.7" points="798.41,-98.03 794.49,-88.19 791.42,-98.33 798.41,-98.03"/>
<text text-anchor="middle" x="844.5" y="-109" font-family="Helvetica,sans-Serif" font-size="10.00" fill="grey">define MTA property</text>
</g>
<!-- hana&#45;opensap&#45;cloud&#45;2020&#45;db:hdi&#45;service&#45;name -->
<g id="node8" class="node">
<title>hana&#45;opensap&#45;cloud&#45;2020&#45;db:hdi&#45;service&#45;name</title>
<polygon fill="#ffffe6" stroke="#737c80" points="989.5,-88 866.5,-88 866.5,-16 995.5,-16 995.5,-82 989.5,-88"/>
<polyline fill="none" stroke="#737c80" points="989.5,-88 989.5,-82 "/>
<polyline fill="none" stroke="#737c80" points="995.5,-82 989.5,-82 "/>
<text text-anchor="middle" x="931" y="-55" font-family="Helvetica,sans-Serif" font-size="10.00">Name: hdi&#45;service&#45;name</text>
<text text-anchor="middle" x="931" y="-32" font-family="Helvetica,sans-Serif" font-size="10.00">Value: ${service&#45;name}</text>
</g>
<!-- hana&#45;opensap&#45;cloud&#45;2020&#45;db&#45;&gt;hana&#45;opensap&#45;cloud&#45;2020&#45;db:hdi&#45;service&#45;name -->
<g id="edge6" class="edge">
<title>hana&#45;opensap&#45;cloud&#45;2020&#45;db&#45;&gt;hana&#45;opensap&#45;cloud&#45;2020&#45;db:hdi&#45;service&#45;name</title>
<path fill="none" stroke="grey" stroke-width="0.7" d="M928.92,-134.72C929.21,-123.29 929.54,-110.53 929.84,-98.55"/>
<polygon fill="grey" stroke="grey" stroke-width="0.7" points="933.35,-98.36 930.1,-88.27 926.35,-98.18 933.35,-98.36"/>
<text text-anchor="middle" x="978.5" y="-109" font-family="Helvetica,sans-Serif" font-size="10.00" fill="grey">define MTA property</text>
</g>
<!-- db -->
<g id="node5" class="node">
<title>db</title>
<polygon fill="#bfb9ac" stroke="#737c80" points="645.5,-370.55 572.5,-370.55 568.5,-366.55 568.5,-298.55 641.5,-298.55 645.5,-302.55 645.5,-370.55"/>
<polyline fill="none" stroke="#737c80" points="641.5,-366.55 568.5,-366.55 "/>
<polyline fill="none" stroke="#737c80" points="641.5,-366.55 641.5,-298.55 "/>
<polyline fill="none" stroke="#737c80" points="641.5,-366.55 645.5,-370.55 "/>
<text text-anchor="middle" x="607" y="-337.55" font-family="Helvetica,sans-Serif" font-size="10.00">DB DEPLOYER</text>
<text text-anchor="middle" x="607" y="-314.55" font-family="Helvetica,sans-Serif" font-size="10.00">db</text>
</g>
<!-- db&#45;&gt;hana&#45;opensap&#45;cloud&#45;2020&#45;db -->
<g id="edge4" class="edge">
<title>db&#45;&gt;hana&#45;opensap&#45;cloud&#45;2020&#45;db</title>
<path fill="none" stroke="#bf8a30" stroke-width="0.7" d="M627.47,-298.38C635.08,-287.41 644.46,-275.92 655,-267.25 669.74,-255.12 677.81,-259.36 694,-249.25 707.13,-241.05 706.84,-233.49 721,-227.25 768.41,-206.36 788.06,-222.14 842.53,-208.99"/>
<polygon fill="#bf8a30" stroke="#bf8a30" stroke-width="0.7" points="843.57,-212.34 852.35,-206.41 841.78,-205.57 843.57,-212.34"/>
<text text-anchor="middle" x="760.5" y="-235.75" font-family="Helvetica,sans-Serif" font-size="10.00" fill="#bf8a30">deploy tables to</text>
</g>
<!-- SERVICE_REPLACEMENTS -->
<g id="node14" class="node">
<title>SERVICE_REPLACEMENTS</title>
<ellipse fill="#bfb9ac" stroke="#737c80" cx="481" cy="-172.12" rx="69.42" ry="36"/>
<text text-anchor="middle" x="481" y="-169.62" font-family="Helvetica,sans-Serif" font-size="10.00">SERVICE_REPLACEMENTS</text>
</g>
<!-- db&#45;&gt;SERVICE_REPLACEMENTS -->
<g id="edge10" class="edge">
<title>db&#45;&gt;SERVICE_REPLACEMENTS</title>
<path fill="none" stroke="black" stroke-width="0.7" d="M590.63,-298.54C583.98,-287.32 575.39,-275.64 565,-267.25 546.95,-252.68 533.04,-265 516,-249.25 506.74,-240.69 499.73,-229.19 494.52,-217.73"/>
<polygon fill="black" stroke="black" stroke-width="0.7" points="497.62,-216.07 490.55,-208.18 491.16,-218.76 497.62,-216.07"/>
<text text-anchor="middle" x="561" y="-241.25" font-family="Helvetica,sans-Serif" font-size="10.00">define enviroment</text>
<text text-anchor="middle" x="561" y="-230.25" font-family="Helvetica,sans-Serif" font-size="10.00">variable</text>
</g>
<!-- db&#45;&gt;SERVICE_REPLACEMENTS -->
<g id="edge11" class="edge">
<title>db&#45;&gt;SERVICE_REPLACEMENTS</title>
<path fill="none" stroke="black" stroke-width="0.7" d="M592.48,-298.44C585.84,-286.64 576.78,-274.62 565,-267.25 534.67,-248.27 428.84,-275.93 405,-249.25 390.95,-233.53 404.07,-216.88 423.12,-203.16"/>
<polygon fill="black" stroke="black" stroke-width="0.7" points="425.24,-205.96 431.59,-197.48 421.34,-200.15 425.24,-205.96"/>
<text text-anchor="middle" x="450" y="-241.25" font-family="Helvetica,sans-Serif" font-size="10.00">define enviroment</text>
<text text-anchor="middle" x="450" y="-230.25" font-family="Helvetica,sans-Serif" font-size="10.00">variable</text>
</g>
<!-- user_db -->
<g id="node6" class="node">
<title>user_db</title>
<polygon fill="#bfb9ac" stroke="#737c80" points="740.5,-370.55 667.5,-370.55 663.5,-366.55 663.5,-298.55 736.5,-298.55 740.5,-302.55 740.5,-370.55"/>
<polyline fill="none" stroke="#737c80" points="736.5,-366.55 663.5,-366.55 "/>
<polyline fill="none" stroke="#737c80" points="736.5,-366.55 736.5,-298.55 "/>
<polyline fill="none" stroke="#737c80" points="736.5,-366.55 740.5,-370.55 "/>
<text text-anchor="middle" x="702" y="-337.55" font-family="Helvetica,sans-Serif" font-size="10.00">DB DEPLOYER</text>
<text text-anchor="middle" x="702" y="-314.55" font-family="Helvetica,sans-Serif" font-size="10.00">user_db</text>
</g>
<!-- hana&#45;opensap&#45;cloud&#45;2020&#45;user&#45;db -->
<g id="node7" class="node">
<title>hana&#45;opensap&#45;cloud&#45;2020&#45;user&#45;db</title>
<path fill="#e6bb73" stroke="#bf8a30" d="M744,-202.6C744,-206.34 704.56,-209.38 656,-209.38 607.44,-209.38 568,-206.34 568,-202.6 568,-202.6 568,-141.65 568,-141.65 568,-137.91 607.44,-134.87 656,-134.87 704.56,-134.87 744,-137.91 744,-141.65 744,-141.65 744,-202.6 744,-202.6"/>
<path fill="none" stroke="#bf8a30" d="M744,-202.6C744,-198.87 704.56,-195.83 656,-195.83 607.44,-195.83 568,-198.87 568,-202.6"/>
<text text-anchor="middle" x="656" y="-175.12" font-family="Helvetica,sans-Serif" font-size="10.00">SERVICE HANA CLOUD</text>
<text text-anchor="middle" x="656" y="-152.12" font-family="Helvetica,sans-Serif" font-size="10.00">hana&#45;opensap&#45;cloud&#45;2020&#45;user&#45;db</text>
</g>
<!-- user_db&#45;&gt;hana&#45;opensap&#45;cloud&#45;2020&#45;user&#45;db -->
<g id="edge5" class="edge">
<title>user_db&#45;&gt;hana&#45;opensap&#45;cloud&#45;2020&#45;user&#45;db</title>
<path fill="none" stroke="#bf8a30" stroke-width="0.7" d="M682.13,-298.31C674.68,-287.33 665.46,-275.86 655,-267.25 639.95,-254.86 625.59,-265.62 615,-249.25 608.7,-239.5 609.94,-228.69 614.76,-218.36"/>
<polygon fill="#bf8a30" stroke="#bf8a30" stroke-width="0.7" points="617.93,-219.86 619.8,-209.43 611.83,-216.42 617.93,-219.86"/>
<text text-anchor="middle" x="654.5" y="-235.75" font-family="Helvetica,sans-Serif" font-size="10.00" fill="#bf8a30">deploy tables to</text>
</g>
<!-- hana&#45;opensap&#45;cloud&#45;2020&#45;user&#45;db:user&#45;container&#45;name -->
<g id="node9" class="node">
<title>hana&#45;opensap&#45;cloud&#45;2020&#45;user&#45;db:user&#45;container&#45;name</title>
<polygon fill="#ffffe6" stroke="#737c80" points="656,-88 516,-88 516,-16 662,-16 662,-82 656,-88"/>
<polyline fill="none" stroke="#737c80" points="656,-88 656,-82 "/>
<polyline fill="none" stroke="#737c80" points="662,-82 656,-82 "/>
<text text-anchor="middle" x="589" y="-55" font-family="Helvetica,sans-Serif" font-size="10.00">Name: user&#45;container&#45;name</text>
<text text-anchor="middle" x="589" y="-32" font-family="Helvetica,sans-Serif" font-size="10.00">Value: ${service&#45;name}</text>
</g>
<!-- hana&#45;opensap&#45;cloud&#45;2020&#45;user&#45;db&#45;&gt;hana&#45;opensap&#45;cloud&#45;2020&#45;user&#45;db:user&#45;container&#45;name -->
<g id="edge7" class="edge">
<title>hana&#45;opensap&#45;cloud&#45;2020&#45;user&#45;db&#45;&gt;hana&#45;opensap&#45;cloud&#45;2020&#45;user&#45;db:user&#45;container&#45;name</title>
<path fill="none" stroke="grey" stroke-width="0.7" d="M646.47,-134.93C643.19,-125.21 639.05,-114.93 634,-106 632.17,-102.76 630.13,-99.54 627.95,-96.37"/>
<polygon fill="grey" stroke="grey" stroke-width="0.7" points="630.66,-94.14 621.93,-88.14 625.01,-98.27 630.66,-94.14"/>
<text text-anchor="middle" x="688.5" y="-109" font-family="Helvetica,sans-Serif" font-size="10.00" fill="grey">define MTA property</text>
</g>
<!-- cross&#45;container&#45;service&#45;1 -->
<g id="node10" class="node">
<title>cross&#45;container&#45;service&#45;1</title>
<path fill="#488791" stroke="#407780" d="M252.5,-136.12C252.5,-136.12 381.5,-136.12 381.5,-136.12 387.5,-136.12 393.5,-142.12 393.5,-148.12 393.5,-148.12 393.5,-196.12 393.5,-196.12 393.5,-202.12 387.5,-208.12 381.5,-208.12 381.5,-208.12 252.5,-208.12 252.5,-208.12 246.5,-208.12 240.5,-202.12 240.5,-196.12 240.5,-196.12 240.5,-148.12 240.5,-148.12 240.5,-142.12 246.5,-136.12 252.5,-136.12"/>
<text text-anchor="middle" x="317" y="-175.12" font-family="Helvetica,sans-Serif" font-size="10.00">👤 USER PROVIDED SERVICE</text>
<text text-anchor="middle" x="317" y="-152.12" font-family="Helvetica,sans-Serif" font-size="10.00">cross&#45;container&#45;service&#45;1</text>
</g>
<!-- cross&#45;container&#45;service&#45;1:the&#45;service&#45;name -->
<g id="node11" class="node">
<title>cross&#45;container&#45;service&#45;1:the&#45;service&#45;name</title>
<polygon fill="#ffffe6" stroke="#737c80" points="455,-88 331,-88 331,-16 461,-16 461,-82 455,-88"/>
<polyline fill="none" stroke="#737c80" points="455,-88 455,-82 "/>
<polyline fill="none" stroke="#737c80" points="461,-82 455,-82 "/>
<text text-anchor="middle" x="396" y="-55" font-family="Helvetica,sans-Serif" font-size="10.00">Name: the&#45;service&#45;name</text>
<text text-anchor="middle" x="396" y="-32" font-family="Helvetica,sans-Serif" font-size="10.00">Value: ${service&#45;name}</text>
</g>
<!-- cross&#45;container&#45;service&#45;1&#45;&gt;cross&#45;container&#45;service&#45;1:the&#45;service&#45;name -->
<g id="edge8" class="edge">
<title>cross&#45;container&#45;service&#45;1&#45;&gt;cross&#45;container&#45;service&#45;1:the&#45;service&#45;name</title>
<path fill="none" stroke="grey" stroke-width="0.7" d="M310.96,-135.81C310.79,-125.69 312.21,-114.98 317,-106 319.01,-102.23 321.42,-98.68 324.13,-95.34"/>
<polygon fill="grey" stroke="grey" stroke-width="0.7" points="326.75,-97.67 330.95,-87.95 321.6,-92.93 326.75,-97.67"/>
<text text-anchor="middle" x="366.5" y="-109" font-family="Helvetica,sans-Serif" font-size="10.00" fill="grey">define MTA property</text>
</g>
<!-- sap.hana.democontent.epm.services.images -->
<g id="node12" class="node">
<title>sap.hana.democontent.epm.services.images</title>
<path fill="#488791" stroke="#407780" d="M28,-298.55C28,-298.55 232,-298.55 232,-298.55 238,-298.55 244,-304.55 244,-310.55 244,-310.55 244,-358.55 244,-358.55 244,-364.55 238,-370.55 232,-370.55 232,-370.55 28,-370.55 28,-370.55 22,-370.55 16,-364.55 16,-358.55 16,-358.55 16,-310.55 16,-310.55 16,-304.55 22,-298.55 28,-298.55"/>
<text text-anchor="middle" x="130" y="-337.55" font-family="Helvetica,sans-Serif" font-size="10.00">👤 USER PROVIDED SERVICE</text>
<text text-anchor="middle" x="130" y="-314.55" font-family="Helvetica,sans-Serif" font-size="10.00">sap.hana.democontent.epm.services.images</text>
</g>
<!-- sap.hana.democontent.epm.services.images:xshttpdest&#45;images&#45;service&#45;name -->
<g id="node13" class="node">
<title>sap.hana.democontent.epm.services.images:xshttpdest&#45;images&#45;service&#45;name</title>
<polygon fill="#ffffe6" stroke="#737c80" points="216,-208.12 16,-208.12 16,-136.12 222,-136.12 222,-202.12 216,-208.12"/>
<polyline fill="none" stroke="#737c80" points="216,-208.12 216,-202.12 "/>
<polyline fill="none" stroke="#737c80" points="222,-202.12 216,-202.12 "/>
<text text-anchor="middle" x="119" y="-175.12" font-family="Helvetica,sans-Serif" font-size="10.00">Name: xshttpdest&#45;images&#45;service&#45;name</text>
<text text-anchor="middle" x="119" y="-152.12" font-family="Helvetica,sans-Serif" font-size="10.00">Value: ${service&#45;name}</text>
</g>
<!-- sap.hana.democontent.epm.services.images&#45;&gt;sap.hana.democontent.epm.services.images:xshttpdest&#45;images&#45;service&#45;name -->
<g id="edge9" class="edge">
<title>sap.hana.democontent.epm.services.images&#45;&gt;sap.hana.democontent.epm.services.images:xshttpdest&#45;images&#45;service&#45;name</title>
<path fill="none" stroke="grey" stroke-width="0.7" d="M127.59,-298.34C125.97,-274.84 123.84,-243.7 122.1,-218.36"/>
<polygon fill="grey" stroke="grey" stroke-width="0.7" points="125.58,-217.99 121.41,-208.25 118.6,-218.46 125.58,-217.99"/>
<text text-anchor="middle" x="173.5" y="-235.75" font-family="Helvetica,sans-Serif" font-size="10.00" fill="grey">define MTA property</text>
</g>
<!-- SERVICE_REPLACEMENTS&#45;&gt;hana&#45;opensap&#45;cloud&#45;2020&#45;user&#45;db:user&#45;container&#45;name -->
<g id="edge14" class="edge">
<title>SERVICE_REPLACEMENTS&#45;&gt;hana&#45;opensap&#45;cloud&#45;2020&#45;user&#45;db:user&#45;container&#45;name</title>
<path fill="none" stroke="grey" stroke-width="0.7" d="M510.23,-139.16C522.35,-125.9 536.6,-110.31 549.62,-96.07"/>
<polygon fill="grey" stroke="grey" stroke-width="0.7" points="552.54,-98.06 556.71,-88.32 547.38,-93.34 552.54,-98.06"/>
<text text-anchor="middle" x="581" y="-109" font-family="Helvetica,sans-Serif" font-size="10.00" fill="grey">use MTA property</text>
</g>
<!-- SERVICE_REPLACEMENTS&#45;&gt;cross&#45;container&#45;service&#45;1:the&#45;service&#45;name -->
<g id="edge13" class="edge">
<title>SERVICE_REPLACEMENTS&#45;&gt;cross&#45;container&#45;service&#45;1:the&#45;service&#45;name</title>
<path fill="none" stroke="grey" stroke-width="0.7" d="M455.09,-138.48C449.69,-131.46 444.09,-124.04 439,-117 434.31,-110.52 429.47,-103.57 424.8,-96.73"/>
<polygon fill="grey" stroke="grey" stroke-width="0.7" points="427.51,-94.49 419.01,-88.17 421.72,-98.42 427.51,-94.49"/>
<text text-anchor="middle" x="482" y="-109" font-family="Helvetica,sans-Serif" font-size="10.00" fill="grey">use MTA property</text>
</g>
<!-- CROSS_SCHEMA_SFLIGHT -->
<g id="node16" class="node">
<title>CROSS_SCHEMA_SFLIGHT</title>
<path fill="#488791" stroke="#407780" d="M1164.5,-298.55C1164.5,-298.55 1293.5,-298.55 1293.5,-298.55 1299.5,-298.55 1305.5,-304.55 1305.5,-310.55 1305.5,-310.55 1305.5,-358.55 1305.5,-358.55 1305.5,-364.55 1299.5,-370.55 1293.5,-370.55 1293.5,-370.55 1164.5,-370.55 1164.5,-370.55 1158.5,-370.55 1152.5,-364.55 1152.5,-358.55 1152.5,-358.55 1152.5,-310.55 1152.5,-310.55 1152.5,-304.55 1158.5,-298.55 1164.5,-298.55"/>
<text text-anchor="middle" x="1229" y="-337.55" font-family="Helvetica,sans-Serif" font-size="10.00">👤 USER PROVIDED SERVICE</text>
<text text-anchor="middle" x="1229" y="-314.55" font-family="Helvetica,sans-Serif" font-size="10.00">CROSS_SCHEMA_SFLIGHT</text>
</g>
</g>
</svg>
