<?xml version="1.0" encoding="UTF-8" standalone="no"?>
<!DOCTYPE svg PUBLIC "-//W3C//DTD SVG 1.1//EN"
 "http://www.w3.org/Graphics/SVG/1.1/DTD/svg11.dtd">
<!-- Generated by graphviz version 2.43.0 (0)
 -->
<!-- Title: MTA Pages: 1 -->
<svg width="596pt" height="575pt"
 viewBox="0.00 0.00 596.00 575.00" xmlns="http://www.w3.org/2000/svg" xmlns:xlink="http://www.w3.org/1999/xlink">
<g id="graph0" class="graph" transform="scale(1 1) rotate(0) translate(4 571)">
<title>MTA</title>
<polygon fill="#e6cfd4" stroke="#000000" points="-4,4 -4,-571 592,-571 592,4 -4,4"/>
<g id="clust1" class="cluster">
<title>cluster_MTA_MAIN</title>
<polygon fill="white" stroke="black" points="8,-8 8,-559 540,-559 540,-8 8,-8"/>
<text text-anchor="middle" x="128" y="-543.8" font-family="Helvetica,sans-Serif" font-size="14.00">MTA ID: MANAGED&#45;FIORI [1.0.0]</text>
</g>
<g id="clust2" class="cluster">
<title>cluster_DESTINATIONS</title>
<polygon fill="#e6dbcf" stroke="black" stroke-dasharray="1,5" points="132,-16 132,-528 532,-528 532,-16 132,-16"/>
<text text-anchor="middle" x="185" y="-514.4" font-family="Helvetica,sans-Serif" font-size="12.00">DESTINATIONS</text>
</g>
<g id="clust3" class="cluster">
<title>cluster_HTML5_APPS</title>
<polygon fill="#e6dbcf" stroke="black" stroke-dasharray="1,5" points="16,-18.5 16,-260 124,-260 124,-18.5 16,-18.5"/>
<text text-anchor="middle" x="62" y="-246.4" font-family="Helvetica,sans-Serif" font-size="12.00">HTML5 APPS</text>
</g>
<!-- managed&#45;fiori&#45;destination -->
<g id="node1" class="node">
<title>managed&#45;fiori&#45;destination</title>
<polygon fill="#488791" stroke="transparent" points="341.5,-380 206.5,-380 206.5,-308 341.5,-308 341.5,-380"/>
<polyline fill="none" stroke="#407780" points="206.5,-308 341.5,-308 "/>
<text text-anchor="middle" x="274" y="-347" font-family="Helvetica,sans-Serif" font-size="10.00">SERVICE DESTINATION</text>
<text text-anchor="middle" x="274" y="-324" font-family="Helvetica,sans-Serif" font-size="10.00">managed&#45;fiori&#45;destination</text>
</g>
<!-- managed&#45;fiori&#45;destination&#45;html5 -->
<g id="node2" class="node">
<title>managed&#45;fiori&#45;destination&#45;html5</title>
<polygon fill="#bfb9ac" stroke="transparent" points="328,-231 160,-231 160,-159 328,-159 328,-231"/>
<polyline fill="none" stroke="#737c80" points="160,-159 328,-159 "/>
<text text-anchor="middle" x="244" y="-198" font-family="Helvetica,sans-Serif" font-size="10.00">DESTINATION</text>
<text text-anchor="middle" x="244" y="-175" font-family="Helvetica,sans-Serif" font-size="10.00">managed&#45;fiori&#45;destination&#45;html5</text>
</g>
<!-- managed&#45;fiori&#45;destination&#45;&gt;managed&#45;fiori&#45;destination&#45;html5 -->
<g id="edge1" class="edge">
<title>managed&#45;fiori&#45;destination&#45;&gt;managed&#45;fiori&#45;destination&#45;html5</title>
<path fill="none" stroke="black" stroke-width="0.7" d="M226.59,-307.81C221.92,-302.37 217.86,-296.41 215,-290 208.03,-274.37 210.96,-256.57 217.11,-240.7"/>
<polygon fill="black" stroke="black" stroke-width="0.7" points="220.5,-241.67 221.29,-231.11 214.09,-238.87 220.5,-241.67"/>
<text text-anchor="middle" x="259" y="-282" font-family="Helvetica,sans-Serif" font-size="10.00">define destination</text>
<text text-anchor="middle" x="259" y="-271" font-family="Helvetica,sans-Serif" font-size="10.00">at instance level</text>
</g>
<!-- managed&#45;fiori&#45;destination&#45;uaa -->
<g id="node3" class="node">
<title>managed&#45;fiori&#45;destination&#45;uaa</title>
<polygon fill="#bfb9ac" stroke="transparent" points="503.5,-231 346.5,-231 346.5,-159 503.5,-159 503.5,-231"/>
<polyline fill="none" stroke="#737c80" points="346.5,-159 503.5,-159 "/>
<text text-anchor="middle" x="425" y="-198" font-family="Helvetica,sans-Serif" font-size="10.00">DESTINATION</text>
<text text-anchor="middle" x="425" y="-175" font-family="Helvetica,sans-Serif" font-size="10.00">managed&#45;fiori&#45;destination&#45;uaa</text>
</g>
<!-- managed&#45;fiori&#45;destination&#45;&gt;managed&#45;fiori&#45;destination&#45;uaa -->
<g id="edge2" class="edge">
<title>managed&#45;fiori&#45;destination&#45;&gt;managed&#45;fiori&#45;destination&#45;uaa</title>
<path fill="none" stroke="black" stroke-width="0.7" d="M294.79,-307.92C303.53,-294.65 314.37,-279.9 326,-268 326.07,-267.93 346.32,-253.2 368.49,-237.08"/>
<polygon fill="black" stroke="black" stroke-width="0.7" points="370.68,-239.81 376.71,-231.1 366.57,-234.15 370.68,-239.81"/>
<text text-anchor="middle" x="370" y="-282" font-family="Helvetica,sans-Serif" font-size="10.00">define destination</text>
<text text-anchor="middle" x="370" y="-271" font-family="Helvetica,sans-Serif" font-size="10.00">at instance level</text>
</g>
<!-- managed&#45;fiori&#45;html5&#45;repo&#45;host -->
<g id="node5" class="node">
<title>managed&#45;fiori&#45;html5&#45;repo&#45;host</title>
<polygon fill="#488791" stroke="#407780" points="298.5,-101 295.5,-105 274.5,-105 271.5,-101 139.5,-101 139.5,-24 298.5,-24 298.5,-101"/>
<text text-anchor="middle" x="219" y="-77" font-family="Helvetica,sans-Serif" font-size="10.00">SERVICE HTML5 REPOSITORY</text>
<text text-anchor="middle" x="219" y="-54" font-family="Helvetica,sans-Serif" font-size="10.00">managed&#45;fiori&#45;html5&#45;repo&#45;host</text>
<text text-anchor="middle" x="219" y="-31" font-family="Helvetica,sans-Serif" font-size="10.00">Size: 2 MB</text>
</g>
<!-- managed&#45;fiori&#45;destination&#45;html5&#45;&gt;managed&#45;fiori&#45;html5&#45;repo&#45;host -->
<g id="edge4" class="edge">
<title>managed&#45;fiori&#45;destination&#45;html5&#45;&gt;managed&#45;fiori&#45;html5&#45;repo&#45;host</title>
<path fill="none" stroke="black" stroke-width="0.7" d="M237.23,-158.68C234.44,-144.07 231.15,-126.9 228.14,-111.2"/>
<polygon fill="black" stroke="black" stroke-width="0.7" points="231.53,-110.29 226.21,-101.13 224.65,-111.61 231.53,-110.29"/>
<text text-anchor="middle" x="271" y="-127.5" font-family="Helvetica,sans-Serif" font-size="10.00">point to service</text>
</g>
<!-- managed&#45;fiori&#45;uaa -->
<g id="node6" class="node">
<title>managed&#45;fiori&#45;uaa</title>
<path fill="#488791" stroke="#40806e" d="M414.5,-26.5C414.5,-26.5 497.5,-26.5 497.5,-26.5 503.5,-26.5 509.5,-32.5 509.5,-38.5 509.5,-38.5 509.5,-86.5 509.5,-86.5 509.5,-92.5 503.5,-98.5 497.5,-98.5 497.5,-98.5 414.5,-98.5 414.5,-98.5 408.5,-98.5 402.5,-92.5 402.5,-86.5 402.5,-86.5 402.5,-38.5 402.5,-38.5 402.5,-32.5 408.5,-26.5 414.5,-26.5"/>
<text text-anchor="middle" x="456" y="-65.5" font-family="Helvetica,sans-Serif" font-size="10.00">🔑 SERVICE XSUAA</text>
<text text-anchor="middle" x="456" y="-42.5" font-family="Helvetica,sans-Serif" font-size="10.00">managed&#45;fiori&#45;uaa</text>
</g>
<!-- managed&#45;fiori&#45;destination&#45;uaa&#45;&gt;managed&#45;fiori&#45;uaa -->
<g id="edge5" class="edge">
<title>managed&#45;fiori&#45;destination&#45;uaa&#45;&gt;managed&#45;fiori&#45;uaa</title>
<path fill="none" stroke="black" stroke-width="0.7" d="M432.78,-158.86C435.62,-146.27 438.89,-131.98 442,-119 442.81,-115.61 443.66,-112.11 444.53,-108.59"/>
<polygon fill="black" stroke="black" stroke-width="0.7" points="447.97,-109.25 446.98,-98.7 441.18,-107.56 447.97,-109.25"/>
<text text-anchor="middle" x="480" y="-127.5" font-family="Helvetica,sans-Serif" font-size="10.00">point to service</text>
</g>
<!-- managed&#45;fiori&#45;destination&#45;content -->
<g id="node4" class="node">
<title>managed&#45;fiori&#45;destination&#45;content</title>
<polygon fill="#bfb9ac" stroke="#737c80" points="362,-499 190,-499 186,-495 186,-427 358,-427 362,-431 362,-499"/>
<polyline fill="none" stroke="#737c80" points="358,-495 186,-495 "/>
<polyline fill="none" stroke="#737c80" points="358,-495 358,-427 "/>
<polyline fill="none" stroke="#737c80" points="358,-495 362,-499 "/>
<text text-anchor="middle" x="274" y="-466" font-family="Helvetica,sans-Serif" font-size="10.00">DESTINATIONS DEPLOYER</text>
<text text-anchor="middle" x="274" y="-443" font-family="Helvetica,sans-Serif" font-size="10.00">managed&#45;fiori&#45;destination&#45;content</text>
</g>
<!-- managed&#45;fiori&#45;destination&#45;content&#45;&gt;managed&#45;fiori&#45;destination -->
<g id="edge3" class="edge">
<title>managed&#45;fiori&#45;destination&#45;content&#45;&gt;managed&#45;fiori&#45;destination</title>
<path fill="none" stroke="black" stroke-width="0.7" d="M274,-426.9C274,-415.33 274,-402.3 274,-390.09"/>
<polygon fill="black" stroke="black" stroke-width="0.7" points="277.5,-390.08 274,-380.08 270.5,-390.08 277.5,-390.08"/>
<text text-anchor="middle" x="337.5" y="-401" font-family="Helvetica,sans-Serif" font-size="10.00">create destination service</text>
</g>
<!-- managed&#45;fiori&#45;destination&#45;content&#45;&gt;managed&#45;fiori&#45;html5&#45;repo&#45;host -->
<g id="edge9" class="edge">
<title>managed&#45;fiori&#45;destination&#45;content&#45;&gt;managed&#45;fiori&#45;html5&#45;repo&#45;host</title>
<path fill="none" stroke="black" stroke-width="0.7" stroke-dasharray="5,2" d="M236.01,-426.89C222.73,-413.19 208.52,-396.77 198,-380 167.56,-331.48 161.63,-316.28 151,-260 142.67,-215.89 137.33,-201.76 151,-159 156.65,-141.33 166.89,-124.14 177.74,-109.33"/>
<polygon fill="black" stroke="black" stroke-width="0.7" points="180.54,-111.43 183.81,-101.36 174.97,-107.2 180.54,-111.43"/>
<text text-anchor="middle" x="166" y="-276.5" font-family="Helvetica,sans-Serif" font-size="10.00">use</text>
</g>
<!-- managed&#45;fiori&#45;destination&#45;content&#45;&gt;managed&#45;fiori&#45;uaa -->
<g id="edge8" class="edge">
<title>managed&#45;fiori&#45;destination&#45;content&#45;&gt;managed&#45;fiori&#45;uaa</title>
<path fill="none" stroke="#40806e" stroke-width="0.7" d="M362.24,-434.76C377.4,-427.79 392.33,-419.27 405,-409 463.7,-361.42 445.48,-320.32 500,-268 504.9,-263.3 509.57,-265.85 513,-260 544.73,-205.91 543.59,-176.25 518,-119 516.04,-114.61 513.54,-110.43 510.68,-106.47"/>
<polygon fill="#40806e" stroke="#40806e" stroke-width="0.7" points="513.37,-104.23 504.35,-98.67 507.93,-108.64 513.37,-104.23"/>
<text text-anchor="middle" x="544" y="-276.5" font-family="Helvetica,sans-Serif" font-size="10.00" fill="#40806e">use xsuaa service</text>
</g>
<!-- webapp&#45;deployer -->
<g id="node7" class="node">
<title>webapp&#45;deployer</title>
<polygon fill="#bfb9ac" stroke="#737c80" points="116.5,-231 27.5,-231 23.5,-227 23.5,-159 112.5,-159 116.5,-163 116.5,-231"/>
<polyline fill="none" stroke="#737c80" points="112.5,-227 23.5,-227 "/>
<polyline fill="none" stroke="#737c80" points="112.5,-227 112.5,-159 "/>
<polyline fill="none" stroke="#737c80" points="112.5,-227 116.5,-231 "/>
<text text-anchor="middle" x="70" y="-198" font-family="Helvetica,sans-Serif" font-size="10.00">APPS DEPLOYER</text>
<text text-anchor="middle" x="70" y="-175" font-family="Helvetica,sans-Serif" font-size="10.00">webapp&#45;deployer</text>
</g>
<!-- webapp&#45;deployer&#45;&gt;managed&#45;fiori&#45;html5&#45;repo&#45;host -->
<g id="edge6" class="edge">
<title>webapp&#45;deployer&#45;&gt;managed&#45;fiori&#45;html5&#45;repo&#45;host</title>
<path fill="none" stroke="black" stroke-width="0.7" d="M87.58,-158.84C95.55,-145.26 105.92,-130.3 118,-119 122.55,-114.74 127.5,-110.69 132.67,-106.87"/>
<polygon fill="black" stroke="black" stroke-width="0.7" points="134.78,-109.67 140.95,-101.06 130.76,-103.94 134.78,-109.67"/>
<text text-anchor="middle" x="161.5" y="-133" font-family="Helvetica,sans-Serif" font-size="10.00">deploy apps to</text>
<text text-anchor="middle" x="161.5" y="-122" font-family="Helvetica,sans-Serif" font-size="10.00">HTML5 repository</text>
</g>
<!-- HTML5Module -->
<g id="node8" class="node">
<title>HTML5Module</title>
<path fill="#b0ac89" stroke="#8b875d" d="M90,-98.5C90,-98.5 36,-98.5 36,-98.5 30,-98.5 24,-92.5 24,-86.5 24,-86.5 24,-38.5 24,-38.5 24,-32.5 30,-26.5 36,-26.5 36,-26.5 90,-26.5 90,-26.5 96,-26.5 102,-32.5 102,-38.5 102,-38.5 102,-86.5 102,-86.5 102,-92.5 96,-98.5 90,-98.5"/>
<text text-anchor="middle" x="63" y="-65.5" font-family="Helvetica,sans-Serif" font-size="10.00">APP HTML5</text>
<text text-anchor="middle" x="63" y="-42.5" font-family="Helvetica,sans-Serif" font-size="10.00">HTML5Module</text>
</g>
<!-- webapp&#45;deployer&#45;&gt;HTML5Module -->
<g id="edge7" class="edge">
<title>webapp&#45;deployer&#45;&gt;HTML5Module</title>
<path fill="none" stroke="#8b875d" stroke-width="0.7" d="M49.3,-158.96C46.7,-153.14 44.45,-147.02 43,-141 40.47,-130.45 41.34,-119.13 43.77,-108.49"/>
<polygon fill="#8b875d" stroke="#8b875d" stroke-width="0.7" points="47.23,-109.12 46.53,-98.54 40.49,-107.25 47.23,-109.12"/>
<text text-anchor="middle" x="69" y="-127.5" font-family="Helvetica,sans-Serif" font-size="10.00" fill="#8b875d">deployApp</text>
</g>
</g>
</svg>
