<?xml version="1.0" encoding="UTF-8" standalone="no"?>
<!DOCTYPE svg PUBLIC "-//W3C//DTD SVG 1.1//EN"
 "http://www.w3.org/Graphics/SVG/1.1/DTD/svg11.dtd">
<!-- Generated by graphviz version 2.43.0 (0)
 -->
<!-- Title: MTA Pages: 1 -->
<svg width="770pt" height="571pt"
 viewBox="0.00 0.00 770.00 571.00" xmlns="http://www.w3.org/2000/svg" xmlns:xlink="http://www.w3.org/1999/xlink">
<g id="graph0" class="graph" transform="scale(1 1) rotate(0) translate(4 567)">
<title>MTA</title>
<polygon fill="#e6cfd4" stroke="#000000" points="-4,4 -4,-567 766,-567 766,4 -4,4"/>
<g id="clust1" class="cluster">
<title>cluster_MTA_MAIN</title>
<polygon fill="white" stroke="black" points="8,-8 8,-555 714,-555 714,-8 8,-8"/>
<text text-anchor="middle" x="195" y="-539.8" font-family="Helvetica,sans-Serif" font-size="14.00">MTA ID: DEVELOPER&#45;KEYNOTE&#45;DASHBOARD [1.0.0]</text>
</g>
<g id="clust2" class="cluster">
<title>cluster_DESTINATIONS</title>
<polygon fill="#e6dbcf" stroke="black" stroke-dasharray="1,5" points="258,-16 258,-524 706,-524 706,-16 258,-16"/>
<text text-anchor="middle" x="311" y="-510.4" font-family="Helvetica,sans-Serif" font-size="12.00">DESTINATIONS</text>
</g>
<g id="clust3" class="cluster">
<title>cluster_HTML5_APPS</title>
<polygon fill="#e6dbcf" stroke="black" stroke-dasharray="1,5" points="16,-16.5 16,-256 250,-256 250,-16.5 16,-16.5"/>
<text text-anchor="middle" x="62" y="-242.4" font-family="Helvetica,sans-Serif" font-size="12.00">HTML5 APPS</text>
</g>
<!-- developer&#45;keynote&#45;dashboard&#45;destination&#45;service -->
<g id="node1" class="node">
<title>developer&#45;keynote&#45;dashboard&#45;destination&#45;service</title>
<polygon fill="#488791" stroke="transparent" points="573,-376 321,-376 321,-304 573,-304 573,-376"/>
<polyline fill="none" stroke="#407780" points="321,-304 573,-304 "/>
<text text-anchor="middle" x="447" y="-343" font-family="Helvetica,sans-Serif" font-size="10.00">SERVICE DESTINATION</text>
<text text-anchor="middle" x="447" y="-320" font-family="Helvetica,sans-Serif" font-size="10.00">developer&#45;keynote&#45;dashboard&#45;destination&#45;service</text>
</g>
<!-- developer&#45;keynote&#45;html_destination -->
<g id="node2" class="node">
<title>developer&#45;keynote&#45;html_destination</title>
<polygon fill="#bfb9ac" stroke="transparent" points="477,-227 291,-227 291,-155 477,-155 477,-227"/>
<polyline fill="none" stroke="#737c80" points="291,-155 477,-155 "/>
<text text-anchor="middle" x="384" y="-194" font-family="Helvetica,sans-Serif" font-size="10.00">DESTINATION</text>
<text text-anchor="middle" x="384" y="-171" font-family="Helvetica,sans-Serif" font-size="10.00">developer&#45;keynote&#45;html_destination</text>
</g>
<!-- developer&#45;keynote&#45;dashboard&#45;destination&#45;service&#45;&gt;developer&#45;keynote&#45;html_destination -->
<g id="edge1" class="edge">
<title>developer&#45;keynote&#45;dashboard&#45;destination&#45;service&#45;&gt;developer&#45;keynote&#45;html_destination</title>
<path fill="none" stroke="black" stroke-width="0.7" d="M386.35,-303.91C381.04,-298.57 376.39,-292.61 373,-286 365.35,-271.11 365.53,-253.19 368.52,-237.01"/>
<polygon fill="black" stroke="black" stroke-width="0.7" points="371.95,-237.72 370.7,-227.2 365.11,-236.2 371.95,-237.72"/>
<text text-anchor="middle" x="421" y="-278" font-family="Helvetica,sans-Serif" font-size="10.00">define destination</text>
<text text-anchor="middle" x="421" y="-267" font-family="Helvetica,sans-Serif" font-size="10.00">at subaccount level</text>
</g>
<!-- developer&#45;keynote&#45;uaa_destination -->
<g id="node3" class="node">
<title>developer&#45;keynote&#45;uaa_destination</title>
<polygon fill="#bfb9ac" stroke="transparent" points="677,-227 495,-227 495,-155 677,-155 677,-227"/>
<polyline fill="none" stroke="#737c80" points="495,-155 677,-155 "/>
<text text-anchor="middle" x="586" y="-194" font-family="Helvetica,sans-Serif" font-size="10.00">DESTINATION</text>
<text text-anchor="middle" x="586" y="-171" font-family="Helvetica,sans-Serif" font-size="10.00">developer&#45;keynote&#45;uaa_destination</text>
</g>
<!-- developer&#45;keynote&#45;dashboard&#45;destination&#45;service&#45;&gt;developer&#45;keynote&#45;uaa_destination -->
<g id="edge2" class="edge">
<title>developer&#45;keynote&#45;dashboard&#45;destination&#45;service&#45;&gt;developer&#45;keynote&#45;uaa_destination</title>
<path fill="none" stroke="black" stroke-width="0.7" d="M464.42,-303.92C471.9,-290.65 481.38,-275.89 492,-264 501.68,-253.16 513.18,-242.82 524.76,-233.52"/>
<polygon fill="black" stroke="black" stroke-width="0.7" points="527.04,-236.18 532.76,-227.26 522.73,-230.66 527.04,-236.18"/>
<text text-anchor="middle" x="540" y="-278" font-family="Helvetica,sans-Serif" font-size="10.00">define destination</text>
<text text-anchor="middle" x="540" y="-267" font-family="Helvetica,sans-Serif" font-size="10.00">at subaccount level</text>
</g>
<!-- developer&#45;keynote&#45;dashboard_html_repo_host -->
<g id="node5" class="node">
<title>developer&#45;keynote&#45;dashboard_html_repo_host</title>
<polygon fill="#488791" stroke="#407780" points="502,-96.5 499,-100.5 478,-100.5 475,-96.5 266,-96.5 266,-24.5 502,-24.5 502,-96.5"/>
<text text-anchor="middle" x="384" y="-63.5" font-family="Helvetica,sans-Serif" font-size="10.00">SERVICE HTML5 REPOSITORY</text>
<text text-anchor="middle" x="384" y="-40.5" font-family="Helvetica,sans-Serif" font-size="10.00">developer&#45;keynote&#45;dashboard_html_repo_host</text>
</g>
<!-- developer&#45;keynote&#45;html_destination&#45;&gt;developer&#45;keynote&#45;dashboard_html_repo_host -->
<g id="edge4" class="edge">
<title>developer&#45;keynote&#45;html_destination&#45;&gt;developer&#45;keynote&#45;dashboard_html_repo_host</title>
<path fill="none" stroke="black" stroke-width="0.7" d="M384,-154.89C384,-140.01 384,-122.5 384,-106.68"/>
<polygon fill="black" stroke="black" stroke-width="0.7" points="387.5,-106.57 384,-96.57 380.5,-106.57 387.5,-106.57"/>
<text text-anchor="middle" x="422" y="-123.5" font-family="Helvetica,sans-Serif" font-size="10.00">point to service</text>
</g>
<!-- developer&#45;keynote&#45;dashboard_uaa -->
<g id="node6" class="node">
<title>developer&#45;keynote&#45;dashboard_uaa</title>
<path fill="#488791" stroke="#40806e" d="M532,-24.5C532,-24.5 686,-24.5 686,-24.5 692,-24.5 698,-30.5 698,-36.5 698,-36.5 698,-84.5 698,-84.5 698,-90.5 692,-96.5 686,-96.5 686,-96.5 532,-96.5 532,-96.5 526,-96.5 520,-90.5 520,-84.5 520,-84.5 520,-36.5 520,-36.5 520,-30.5 526,-24.5 532,-24.5"/>
<text text-anchor="middle" x="609" y="-63.5" font-family="Helvetica,sans-Serif" font-size="10.00">🔑 SERVICE XSUAA</text>
<text text-anchor="middle" x="609" y="-40.5" font-family="Helvetica,sans-Serif" font-size="10.00">developer&#45;keynote&#45;dashboard_uaa</text>
</g>
<!-- developer&#45;keynote&#45;uaa_destination&#45;&gt;developer&#45;keynote&#45;dashboard_uaa -->
<g id="edge5" class="edge">
<title>developer&#45;keynote&#45;uaa_destination&#45;&gt;developer&#45;keynote&#45;dashboard_uaa</title>
<path fill="none" stroke="black" stroke-width="0.7" d="M592.28,-154.89C594.95,-140.01 598.08,-122.5 600.91,-106.68"/>
<polygon fill="black" stroke="black" stroke-width="0.7" points="604.41,-107.03 602.72,-96.57 597.52,-105.8 604.41,-107.03"/>
<text text-anchor="middle" x="636" y="-123.5" font-family="Helvetica,sans-Serif" font-size="10.00">point to service</text>
</g>
<!-- developer&#45;keynote&#45;dashboard&#45;destination&#45;content -->
<g id="node4" class="node">
<title>developer&#45;keynote&#45;dashboard&#45;destination&#45;content</title>
<polygon fill="#bfb9ac" stroke="#737c80" points="574,-495 324,-495 320,-491 320,-423 570,-423 574,-427 574,-495"/>
<polyline fill="none" stroke="#737c80" points="570,-491 320,-491 "/>
<polyline fill="none" stroke="#737c80" points="570,-491 570,-423 "/>
<polyline fill="none" stroke="#737c80" points="570,-491 574,-495 "/>
<text text-anchor="middle" x="447" y="-462" font-family="Helvetica,sans-Serif" font-size="10.00">DESTINATIONS DEPLOYER</text>
<text text-anchor="middle" x="447" y="-439" font-family="Helvetica,sans-Serif" font-size="10.00">developer&#45;keynote&#45;dashboard&#45;destination&#45;content</text>
</g>
<!-- developer&#45;keynote&#45;dashboard&#45;destination&#45;content&#45;&gt;developer&#45;keynote&#45;dashboard&#45;destination&#45;service -->
<g id="edge3" class="edge">
<title>developer&#45;keynote&#45;dashboard&#45;destination&#45;content&#45;&gt;developer&#45;keynote&#45;dashboard&#45;destination&#45;service</title>
<path fill="none" stroke="black" stroke-width="0.7" d="M447,-422.9C447,-411.33 447,-398.3 447,-386.09"/>
<polygon fill="black" stroke="black" stroke-width="0.7" points="450.5,-386.08 447,-376.08 443.5,-386.08 450.5,-386.08"/>
<text text-anchor="middle" x="510.5" y="-397" font-family="Helvetica,sans-Serif" font-size="10.00">create destination service</text>
</g>
<!-- developer&#45;keynote&#45;dashboard&#45;destination&#45;content&#45;&gt;developer&#45;keynote&#45;dashboard_html_repo_host -->
<g id="edge9" class="edge">
<title>developer&#45;keynote&#45;dashboard&#45;destination&#45;content&#45;&gt;developer&#45;keynote&#45;dashboard_html_repo_host</title>
<path fill="none" stroke="black" stroke-width="0.7" stroke-dasharray="5,2" d="M366.33,-422.88C346.04,-410.65 326.07,-395.1 312,-376 279.39,-331.74 288.72,-310.56 282,-256 276.52,-211.45 263.92,-196.09 282,-155 290.73,-135.16 305.98,-117.69 322.06,-103.38"/>
<polygon fill="black" stroke="black" stroke-width="0.7" points="324.66,-105.77 330,-96.62 320.12,-100.44 324.66,-105.77"/>
<text text-anchor="middle" x="293" y="-272.5" font-family="Helvetica,sans-Serif" font-size="10.00">use</text>
</g>
<!-- developer&#45;keynote&#45;dashboard&#45;destination&#45;content&#45;&gt;developer&#45;keynote&#45;dashboard_uaa -->
<g id="edge8" class="edge">
<title>developer&#45;keynote&#45;dashboard&#45;destination&#45;content&#45;&gt;developer&#45;keynote&#45;dashboard_uaa</title>
<path fill="none" stroke="#40806e" stroke-width="0.7" d="M550.77,-422.92C560.43,-417.65 569.69,-411.7 578,-405 637.01,-357.4 620.13,-317.35 674,-264 678.55,-259.49 682.98,-261.65 686,-256 715.62,-200.66 711.04,-168.37 678,-115 675.6,-111.13 672.81,-107.42 669.76,-103.91"/>
<polygon fill="#40806e" stroke="#40806e" stroke-width="0.7" points="672.14,-101.33 662.71,-96.51 667.08,-106.16 672.14,-101.33"/>
<text text-anchor="middle" x="718" y="-272.5" font-family="Helvetica,sans-Serif" font-size="10.00" fill="#40806e">use xsuaa service</text>
</g>
<!-- developer&#45;keynote&#45;dashboard_ui_deployer -->
<g id="node7" class="node">
<title>developer&#45;keynote&#45;dashboard_ui_deployer</title>
<polygon fill="#bfb9ac" stroke="#737c80" points="241.5,-227 28.5,-227 24.5,-223 24.5,-155 237.5,-155 241.5,-159 241.5,-227"/>
<polyline fill="none" stroke="#737c80" points="237.5,-223 24.5,-223 "/>
<polyline fill="none" stroke="#737c80" points="237.5,-223 237.5,-155 "/>
<polyline fill="none" stroke="#737c80" points="237.5,-223 241.5,-227 "/>
<text text-anchor="middle" x="133" y="-194" font-family="Helvetica,sans-Serif" font-size="10.00">APPS DEPLOYER</text>
<text text-anchor="middle" x="133" y="-171" font-family="Helvetica,sans-Serif" font-size="10.00">developer&#45;keynote&#45;dashboard_ui_deployer</text>
</g>
<!-- developer&#45;keynote&#45;dashboard_ui_deployer&#45;&gt;developer&#45;keynote&#45;dashboard_html_repo_host -->
<g id="edge6" class="edge">
<title>developer&#45;keynote&#45;dashboard_ui_deployer&#45;&gt;developer&#45;keynote&#45;dashboard_html_repo_host</title>
<path fill="none" stroke="black" stroke-width="0.7" d="M147.84,-154.68C155.49,-140.4 166.17,-124.98 180,-115 207.45,-95.2 221.23,-105.46 254,-97 254.6,-96.84 255.2,-96.69 255.81,-96.53"/>
<polygon fill="black" stroke="black" stroke-width="0.7" points="256.92,-99.86 265.71,-93.95 255.15,-93.09 256.92,-99.86"/>
<text text-anchor="middle" x="223.5" y="-129" font-family="Helvetica,sans-Serif" font-size="10.00">deploy apps to</text>
<text text-anchor="middle" x="223.5" y="-118" font-family="Helvetica,sans-Serif" font-size="10.00">HTML5 repository</text>
</g>
<!-- HTML5Module -->
<g id="node8" class="node">
<title>HTML5Module</title>
<path fill="#b0ac89" stroke="#8b875d" d="M131,-96.5C131,-96.5 77,-96.5 77,-96.5 71,-96.5 65,-90.5 65,-84.5 65,-84.5 65,-36.5 65,-36.5 65,-30.5 71,-24.5 77,-24.5 77,-24.5 131,-24.5 131,-24.5 137,-24.5 143,-30.5 143,-36.5 143,-36.5 143,-84.5 143,-84.5 143,-90.5 137,-96.5 131,-96.5"/>
<text text-anchor="middle" x="104" y="-63.5" font-family="Helvetica,sans-Serif" font-size="10.00">APP HTML5</text>
<text text-anchor="middle" x="104" y="-40.5" font-family="Helvetica,sans-Serif" font-size="10.00">HTML5Module</text>
</g>
<!-- developer&#45;keynote&#45;dashboard_ui_deployer&#45;&gt;HTML5Module -->
<g id="edge7" class="edge">
<title>developer&#45;keynote&#45;dashboard_ui_deployer&#45;&gt;HTML5Module</title>
<path fill="none" stroke="#8b875d" stroke-width="0.7" d="M111.47,-154.72C108.82,-148.97 106.52,-142.95 105,-137 102.55,-127.38 101.46,-116.85 101.14,-106.79"/>
<polygon fill="#8b875d" stroke="#8b875d" stroke-width="0.7" points="104.64,-106.5 101.06,-96.53 97.64,-106.55 104.64,-106.5"/>
<text text-anchor="middle" x="131" y="-123.5" font-family="Helvetica,sans-Serif" font-size="10.00" fill="#8b875d">deployApp</text>
</g>
</g>
</svg>
