<?xml version="1.0" encoding="UTF-8" standalone="no"?>
<!DOCTYPE svg PUBLIC "-//W3C//DTD SVG 1.1//EN"
 "http://www.w3.org/Graphics/SVG/1.1/DTD/svg11.dtd">
<!-- Generated by graphviz version 2.43.0 (0)
 -->
<!-- Title: MTA Pages: 1 -->
<svg width="727pt" height="425pt"
 viewBox="0.00 0.00 727.00 425.40" xmlns="http://www.w3.org/2000/svg" xmlns:xlink="http://www.w3.org/1999/xlink">
<g id="graph0" class="graph" transform="scale(1 1) rotate(0) translate(4 421.4)">
<title>MTA</title>
<polygon fill="#e6cfd4" stroke="#000000" points="-4,4 -4,-421.4 723,-421.4 723,4 -4,4"/>
<g id="clust1" class="cluster">
<title>cluster_MTA_MAIN</title>
<polygon fill="white" stroke="black" points="8,-8 8,-409.4 711,-409.4 711,-8 8,-8"/>
<text text-anchor="middle" x="110.5" y="-394.2" font-family="Helvetica,sans-Serif" font-size="14.00">MTA ID: BOOKSHOP [1.0.0]</text>
</g>
<g id="clust2" class="cluster">
<title>cluster_CAP_SERVICE</title>
<polygon fill="#e6dbcf" stroke="black" stroke-dasharray="1,5" points="30,-127 30,-378.4 570,-378.4 570,-127 30,-127"/>
<text text-anchor="middle" x="77.5" y="-364.8" font-family="Helvetica,sans-Serif" font-size="12.00">CAP SERVICE</text>
</g>
<!-- bookshop&#45;srv -->
<g id="node1" class="node">
<title>bookshop&#45;srv</title>
<path fill="#bfb9ac" stroke="#737c80" d="M308.87,-322.2C308.87,-322.2 264.74,-344.23 264.74,-344.23 259.37,-346.91 248.63,-346.91 243.26,-344.23 243.26,-344.23 199.13,-322.2 199.13,-322.2 193.76,-319.52 188.4,-310.84 188.41,-304.84 188.41,-304.84 188.44,-275.85 188.44,-275.85 188.45,-269.85 194.46,-263.85 200.46,-263.85 200.46,-263.85 307.54,-263.85 307.54,-263.85 313.54,-263.85 319.55,-269.85 319.56,-275.85 319.56,-275.85 319.59,-304.84 319.59,-304.84 319.6,-310.84 314.24,-319.52 308.87,-322.2"/>
<text text-anchor="middle" x="254" y="-305.2" font-family="Helvetica,sans-Serif" font-size="10.00">CAP</text>
<text text-anchor="middle" x="254" y="-282.2" font-family="Helvetica,sans-Serif" font-size="10.00">bookshop&#45;srv</text>
</g>
<!-- srv&#45;api -->
<g id="node2" class="node">
<title>srv&#45;api</title>
<polygon fill="#ffffcc" stroke="#737c80" points="104,-207.5 38,-207.5 38,-135.5 110,-135.5 110,-201.5 104,-207.5"/>
<polyline fill="none" stroke="#737c80" points="104,-207.5 104,-201.5 "/>
<polyline fill="none" stroke="#737c80" points="110,-201.5 104,-201.5 "/>
<text text-anchor="middle" x="74" y="-169" font-family="Helvetica,sans-Serif" font-size="10.00">srv&#45;api</text>
</g>
<!-- bookshop&#45;srv&#45;&gt;srv&#45;api -->
<g id="edge1" class="edge">
<title>bookshop&#45;srv&#45;&gt;srv&#45;api</title>
<path fill="none" stroke="black" stroke-width="0.7" d="M188.25,-293.39C151.3,-285.44 107.58,-269.39 82,-237 77.63,-231.47 74.92,-224.79 73.31,-217.86"/>
<polygon fill="black" stroke="black" stroke-width="0.7" points="76.71,-216.96 71.69,-207.63 69.8,-218.06 76.71,-216.96"/>
<text text-anchor="middle" x="145" y="-229" font-family="Helvetica,sans-Serif" font-size="10.00">define MTA Properties Set</text>
</g>
<!-- mtx&#45;api -->
<g id="node3" class="node">
<title>mtx&#45;api</title>
<polygon fill="#ffffcc" stroke="#737c80" points="316,-207.5 250,-207.5 250,-135.5 322,-135.5 322,-201.5 316,-207.5"/>
<polyline fill="none" stroke="#737c80" points="316,-207.5 316,-201.5 "/>
<polyline fill="none" stroke="#737c80" points="322,-201.5 316,-201.5 "/>
<text text-anchor="middle" x="286" y="-169" font-family="Helvetica,sans-Serif" font-size="10.00">mtx&#45;api</text>
</g>
<!-- bookshop&#45;srv&#45;&gt;mtx&#45;api -->
<g id="edge2" class="edge">
<title>bookshop&#45;srv&#45;&gt;mtx&#45;api</title>
<path fill="none" stroke="black" stroke-width="0.7" d="M250.77,-263.57C250.71,-251.39 251.7,-237.96 255,-226 255.83,-222.99 256.87,-219.98 258.06,-217"/>
<polygon fill="black" stroke="black" stroke-width="0.7" points="261.37,-218.19 262.32,-207.64 254.99,-215.29 261.37,-218.19"/>
<text text-anchor="middle" x="318" y="-229" font-family="Helvetica,sans-Serif" font-size="10.00">define MTA Properties Set</text>
</g>
<!-- bookshop&#45;db -->
<g id="node4" class="node">
<title>bookshop&#45;db</title>
<path fill="#488791" stroke="#407780" d="M140,-135.5C140,-135.5 220,-135.5 220,-135.5 226,-135.5 232,-141.5 232,-147.5 232,-147.5 232,-195.5 232,-195.5 232,-201.5 226,-207.5 220,-207.5 220,-207.5 140,-207.5 140,-207.5 134,-207.5 128,-201.5 128,-195.5 128,-195.5 128,-147.5 128,-147.5 128,-141.5 134,-135.5 140,-135.5"/>
<text text-anchor="middle" x="180" y="-174.5" font-family="Helvetica,sans-Serif" font-size="10.00">SERVICE&#45;MANAGER</text>
<text text-anchor="middle" x="180" y="-151.5" font-family="Helvetica,sans-Serif" font-size="10.00">bookshop&#45;db</text>
</g>
<!-- bookshop&#45;srv&#45;&gt;bookshop&#45;db -->
<g id="edge3" class="edge">
<title>bookshop&#45;srv&#45;&gt;bookshop&#45;db</title>
<path fill="none" stroke="black" stroke-width="0.7" stroke-dasharray="5,2" d="M232.4,-263.63C223.91,-248.87 214.11,-231.82 205.29,-216.49"/>
<polygon fill="black" stroke="black" stroke-width="0.7" points="208.25,-214.61 200.23,-207.69 202.18,-218.1 208.25,-214.61"/>
<text text-anchor="middle" x="226" y="-229" font-family="Helvetica,sans-Serif" font-size="10.00">use</text>
</g>
<!-- bookshop&#45;uaa -->
<g id="node5" class="node">
<title>bookshop&#45;uaa</title>
<path fill="#488791" stroke="#40806e" d="M352.5,-135.5C352.5,-135.5 435.5,-135.5 435.5,-135.5 441.5,-135.5 447.5,-141.5 447.5,-147.5 447.5,-147.5 447.5,-195.5 447.5,-195.5 447.5,-201.5 441.5,-207.5 435.5,-207.5 435.5,-207.5 352.5,-207.5 352.5,-207.5 346.5,-207.5 340.5,-201.5 340.5,-195.5 340.5,-195.5 340.5,-147.5 340.5,-147.5 340.5,-141.5 346.5,-135.5 352.5,-135.5"/>
<text text-anchor="middle" x="394" y="-174.5" font-family="Helvetica,sans-Serif" font-size="10.00">🔑 SERVICE XSUAA</text>
<text text-anchor="middle" x="394" y="-151.5" font-family="Helvetica,sans-Serif" font-size="10.00">bookshop&#45;uaa</text>
</g>
<!-- bookshop&#45;srv&#45;&gt;bookshop&#45;uaa -->
<g id="edge4" class="edge">
<title>bookshop&#45;srv&#45;&gt;bookshop&#45;uaa</title>
<path fill="none" stroke="#40806e" stroke-width="0.7" d="M319.68,-281.36C342.24,-271.45 365.66,-257.15 381,-237 385.28,-231.38 388.25,-224.72 390.29,-217.84"/>
<polygon fill="#40806e" stroke="#40806e" stroke-width="0.7" points="393.79,-218.24 392.67,-207.7 386.98,-216.64 393.79,-218.24"/>
<text text-anchor="middle" x="431" y="-229" font-family="Helvetica,sans-Serif" font-size="10.00" fill="#40806e">use xsuaa service</text>
</g>
<!-- bookshop&#45;registry -->
<g id="node6" class="node">
<title>bookshop&#45;registry</title>
<path fill="#488791" stroke="#407780" d="M477.5,-135.5C477.5,-135.5 550.5,-135.5 550.5,-135.5 556.5,-135.5 562.5,-141.5 562.5,-147.5 562.5,-147.5 562.5,-195.5 562.5,-195.5 562.5,-201.5 556.5,-207.5 550.5,-207.5 550.5,-207.5 477.5,-207.5 477.5,-207.5 471.5,-207.5 465.5,-201.5 465.5,-195.5 465.5,-195.5 465.5,-147.5 465.5,-147.5 465.5,-141.5 471.5,-135.5 477.5,-135.5"/>
<text text-anchor="middle" x="514" y="-174.5" font-family="Helvetica,sans-Serif" font-size="10.00">SAAS REGISTRY</text>
<text text-anchor="middle" x="514" y="-151.5" font-family="Helvetica,sans-Serif" font-size="10.00">bookshop&#45;registry</text>
</g>
<!-- bookshop&#45;srv&#45;&gt;bookshop&#45;registry -->
<g id="edge5" class="edge">
<title>bookshop&#45;srv&#45;&gt;bookshop&#45;registry</title>
<path fill="none" stroke="black" stroke-width="0.7" stroke-dasharray="5,2" d="M319.56,-296.06C368.1,-289.27 433.44,-273.53 479,-237 485.86,-231.5 491.56,-224.28 496.24,-216.67"/>
<polygon fill="black" stroke="black" stroke-width="0.7" points="499.46,-218.07 501.26,-207.63 493.34,-214.67 499.46,-218.07"/>
<text text-anchor="middle" x="497" y="-229" font-family="Helvetica,sans-Serif" font-size="10.00">use</text>
</g>
<!-- srv&#45;api:srv&#45;url -->
<g id="node10" class="node">
<title>srv&#45;api:srv&#45;url</title>
<polygon fill="#ffffe6" stroke="#737c80" points="120.5,-88 15.5,-88 15.5,-16 126.5,-16 126.5,-82 120.5,-88"/>
<polyline fill="none" stroke="#737c80" points="120.5,-88 120.5,-82 "/>
<polyline fill="none" stroke="#737c80" points="126.5,-82 120.5,-82 "/>
<text text-anchor="middle" x="71" y="-55" font-family="Helvetica,sans-Serif" font-size="10.00">Name: srv&#45;url</text>
<text text-anchor="middle" x="71" y="-32" font-family="Helvetica,sans-Serif" font-size="10.00">Value: ${default&#45;url}</text>
</g>
<!-- srv&#45;api&#45;&gt;srv&#45;api:srv&#45;url -->
<g id="edge9" class="edge">
<title>srv&#45;api&#45;&gt;srv&#45;api:srv&#45;url</title>
<path fill="none" stroke="grey" stroke-width="0.7" d="M43.8,-135.37C40.2,-129.55 37.07,-123.34 35,-117 32.9,-110.56 33.23,-104.03 35.06,-97.73"/>
<polygon fill="grey" stroke="grey" stroke-width="0.7" points="38.47,-98.65 39.05,-88.07 32,-95.98 38.47,-98.65"/>
<text text-anchor="middle" x="84.5" y="-109" font-family="Helvetica,sans-Serif" font-size="10.00" fill="grey">define MTA property</text>
</g>
<!-- mtx&#45;api:mtx&#45;url -->
<g id="node8" class="node">
<title>mtx&#45;api:mtx&#45;url</title>
<polygon fill="#ffffe6" stroke="#737c80" points="468.5,-88 363.5,-88 363.5,-16 474.5,-16 474.5,-82 468.5,-88"/>
<polyline fill="none" stroke="#737c80" points="468.5,-88 468.5,-82 "/>
<polyline fill="none" stroke="#737c80" points="474.5,-82 468.5,-82 "/>
<text text-anchor="middle" x="419" y="-55" font-family="Helvetica,sans-Serif" font-size="10.00">Name: mtx&#45;url</text>
<text text-anchor="middle" x="419" y="-32" font-family="Helvetica,sans-Serif" font-size="10.00">Value: ${default&#45;url}</text>
</g>
<!-- mtx&#45;api&#45;&gt;mtx&#45;api:mtx&#45;url -->
<g id="edge11" class="edge">
<title>mtx&#45;api&#45;&gt;mtx&#45;api:mtx&#45;url</title>
<path fill="none" stroke="grey" stroke-width="0.7" d="M273.77,-135.17C272.38,-125.02 273.17,-114.43 279,-106 295.84,-81.62 325.44,-68.45 353.1,-61.33"/>
<polygon fill="grey" stroke="grey" stroke-width="0.7" points="354.24,-64.66 363.18,-58.97 352.64,-57.84 354.24,-64.66"/>
<text text-anchor="middle" x="328.5" y="-109" font-family="Helvetica,sans-Serif" font-size="10.00" fill="grey">define MTA property</text>
</g>
<!-- mtx&#45;api:srv&#45;url -->
<g id="node9" class="node">
<title>mtx&#45;api:srv&#45;url</title>
<polygon fill="#ffffe6" stroke="#737c80" points="633.5,-88 528.5,-88 528.5,-16 639.5,-16 639.5,-82 633.5,-88"/>
<polyline fill="none" stroke="#737c80" points="633.5,-88 633.5,-82 "/>
<polyline fill="none" stroke="#737c80" points="639.5,-82 633.5,-82 "/>
<text text-anchor="middle" x="584" y="-55" font-family="Helvetica,sans-Serif" font-size="10.00">Name: srv&#45;url</text>
<text text-anchor="middle" x="584" y="-32" font-family="Helvetica,sans-Serif" font-size="10.00">Value: ${default&#45;url}</text>
</g>
<!-- mtx&#45;api&#45;&gt;mtx&#45;api:srv&#45;url -->
<g id="edge10" class="edge">
<title>mtx&#45;api&#45;&gt;mtx&#45;api:srv&#45;url</title>
<path fill="none" stroke="grey" stroke-width="0.7" d="M319.05,-135.47C323.18,-132.28 327.53,-129.36 332,-127 350.5,-117.23 358.49,-124.55 378,-117 387.1,-113.48 387.88,-109.48 397,-106 433.89,-91.93 445.95,-98.55 484,-88 495.36,-84.85 507.29,-81.09 518.8,-77.21"/>
<polygon fill="grey" stroke="grey" stroke-width="0.7" points="520.02,-80.5 528.35,-73.94 517.76,-73.87 520.02,-80.5"/>
<text text-anchor="middle" x="446.5" y="-109" font-family="Helvetica,sans-Serif" font-size="10.00" fill="grey">define MTA property</text>
</g>
<!-- bookshop&#45;db:hdi&#45;service&#45;name -->
<g id="node7" class="node">
<title>bookshop&#45;db:hdi&#45;service&#45;name</title>
<polygon fill="#ffffe6" stroke="#737c80" points="267.5,-88 144.5,-88 144.5,-16 273.5,-16 273.5,-82 267.5,-88"/>
<polyline fill="none" stroke="#737c80" points="267.5,-88 267.5,-82 "/>
<polyline fill="none" stroke="#737c80" points="273.5,-82 267.5,-82 "/>
<text text-anchor="middle" x="209" y="-55" font-family="Helvetica,sans-Serif" font-size="10.00">Name: hdi&#45;service&#45;name</text>
<text text-anchor="middle" x="209" y="-32" font-family="Helvetica,sans-Serif" font-size="10.00">Value: ${service&#45;name}</text>
</g>
<!-- bookshop&#45;db&#45;&gt;bookshop&#45;db:hdi&#45;service&#45;name -->
<g id="edge6" class="edge">
<title>bookshop&#45;db&#45;&gt;bookshop&#45;db:hdi&#45;service&#45;name</title>
<path fill="none" stroke="grey" stroke-width="0.7" d="M157.93,-135.47C154.46,-125.85 153.13,-115.46 157,-106 158.33,-102.74 159.97,-99.57 161.84,-96.51"/>
<polygon fill="grey" stroke="grey" stroke-width="0.7" points="164.79,-98.4 167.64,-88.2 159.05,-94.4 164.79,-98.4"/>
<text text-anchor="middle" x="206.5" y="-109" font-family="Helvetica,sans-Serif" font-size="10.00" fill="grey">define MTA property</text>
</g>
<!-- bookshop&#45;registry&#45;&gt;mtx&#45;api:mtx&#45;url -->
<g id="edge7" class="edge">
<title>bookshop&#45;registry&#45;&gt;mtx&#45;api:mtx&#45;url</title>
<path fill="none" stroke="grey" stroke-width="0.7" d="M511.41,-135.36C509.39,-125.22 505.91,-114.59 500,-106 495.21,-99.03 489.17,-92.76 482.56,-87.17"/>
<polygon fill="grey" stroke="grey" stroke-width="0.7" points="484.62,-84.34 474.58,-80.93 480.3,-89.85 484.62,-84.34"/>
<text text-anchor="middle" x="542.5" y="-109" font-family="Helvetica,sans-Serif" font-size="10.00" fill="grey">on subscription</text>
</g>
<!-- bookshop&#45;registry&#45;&gt;mtx&#45;api:srv&#45;url -->
<g id="edge8" class="edge">
<title>bookshop&#45;registry&#45;&gt;mtx&#45;api:srv&#45;url</title>
<path fill="none" stroke="grey" stroke-width="0.7" d="M562.51,-150.72C576.49,-142.48 590.1,-131.4 598,-117 601.16,-111.24 602.18,-104.82 601.87,-98.34"/>
<polygon fill="grey" stroke="grey" stroke-width="0.7" points="605.29,-97.57 600.4,-88.17 598.37,-98.57 605.29,-97.57"/>
<text text-anchor="middle" x="642.5" y="-109" font-family="Helvetica,sans-Serif" font-size="10.00" fill="grey">on dependencies</text>
</g>
</g>
</svg>
