<?xml version="1.0" encoding="UTF-8" standalone="no"?>
<!DOCTYPE svg PUBLIC "-//W3C//DTD SVG 1.1//EN"
 "http://www.w3.org/Graphics/SVG/1.1/DTD/svg11.dtd">
<!-- Generated by graphviz version 2.43.0 (0)
 -->
<!-- Title: MTA Pages: 1 -->
<svg width="679pt" height="478pt"
 viewBox="0.00 0.00 679.00 477.85" xmlns="http://www.w3.org/2000/svg" xmlns:xlink="http://www.w3.org/1999/xlink">
<g id="graph0" class="graph" transform="scale(1 1) rotate(0) translate(4 473.85)">
<title>MTA</title>
<polygon fill="#e6cfd4" stroke="#000000" points="-4,4 -4,-473.85 675,-473.85 675,4 -4,4"/>
<g id="clust1" class="cluster">
<title>cluster_MTA_MAIN</title>
<polygon fill="white" stroke="black" points="8,-8 8,-461.85 663,-461.85 663,-8 8,-8"/>
<text text-anchor="middle" x="117" y="-446.65" font-family="Helvetica,sans-Serif" font-size="14.00">MTA ID: CAP&#45;SERVICE [1.0.0]</text>
</g>
<g id="clust2" class="cluster">
<title>cluster_DESTINATIONS</title>
<polygon fill="#e6dbcf" stroke="black" stroke-dasharray="1,5" points="422,-128.12 422,-399.55 655,-399.55 655,-128.12 422,-128.12"/>
<text text-anchor="middle" x="475" y="-385.95" font-family="Helvetica,sans-Serif" font-size="12.00">DESTINATIONS</text>
</g>
<g id="clust3" class="cluster">
<title>cluster_CAP_SERVICE</title>
<polygon fill="#e6dbcf" stroke="black" stroke-dasharray="1,5" points="16,-127 16,-430.85 414,-430.85 414,-127 16,-127"/>
<text text-anchor="middle" x="63.5" y="-417.25" font-family="Helvetica,sans-Serif" font-size="12.00">CAP SERVICE</text>
</g>
<!-- managed&#45;fiori&#45;destination -->
<g id="node1" class="node">
<title>managed&#45;fiori&#45;destination</title>
<polygon fill="#488791" stroke="transparent" points="595.5,-370.55 460.5,-370.55 460.5,-298.55 595.5,-298.55 595.5,-370.55"/>
<polyline fill="none" stroke="#407780" points="460.5,-298.55 595.5,-298.55 "/>
<text text-anchor="middle" x="528" y="-337.55" font-family="Helvetica,sans-Serif" font-size="10.00">SERVICE DESTINATION</text>
<text text-anchor="middle" x="528" y="-314.55" font-family="Helvetica,sans-Serif" font-size="10.00">managed&#45;fiori&#45;destination</text>
</g>
<!-- Northwind -->
<g id="node2" class="node">
<title>Northwind</title>
<polygon fill="#bfb9ac" stroke="transparent" points="597.5,-208.12 522.5,-208.12 522.5,-136.12 597.5,-136.12 597.5,-208.12"/>
<polyline fill="none" stroke="#737c80" points="522.5,-136.12 597.5,-136.12 "/>
<text text-anchor="middle" x="560" y="-175.12" font-family="Helvetica,sans-Serif" font-size="10.00">DESTINATION</text>
<text text-anchor="middle" x="560" y="-152.12" font-family="Helvetica,sans-Serif" font-size="10.00">Northwind</text>
</g>
<!-- managed&#45;fiori&#45;destination&#45;&gt;Northwind -->
<g id="edge1" class="edge">
<title>managed&#45;fiori&#45;destination&#45;&gt;Northwind</title>
<path fill="none" stroke="black" stroke-width="0.7" d="M535.02,-298.34C539.71,-274.84 545.92,-243.7 550.98,-218.36"/>
<polygon fill="black" stroke="black" stroke-width="0.7" points="554.47,-218.74 552.99,-208.25 547.61,-217.37 554.47,-218.74"/>
<text text-anchor="middle" x="592" y="-241.25" font-family="Helvetica,sans-Serif" font-size="10.00">define destination</text>
<text text-anchor="middle" x="592" y="-230.25" font-family="Helvetica,sans-Serif" font-size="10.00">at instance level</text>
</g>
<!-- Backup -->
<g id="node3" class="node">
<title>Backup</title>
<polygon fill="#bfb9ac" stroke="transparent" points="504.5,-208.12 429.5,-208.12 429.5,-136.12 504.5,-136.12 504.5,-208.12"/>
<polyline fill="none" stroke="#737c80" points="429.5,-136.12 504.5,-136.12 "/>
<text text-anchor="middle" x="467" y="-175.12" font-family="Helvetica,sans-Serif" font-size="10.00">DESTINATION</text>
<text text-anchor="middle" x="467" y="-152.12" font-family="Helvetica,sans-Serif" font-size="10.00">Backup</text>
</g>
<!-- managed&#45;fiori&#45;destination&#45;&gt;Backup -->
<g id="edge2" class="edge">
<title>managed&#45;fiori&#45;destination&#45;&gt;Backup</title>
<path fill="none" stroke="black" stroke-width="0.7" d="M485.6,-298.28C472.21,-284.53 459.07,-267.64 452,-249.25 448.23,-239.44 448.15,-228.53 449.87,-218.11"/>
<polygon fill="black" stroke="black" stroke-width="0.7" points="453.29,-218.83 452,-208.32 446.45,-217.35 453.29,-218.83"/>
<text text-anchor="middle" x="496" y="-241.25" font-family="Helvetica,sans-Serif" font-size="10.00">define destination</text>
<text text-anchor="middle" x="496" y="-230.25" font-family="Helvetica,sans-Serif" font-size="10.00">at instance level</text>
</g>
<!-- srv&#45;api:srv&#45;url -->
<g id="node10" class="node">
<title>srv&#45;api:srv&#45;url</title>
<polygon fill="#ffffe6" stroke="#737c80" points="550.5,-88 445.5,-88 445.5,-16 556.5,-16 556.5,-82 550.5,-88"/>
<polyline fill="none" stroke="#737c80" points="550.5,-88 550.5,-82 "/>
<polyline fill="none" stroke="#737c80" points="556.5,-82 550.5,-82 "/>
<text text-anchor="middle" x="501" y="-55" font-family="Helvetica,sans-Serif" font-size="10.00">Name: srv&#45;url</text>
<text text-anchor="middle" x="501" y="-32" font-family="Helvetica,sans-Serif" font-size="10.00">Value: ${default&#45;url}</text>
</g>
<!-- Northwind&#45;&gt;srv&#45;api:srv&#45;url -->
<g id="edge10" class="edge">
<title>Northwind&#45;&gt;srv&#45;api:srv&#45;url</title>
<path fill="none" stroke="grey" stroke-width="0.7" d="M542.46,-136C536.39,-123.85 529.51,-110.08 523.12,-97.29"/>
<polygon fill="grey" stroke="grey" stroke-width="0.7" points="526.18,-95.57 518.58,-88.19 519.91,-98.7 526.18,-95.57"/>
<text text-anchor="middle" x="559" y="-109" font-family="Helvetica,sans-Serif" font-size="10.00" fill="grey">point to url</text>
</g>
<!-- srv&#45;api:srv&#45;url&#45;backup -->
<g id="node11" class="node">
<title>srv&#45;api:srv&#45;url&#45;backup</title>
<polygon fill="#ffffe6" stroke="#737c80" points="372,-88 264,-88 264,-16 378,-16 378,-82 372,-88"/>
<polyline fill="none" stroke="#737c80" points="372,-88 372,-82 "/>
<polyline fill="none" stroke="#737c80" points="378,-82 372,-82 "/>
<text text-anchor="middle" x="321" y="-55" font-family="Helvetica,sans-Serif" font-size="10.00">Name: srv&#45;url&#45;backup</text>
<text text-anchor="middle" x="321" y="-32" font-family="Helvetica,sans-Serif" font-size="10.00">Value: ${default&#45;url}</text>
</g>
<!-- Backup&#45;&gt;srv&#45;api:srv&#45;url&#45;backup -->
<g id="edge11" class="edge">
<title>Backup&#45;&gt;srv&#45;api:srv&#45;url&#45;backup</title>
<path fill="none" stroke="grey" stroke-width="0.7" d="M459.2,-136.12C455.44,-125.44 449.94,-114.32 442,-106 427.23,-90.53 407.17,-79.3 387.63,-71.27"/>
<polygon fill="grey" stroke="grey" stroke-width="0.7" points="388.69,-67.93 378.11,-67.58 386.17,-74.46 388.69,-67.93"/>
<text text-anchor="middle" x="476" y="-109" font-family="Helvetica,sans-Serif" font-size="10.00" fill="grey">point to url</text>
</g>
<!-- cap&#45;service&#45;srv -->
<g id="node4" class="node">
<title>cap&#45;service&#45;srv</title>
<path fill="#bfb9ac" stroke="#737c80" d="M306.19,-361.7C306.19,-361.7 253.14,-395.24 253.14,-395.24 248.07,-398.45 237.93,-398.45 232.86,-395.24 232.86,-395.24 179.81,-361.7 179.81,-361.7 174.73,-358.49 169.67,-349.29 169.67,-343.29 169.67,-343.29 169.72,-292.26 169.72,-292.26 169.73,-286.26 175.73,-280.26 181.73,-280.26 181.73,-280.26 304.27,-280.26 304.27,-280.26 310.27,-280.26 316.27,-286.26 316.28,-292.26 316.28,-292.26 316.33,-343.29 316.33,-343.29 316.33,-349.29 311.27,-358.49 306.19,-361.7"/>
<text text-anchor="middle" x="243" y="-349.05" font-family="Helvetica,sans-Serif" font-size="10.00">CAP</text>
<text text-anchor="middle" x="243" y="-326.05" font-family="Helvetica,sans-Serif" font-size="10.00">cap&#45;service&#45;srv</text>
<text text-anchor="middle" x="243" y="-303.05" font-family="Helvetica,sans-Serif" font-size="10.00">Memory: 256M</text>
</g>
<!-- srv&#45;api -->
<g id="node5" class="node">
<title>srv&#45;api</title>
<polygon fill="#ffffcc" stroke="#737c80" points="228,-208.12 162,-208.12 162,-136.12 234,-136.12 234,-202.12 228,-208.12"/>
<polyline fill="none" stroke="#737c80" points="228,-208.12 228,-202.12 "/>
<polyline fill="none" stroke="#737c80" points="234,-202.12 228,-202.12 "/>
<text text-anchor="middle" x="198" y="-169.62" font-family="Helvetica,sans-Serif" font-size="10.00">srv&#45;api</text>
</g>
<!-- cap&#45;service&#45;srv&#45;&gt;srv&#45;api -->
<g id="edge3" class="edge">
<title>cap&#45;service&#45;srv&#45;&gt;srv&#45;api</title>
<path fill="none" stroke="black" stroke-width="0.7" d="M228.02,-280.13C222.35,-259.95 215.98,-237.21 210.56,-217.9"/>
<polygon fill="black" stroke="black" stroke-width="0.7" points="213.9,-216.83 207.83,-208.15 207.16,-218.73 213.9,-216.83"/>
<text text-anchor="middle" x="283" y="-235.75" font-family="Helvetica,sans-Serif" font-size="10.00">define MTA Properties Set</text>
</g>
<!-- cap&#45;service&#45;db -->
<g id="node6" class="node">
<title>cap&#45;service&#45;db</title>
<path fill="#e6bb73" stroke="#bf8a30" d="M143.5,-202.6C143.5,-206.34 116.83,-209.38 84,-209.38 51.17,-209.38 24.5,-206.34 24.5,-202.6 24.5,-202.6 24.5,-141.65 24.5,-141.65 24.5,-137.91 51.17,-134.87 84,-134.87 116.83,-134.87 143.5,-137.91 143.5,-141.65 143.5,-141.65 143.5,-202.6 143.5,-202.6"/>
<path fill="none" stroke="#bf8a30" d="M143.5,-202.6C143.5,-198.87 116.83,-195.83 84,-195.83 51.17,-195.83 24.5,-198.87 24.5,-202.6"/>
<text text-anchor="middle" x="84" y="-175.12" font-family="Helvetica,sans-Serif" font-size="10.00">SERVICE HANA CLOUD</text>
<text text-anchor="middle" x="84" y="-152.12" font-family="Helvetica,sans-Serif" font-size="10.00">cap&#45;service&#45;db</text>
</g>
<!-- cap&#45;service&#45;srv&#45;&gt;cap&#45;service&#45;db -->
<g id="edge4" class="edge">
<title>cap&#45;service&#45;srv&#45;&gt;cap&#45;service&#45;db</title>
<path fill="none" stroke="#bf8a30" stroke-width="0.7" d="M190.06,-280.13C169.55,-259.44 146.38,-236.06 126.94,-216.45"/>
<polygon fill="#bf8a30" stroke="#bf8a30" stroke-width="0.7" points="129.21,-213.77 119.68,-209.13 124.24,-218.69 129.21,-213.77"/>
<text text-anchor="middle" x="184" y="-235.75" font-family="Helvetica,sans-Serif" font-size="10.00" fill="#bf8a30">read/write</text>
</g>
<!-- managed&#45;fiori&#45;uaa -->
<g id="node7" class="node">
<title>managed&#45;fiori&#45;uaa</title>
<path fill="#488791" stroke="#407780" d="M264.5,-136.12C264.5,-136.12 393.5,-136.12 393.5,-136.12 399.5,-136.12 405.5,-142.12 405.5,-148.12 405.5,-148.12 405.5,-196.12 405.5,-196.12 405.5,-202.12 399.5,-208.12 393.5,-208.12 393.5,-208.12 264.5,-208.12 264.5,-208.12 258.5,-208.12 252.5,-202.12 252.5,-196.12 252.5,-196.12 252.5,-148.12 252.5,-148.12 252.5,-142.12 258.5,-136.12 264.5,-136.12"/>
<text text-anchor="middle" x="329" y="-175.12" font-family="Helvetica,sans-Serif" font-size="10.00">👤 USER PROVIDED SERVICE</text>
<text text-anchor="middle" x="329" y="-152.12" font-family="Helvetica,sans-Serif" font-size="10.00">managed&#45;fiori&#45;uaa</text>
</g>
<!-- cap&#45;service&#45;srv&#45;&gt;managed&#45;fiori&#45;uaa -->
<g id="edge5" class="edge">
<title>cap&#45;service&#45;srv&#45;&gt;managed&#45;fiori&#45;uaa</title>
<path fill="none" stroke="black" stroke-width="0.7" stroke-dasharray="5,2" d="M316.49,-290.42C330.03,-278.87 342.31,-265.1 350,-249.25 354.72,-239.53 354.54,-228.58 352.03,-218.08"/>
<polygon fill="black" stroke="black" stroke-width="0.7" points="355.28,-216.73 349,-208.2 348.59,-218.79 355.28,-216.73"/>
<text text-anchor="middle" x="362" y="-235.75" font-family="Helvetica,sans-Serif" font-size="10.00">use</text>
</g>
<!-- srv&#45;api&#45;&gt;srv&#45;api:srv&#45;url -->
<g id="edge8" class="edge">
<title>srv&#45;api&#45;&gt;srv&#45;api:srv&#45;url</title>
<path fill="none" stroke="grey" stroke-width="0.7" d="M228.97,-136.05C233.37,-132.55 238.08,-129.4 243,-127 273.22,-112.25 285.95,-127.18 318,-117 328.04,-113.81 329.29,-110.1 339,-106 356.83,-98.47 398.74,-84.8 435.46,-73.23"/>
<polygon fill="grey" stroke="grey" stroke-width="0.7" points="436.67,-76.52 445.16,-70.18 434.57,-69.84 436.67,-76.52"/>
<text text-anchor="middle" x="388.5" y="-109" font-family="Helvetica,sans-Serif" font-size="10.00" fill="grey">define MTA property</text>
</g>
<!-- srv&#45;api&#45;&gt;srv&#45;api:srv&#45;url&#45;backup -->
<g id="edge9" class="edge">
<title>srv&#45;api&#45;&gt;srv&#45;api:srv&#45;url&#45;backup</title>
<path fill="none" stroke="grey" stroke-width="0.7" d="M204.02,-135.8C207.15,-125.34 211.87,-114.44 219,-106 228.68,-94.55 241.47,-85.25 254.71,-77.83"/>
<polygon fill="grey" stroke="grey" stroke-width="0.7" points="256.69,-80.74 263.91,-72.99 253.43,-74.55 256.69,-80.74"/>
<text text-anchor="middle" x="268.5" y="-109" font-family="Helvetica,sans-Serif" font-size="10.00" fill="grey">define MTA property</text>
</g>
<!-- cap&#45;service&#45;db:hdi&#45;service&#45;name -->
<g id="node9" class="node">
<title>cap&#45;service&#45;db:hdi&#45;service&#45;name</title>
<polygon fill="#ffffe6" stroke="#737c80" points="142.5,-88 19.5,-88 19.5,-16 148.5,-16 148.5,-82 142.5,-88"/>
<polyline fill="none" stroke="#737c80" points="142.5,-88 142.5,-82 "/>
<polyline fill="none" stroke="#737c80" points="148.5,-82 142.5,-82 "/>
<text text-anchor="middle" x="84" y="-55" font-family="Helvetica,sans-Serif" font-size="10.00">Name: hdi&#45;service&#45;name</text>
<text text-anchor="middle" x="84" y="-32" font-family="Helvetica,sans-Serif" font-size="10.00">Value: ${service&#45;name}</text>
</g>
<!-- cap&#45;service&#45;db&#45;&gt;cap&#45;service&#45;db:hdi&#45;service&#45;name -->
<g id="edge7" class="edge">
<title>cap&#45;service&#45;db&#45;&gt;cap&#45;service&#45;db:hdi&#45;service&#45;name</title>
<path fill="none" stroke="grey" stroke-width="0.7" d="M84,-134.72C84,-123.29 84,-110.53 84,-98.55"/>
<polygon fill="grey" stroke="grey" stroke-width="0.7" points="87.5,-98.27 84,-88.27 80.5,-98.27 87.5,-98.27"/>
<text text-anchor="middle" x="133.5" y="-109" font-family="Helvetica,sans-Serif" font-size="10.00" fill="grey">define MTA property</text>
</g>
<!-- cap&#45;service&#45;db&#45;deployer -->
<g id="node8" class="node">
<title>cap&#45;service&#45;db&#45;deployer</title>
<polygon fill="#bfb9ac" stroke="#737c80" points="151.5,-370.55 28.5,-370.55 24.5,-366.55 24.5,-298.55 147.5,-298.55 151.5,-302.55 151.5,-370.55"/>
<polyline fill="none" stroke="#737c80" points="147.5,-366.55 24.5,-366.55 "/>
<polyline fill="none" stroke="#737c80" points="147.5,-366.55 147.5,-298.55 "/>
<polyline fill="none" stroke="#737c80" points="147.5,-366.55 151.5,-370.55 "/>
<text text-anchor="middle" x="88" y="-337.55" font-family="Helvetica,sans-Serif" font-size="10.00">DB DEPLOYER</text>
<text text-anchor="middle" x="88" y="-314.55" font-family="Helvetica,sans-Serif" font-size="10.00">cap&#45;service&#45;db&#45;deployer</text>
</g>
<!-- cap&#45;service&#45;db&#45;deployer&#45;&gt;cap&#45;service&#45;db -->
<g id="edge6" class="edge">
<title>cap&#45;service&#45;db&#45;deployer&#45;&gt;cap&#45;service&#45;db</title>
<path fill="none" stroke="#bf8a30" stroke-width="0.7" d="M66.34,-298.41C56.29,-277.84 47.79,-251.26 54,-227.25 54.73,-224.42 55.65,-221.58 56.7,-218.77"/>
<polygon fill="#bf8a30" stroke="#bf8a30" stroke-width="0.7" points="60.01,-219.92 60.72,-209.35 53.57,-217.17 60.01,-219.92"/>
<text text-anchor="middle" x="93.5" y="-235.75" font-family="Helvetica,sans-Serif" font-size="10.00" fill="#bf8a30">deploy tables to</text>
</g>
</g>
</svg>
