<?xml version="1.0" encoding="UTF-8" standalone="no"?>
<!DOCTYPE svg PUBLIC "-//W3C//DTD SVG 1.1//EN"
 "http://www.w3.org/Graphics/SVG/1.1/DTD/svg11.dtd">
<!-- Generated by graphviz version 2.43.0 (0)
 -->
<!-- Title: MTA Pages: 1 -->
<svg width="1856pt" height="520pt"
 viewBox="0.00 0.00 1856.00 520.23" xmlns="http://www.w3.org/2000/svg" xmlns:xlink="http://www.w3.org/1999/xlink">
<g id="graph0" class="graph" transform="scale(1 1) rotate(0) translate(4 516.23)">
<title>MTA</title>
<polygon fill="#e6cfd4" stroke="#000000" points="-4,4 -4,-516.23 1852,-516.23 1852,4 -4,4"/>
<g id="clust1" class="cluster">
<title>cluster_MTA_MAIN</title>
<polygon fill="white" stroke="black" points="8,-8 8,-504.23 1840,-504.23 1840,-8 8,-8"/>
<text text-anchor="middle" x="322.5" y="-489.03" font-family="Helvetica,sans-Serif" font-size="14.00">MTA ID: SOLUTIONS&#45;PORTAL [1.0.67&#45;33c817ab048257a52d41ac0bd5448080adf1d7b0]</text>
</g>
<g id="clust2" class="cluster">
<title>cluster_CAP_SERVICE</title>
<polygon fill="#e6dbcf" stroke="black" stroke-dasharray="1,5" points="1173,-151 1173,-473.23 1832,-473.23 1832,-151 1173,-151"/>
<text text-anchor="middle" x="1220.5" y="-459.63" font-family="Helvetica,sans-Serif" font-size="12.00">CAP SERVICE</text>
</g>
<g id="clust3" class="cluster">
<title>cluster_APP_ROUTER</title>
<polygon fill="#e6dbcf" stroke="black" stroke-dasharray="1,5" points="505,-151.62 505,-441.93 1003,-441.93 1003,-151.62 505,-151.62"/>
<text text-anchor="middle" x="552" y="-428.33" font-family="Helvetica,sans-Serif" font-size="12.00">APP ROUTER</text>
</g>
<g id="clust4" class="cluster">
<title>cluster_HTML5_APPS</title>
<polygon fill="#e6dbcf" stroke="black" stroke-dasharray="1,5" points="16,-16 16,-261.62 497,-261.62 497,-16 16,-16"/>
<text text-anchor="middle" x="62" y="-248.03" font-family="Helvetica,sans-Serif" font-size="12.00">HTML5 APPS</text>
</g>
<!-- cap&#45;services -->
<g id="node1" class="node">
<title>cap&#45;services</title>
<path fill="#bfb9ac" stroke="#737c80" d="M1659.56,-404.25C1659.56,-404.25 1609.03,-437.44 1609.03,-437.44 1604.02,-440.73 1593.98,-440.73 1588.97,-437.44 1588.97,-437.44 1538.44,-404.25 1538.44,-404.25 1533.42,-400.95 1528.41,-391.66 1528.42,-385.66 1528.42,-385.66 1528.46,-334.64 1528.46,-334.64 1528.47,-328.64 1534.47,-322.64 1540.47,-322.64 1540.47,-322.64 1657.53,-322.64 1657.53,-322.64 1663.53,-322.64 1669.53,-328.64 1669.54,-334.64 1669.54,-334.64 1669.58,-385.66 1669.58,-385.66 1669.59,-391.66 1664.58,-400.95 1659.56,-404.25"/>
<text text-anchor="middle" x="1599" y="-391.43" font-family="Helvetica,sans-Serif" font-size="10.00">CAP</text>
<text text-anchor="middle" x="1599" y="-368.43" font-family="Helvetica,sans-Serif" font-size="10.00">cap&#45;services</text>
<text text-anchor="middle" x="1599" y="-345.43" font-family="Helvetica,sans-Serif" font-size="10.00">Memory: 256M</text>
</g>
<!-- cap&#45;services&#45;api -->
<g id="node2" class="node">
<title>cap&#45;services&#45;api</title>
<polygon fill="#ffffcc" stroke="#737c80" points="1732.5,-232.12 1649.5,-232.12 1649.5,-160.12 1738.5,-160.12 1738.5,-226.12 1732.5,-232.12"/>
<polyline fill="none" stroke="#737c80" points="1732.5,-232.12 1732.5,-226.12 "/>
<polyline fill="none" stroke="#737c80" points="1738.5,-226.12 1732.5,-226.12 "/>
<text text-anchor="middle" x="1694" y="-193.62" font-family="Helvetica,sans-Serif" font-size="10.00">cap&#45;services&#45;api</text>
</g>
<!-- cap&#45;services&#45;&gt;cap&#45;services&#45;api -->
<g id="edge1" class="edge">
<title>cap&#45;services&#45;&gt;cap&#45;services&#45;api</title>
<path fill="none" stroke="black" stroke-width="0.7" d="M1641.84,-322.62C1648.79,-312.65 1655.49,-302.07 1661,-291.62 1669.19,-276.09 1676.05,-258.1 1681.36,-242.01"/>
<polygon fill="black" stroke="black" stroke-width="0.7" points="1684.76,-242.87 1684.47,-232.28 1678.09,-240.74 1684.76,-242.87"/>
<text text-anchor="middle" x="1733" y="-278.12" font-family="Helvetica,sans-Serif" font-size="10.00">define MTA Properties Set</text>
</g>
<!-- cap&#45;template&#45;uaa -->
<g id="node3" class="node">
<title>cap&#45;template&#45;uaa</title>
<path fill="#488791" stroke="#40806e" d="M1192.5,-160.12C1192.5,-160.12 1275.5,-160.12 1275.5,-160.12 1281.5,-160.12 1287.5,-166.12 1287.5,-172.12 1287.5,-172.12 1287.5,-220.12 1287.5,-220.12 1287.5,-226.12 1281.5,-232.12 1275.5,-232.12 1275.5,-232.12 1192.5,-232.12 1192.5,-232.12 1186.5,-232.12 1180.5,-226.12 1180.5,-220.12 1180.5,-220.12 1180.5,-172.12 1180.5,-172.12 1180.5,-166.12 1186.5,-160.12 1192.5,-160.12"/>
<text text-anchor="middle" x="1234" y="-199.12" font-family="Helvetica,sans-Serif" font-size="10.00">🔑 SERVICE XSUAA</text>
<text text-anchor="middle" x="1234" y="-176.12" font-family="Helvetica,sans-Serif" font-size="10.00">cap&#45;template&#45;uaa</text>
</g>
<!-- cap&#45;services&#45;&gt;cap&#45;template&#45;uaa -->
<g id="edge2" class="edge">
<title>cap&#45;services&#45;&gt;cap&#45;template&#45;uaa</title>
<path fill="none" stroke="#40806e" stroke-width="0.7" d="M1528.23,-338.8C1505.41,-325.34 1480.69,-309.12 1460,-291.62 1450.13,-283.28 1452.59,-275.33 1441,-269.62 1412.24,-255.48 1326.18,-274.88 1297,-261.62 1285.75,-256.52 1275.46,-248.43 1266.59,-239.69"/>
<polygon fill="#40806e" stroke="#40806e" stroke-width="0.7" points="1268.92,-237.06 1259.49,-232.24 1263.85,-241.89 1268.92,-237.06"/>
<text text-anchor="middle" x="1504" y="-278.12" font-family="Helvetica,sans-Serif" font-size="10.00" fill="#40806e">use xsuaa service</text>
</g>
<!-- cap&#45;template&#45;hanadb -->
<g id="node4" class="node">
<title>cap&#45;template&#45;hanadb</title>
<path fill="#e6bb73" stroke="#bf8a30" d="M1607.5,-226.6C1607.5,-230.34 1580.83,-233.38 1548,-233.38 1515.17,-233.38 1488.5,-230.34 1488.5,-226.6 1488.5,-226.6 1488.5,-165.65 1488.5,-165.65 1488.5,-161.91 1515.17,-158.87 1548,-158.87 1580.83,-158.87 1607.5,-161.91 1607.5,-165.65 1607.5,-165.65 1607.5,-226.6 1607.5,-226.6"/>
<path fill="none" stroke="#bf8a30" d="M1607.5,-226.6C1607.5,-222.87 1580.83,-219.83 1548,-219.83 1515.17,-219.83 1488.5,-222.87 1488.5,-226.6"/>
<text text-anchor="middle" x="1548" y="-199.12" font-family="Helvetica,sans-Serif" font-size="10.00">SERVICE HANA CLOUD</text>
<text text-anchor="middle" x="1548" y="-176.12" font-family="Helvetica,sans-Serif" font-size="10.00">cap&#45;template&#45;hanadb</text>
</g>
<!-- cap&#45;services&#45;&gt;cap&#45;template&#45;hanadb -->
<g id="edge3" class="edge">
<title>cap&#45;services&#45;&gt;cap&#45;template&#45;hanadb</title>
<path fill="none" stroke="#bf8a30" stroke-width="0.7" d="M1608.39,-322.41C1609.49,-305.18 1608.59,-286.25 1603,-269.62 1599.75,-259.97 1594.65,-250.57 1588.83,-241.92"/>
<polygon fill="#bf8a30" stroke="#bf8a30" stroke-width="0.7" points="1591.49,-239.63 1582.82,-233.54 1585.8,-243.71 1591.49,-239.63"/>
<text text-anchor="middle" x="1632" y="-278.12" font-family="Helvetica,sans-Serif" font-size="10.00" fill="#bf8a30">read/write</text>
</g>
<!-- cap&#45;application&#45;logging -->
<g id="node5" class="node">
<title>cap&#45;application&#45;logging</title>
<path fill="#488791" stroke="#815d72" d="M1318,-160.12C1318,-160.12 1454,-160.12 1454,-160.12 1460,-160.12 1466,-166.12 1466,-172.12 1466,-172.12 1466,-220.12 1466,-220.12 1466,-226.12 1460,-232.12 1454,-232.12 1454,-232.12 1318,-232.12 1318,-232.12 1312,-232.12 1306,-226.12 1306,-220.12 1306,-220.12 1306,-172.12 1306,-172.12 1306,-166.12 1312,-160.12 1318,-160.12"/>
<text text-anchor="middle" x="1386" y="-199.12" font-family="Helvetica,sans-Serif" font-size="10.00">📃 SERVICE APPLICATION LOG</text>
<text text-anchor="middle" x="1386" y="-176.12" font-family="Helvetica,sans-Serif" font-size="10.00">cap&#45;application&#45;logging</text>
</g>
<!-- cap&#45;services&#45;&gt;cap&#45;application&#45;logging -->
<g id="edge4" class="edge">
<title>cap&#45;services&#45;&gt;cap&#45;application&#45;logging</title>
<path fill="none" stroke="#815d72" stroke-width="0.7" d="M1581.01,-322.4C1572.25,-299.6 1561.56,-276.63 1552,-269.62 1539.02,-260.11 1495.09,-267.24 1480,-261.62 1464.79,-255.97 1449.68,-247.32 1436.17,-238.18"/>
<polygon fill="#815d72" stroke="#815d72" stroke-width="0.7" points="1438.18,-235.31 1427.98,-232.44 1434.16,-241.04 1438.18,-235.31"/>
<text text-anchor="middle" x="1581" y="-278.12" font-family="Helvetica,sans-Serif" font-size="10.00" fill="#815d72">log to</text>
</g>
<!-- cap&#45;services&#45;api:srv_api -->
<g id="node20" class="node">
<title>cap&#45;services&#45;api:srv_api</title>
<polygon fill="#ffffe6" stroke="#737c80" points="1237.5,-98.5 1132.5,-98.5 1132.5,-26.5 1243.5,-26.5 1243.5,-92.5 1237.5,-98.5"/>
<polyline fill="none" stroke="#737c80" points="1237.5,-98.5 1237.5,-92.5 "/>
<polyline fill="none" stroke="#737c80" points="1243.5,-92.5 1237.5,-92.5 "/>
<text text-anchor="middle" x="1188" y="-65.5" font-family="Helvetica,sans-Serif" font-size="10.00">Name: srv_api</text>
<text text-anchor="middle" x="1188" y="-42.5" font-family="Helvetica,sans-Serif" font-size="10.00">Value: ${default&#45;url}</text>
</g>
<!-- cap&#45;services&#45;api&#45;&gt;cap&#45;services&#45;api:srv_api -->
<g id="edge23" class="edge">
<title>cap&#45;services&#45;api&#45;&gt;cap&#45;services&#45;api:srv_api</title>
<path fill="none" stroke="grey" stroke-width="0.7" d="M1682.53,-159.98C1675.77,-144.89 1665.61,-128.56 1651,-119 1618.1,-97.48 1514.05,-105.55 1475,-101 1399.07,-92.16 1312.05,-80.58 1253.92,-72.65"/>
<polygon fill="grey" stroke="grey" stroke-width="0.7" points="1254.15,-69.15 1243.77,-71.26 1253.2,-76.08 1254.15,-69.15"/>
<text text-anchor="middle" x="1721.5" y="-127.5" font-family="Helvetica,sans-Serif" font-size="10.00" fill="grey">define MTA property</text>
</g>
<!-- cap&#45;template&#45;hanadb:hdi&#45;service&#45;name -->
<g id="node18" class="node">
<title>cap&#45;template&#45;hanadb:hdi&#45;service&#45;name</title>
<polygon fill="#ffffe6" stroke="#737c80" points="1606.5,-98.5 1483.5,-98.5 1483.5,-26.5 1612.5,-26.5 1612.5,-92.5 1606.5,-98.5"/>
<polyline fill="none" stroke="#737c80" points="1606.5,-98.5 1606.5,-92.5 "/>
<polyline fill="none" stroke="#737c80" points="1612.5,-92.5 1606.5,-92.5 "/>
<text text-anchor="middle" x="1548" y="-65.5" font-family="Helvetica,sans-Serif" font-size="10.00">Name: hdi&#45;service&#45;name</text>
<text text-anchor="middle" x="1548" y="-42.5" font-family="Helvetica,sans-Serif" font-size="10.00">Value: ${service&#45;name}</text>
</g>
<!-- cap&#45;template&#45;hanadb&#45;&gt;cap&#45;template&#45;hanadb:hdi&#45;service&#45;name -->
<g id="edge17" class="edge">
<title>cap&#45;template&#45;hanadb&#45;&gt;cap&#45;template&#45;hanadb:hdi&#45;service&#45;name</title>
<path fill="none" stroke="grey" stroke-width="0.7" d="M1548,-158.81C1548,-143.45 1548,-125.4 1548,-109.15"/>
<polygon fill="grey" stroke="grey" stroke-width="0.7" points="1551.5,-108.79 1548,-98.79 1544.5,-108.79 1551.5,-108.79"/>
<text text-anchor="middle" x="1597.5" y="-127.5" font-family="Helvetica,sans-Serif" font-size="10.00" fill="grey">define MTA property</text>
</g>
<!-- cap&#45;template&#45;hanadb&#45;deployer -->
<g id="node6" class="node">
<title>cap&#45;template&#45;hanadb&#45;deployer</title>
<polygon fill="#bfb9ac" stroke="#737c80" points="1390,-412.93 1234,-412.93 1230,-408.93 1230,-340.93 1386,-340.93 1390,-344.93 1390,-412.93"/>
<polyline fill="none" stroke="#737c80" points="1386,-408.93 1230,-408.93 "/>
<polyline fill="none" stroke="#737c80" points="1386,-408.93 1386,-340.93 "/>
<polyline fill="none" stroke="#737c80" points="1386,-408.93 1390,-412.93 "/>
<text text-anchor="middle" x="1310" y="-379.93" font-family="Helvetica,sans-Serif" font-size="10.00">DB DEPLOYER</text>
<text text-anchor="middle" x="1310" y="-356.93" font-family="Helvetica,sans-Serif" font-size="10.00">cap&#45;template&#45;hanadb&#45;deployer</text>
</g>
<!-- cap&#45;template&#45;hanadb&#45;deployer&#45;&gt;cap&#45;template&#45;uaa -->
<g id="edge18" class="edge">
<title>cap&#45;template&#45;hanadb&#45;deployer&#45;&gt;cap&#45;template&#45;uaa</title>
<path fill="none" stroke="#40806e" stroke-width="0.7" d="M1266.37,-340.65C1253.5,-330.47 1239.29,-319.46 1226,-309.62 1214.7,-301.27 1206.52,-304.07 1200,-291.62 1191.75,-275.87 1195.47,-257.68 1202.93,-241.48"/>
<polygon fill="#40806e" stroke="#40806e" stroke-width="0.7" points="1206.23,-242.7 1207.69,-232.21 1200.01,-239.5 1206.23,-242.7"/>
<text text-anchor="middle" x="1244" y="-278.12" font-family="Helvetica,sans-Serif" font-size="10.00" fill="#40806e">use xsuaa service</text>
</g>
<!-- cap&#45;template&#45;hanadb&#45;deployer&#45;&gt;cap&#45;template&#45;hanadb -->
<g id="edge5" class="edge">
<title>cap&#45;template&#45;hanadb&#45;deployer&#45;&gt;cap&#45;template&#45;hanadb</title>
<path fill="none" stroke="#bf8a30" stroke-width="0.7" d="M1317.44,-340.91C1324.55,-316.64 1337.9,-285.88 1362,-269.62 1382.87,-255.55 1451.79,-271.36 1475,-261.62 1486.94,-256.62 1498.26,-248.84 1508.27,-240.39"/>
<polygon fill="#bf8a30" stroke="#bf8a30" stroke-width="0.7" points="1510.86,-242.78 1516.01,-233.52 1506.21,-237.55 1510.86,-242.78"/>
<text text-anchor="middle" x="1401.5" y="-278.12" font-family="Helvetica,sans-Serif" font-size="10.00" fill="#bf8a30">deploy tables to</text>
</g>
<!-- cap&#45;template&#45;hanadb&#45;deployer&#45;&gt;cap&#45;application&#45;logging -->
<g id="edge19" class="edge">
<title>cap&#45;template&#45;hanadb&#45;deployer&#45;&gt;cap&#45;application&#45;logging</title>
<path fill="none" stroke="#815d72" stroke-width="0.7" d="M1303.65,-340.53C1301.42,-319.15 1301.45,-291.84 1311,-269.62 1315.69,-258.71 1322.91,-248.62 1331.04,-239.66"/>
<polygon fill="#815d72" stroke="#815d72" stroke-width="0.7" points="1333.63,-242.02 1338.06,-232.4 1328.59,-237.16 1333.63,-242.02"/>
<text text-anchor="middle" x="1325" y="-278.12" font-family="Helvetica,sans-Serif" font-size="10.00" fill="#815d72">log to</text>
</g>
<!-- approuter -->
<g id="node7" class="node">
<title>approuter</title>
<polygon fill="#bfb9ac" stroke="#737c80" points="694,-412.93 626,-412.93 622,-408.93 622,-340.93 690,-340.93 694,-344.93 694,-412.93"/>
<polyline fill="none" stroke="#737c80" points="690,-408.93 622,-408.93 "/>
<polyline fill="none" stroke="#737c80" points="690,-408.93 690,-340.93 "/>
<polyline fill="none" stroke="#737c80" points="690,-408.93 694,-412.93 "/>
<text text-anchor="middle" x="658" y="-379.93" font-family="Helvetica,sans-Serif" font-size="10.00">APPROUTER</text>
<text text-anchor="middle" x="658" y="-356.93" font-family="Helvetica,sans-Serif" font-size="10.00">approuter</text>
</g>
<!-- approuter&#45;&gt;cap&#45;template&#45;uaa -->
<g id="edge7" class="edge">
<title>approuter&#45;&gt;cap&#45;template&#45;uaa</title>
<path fill="none" stroke="#40806e" stroke-width="0.7" d="M672.19,-340.66C678.47,-329.14 686.99,-317.33 698,-309.62 732.14,-285.74 753.01,-310.8 790,-291.62 802.56,-285.12 799.93,-275.04 813,-269.62 850.38,-254.15 1140.3,-278.65 1177,-261.62 1187.59,-256.71 1197.02,-248.79 1205.02,-240.15"/>
<polygon fill="#40806e" stroke="#40806e" stroke-width="0.7" points="1207.79,-242.3 1211.67,-232.44 1202.49,-237.73 1207.79,-242.3"/>
<text text-anchor="middle" x="857" y="-278.12" font-family="Helvetica,sans-Serif" font-size="10.00" fill="#40806e">use xsuaa service</text>
</g>
<!-- approuter&#45;&gt;cap&#45;application&#45;logging -->
<g id="edge10" class="edge">
<title>approuter&#45;&gt;cap&#45;application&#45;logging</title>
<path fill="none" stroke="#815d72" stroke-width="0.7" d="M671.38,-340.7C677.66,-328.89 686.37,-316.89 698,-309.62 736.41,-285.64 867.55,-322.15 901,-291.62 908.34,-284.93 897.44,-276.07 905,-269.62 921.58,-255.5 1276.35,-268.55 1297,-261.62 1312.14,-256.55 1326.89,-247.9 1339.89,-238.55"/>
<polygon fill="#815d72" stroke="#815d72" stroke-width="0.7" points="1342.26,-241.14 1348.16,-232.34 1338.06,-235.55 1342.26,-241.14"/>
<text text-anchor="middle" x="919" y="-278.12" font-family="Helvetica,sans-Serif" font-size="10.00" fill="#815d72">log to</text>
</g>
<!-- cap&#45;template&#45;destination -->
<g id="node8" class="node">
<title>cap&#45;template&#45;destination</title>
<polygon fill="#488791" stroke="transparent" points="645,-232.12 513,-232.12 513,-160.12 645,-160.12 645,-232.12"/>
<polyline fill="none" stroke="#407780" points="513,-160.12 645,-160.12 "/>
<text text-anchor="middle" x="579" y="-199.12" font-family="Helvetica,sans-Serif" font-size="10.00">SERVICE DESTINATION</text>
<text text-anchor="middle" x="579" y="-176.12" font-family="Helvetica,sans-Serif" font-size="10.00">cap&#45;template&#45;destination</text>
</g>
<!-- approuter&#45;&gt;cap&#45;template&#45;destination -->
<g id="edge6" class="edge">
<title>approuter&#45;&gt;cap&#45;template&#45;destination</title>
<path fill="none" stroke="black" stroke-width="0.7" stroke-dasharray="5,2" d="M621.93,-341.25C609.39,-327.09 596.58,-309.77 589,-291.62 582.64,-276.39 579.72,-258.62 578.53,-242.64"/>
<polygon fill="black" stroke="black" stroke-width="0.7" points="582.01,-242.23 577.97,-232.43 575.02,-242.6 582.01,-242.23"/>
<text text-anchor="middle" x="598" y="-278.12" font-family="Helvetica,sans-Serif" font-size="10.00">use</text>
</g>
<!-- cap&#45;template&#45;portal -->
<g id="node9" class="node">
<title>cap&#45;template&#45;portal</title>
<path fill="#488791" stroke="#407780" d="M901,-160.12C901,-160.12 983,-160.12 983,-160.12 989,-160.12 995,-166.12 995,-172.12 995,-172.12 995,-220.12 995,-220.12 995,-226.12 989,-232.12 983,-232.12 983,-232.12 901,-232.12 901,-232.12 895,-232.12 889,-226.12 889,-220.12 889,-220.12 889,-172.12 889,-172.12 889,-166.12 895,-160.12 901,-160.12"/>
<text text-anchor="middle" x="942" y="-199.12" font-family="Helvetica,sans-Serif" font-size="10.00">SERVICE PORTAL</text>
<text text-anchor="middle" x="942" y="-176.12" font-family="Helvetica,sans-Serif" font-size="10.00">cap&#45;template&#45;portal</text>
</g>
<!-- approuter&#45;&gt;cap&#45;template&#45;portal -->
<g id="edge8" class="edge">
<title>approuter&#45;&gt;cap&#45;template&#45;portal</title>
<path fill="none" stroke="black" stroke-width="0.7" stroke-dasharray="5,2" d="M673.23,-340.84C679.53,-329.61 687.79,-317.95 698,-309.62 716.64,-294.44 728.52,-304.21 749,-291.62 761.05,-284.22 759.08,-275.37 772,-269.62 815.98,-250.06 836.44,-282.11 880,-261.62 890.98,-256.46 901.03,-248.44 909.7,-239.79"/>
<polygon fill="black" stroke="black" stroke-width="0.7" points="912.33,-242.1 916.65,-232.43 907.24,-237.3 912.33,-242.1"/>
<text text-anchor="middle" x="781" y="-278.12" font-family="Helvetica,sans-Serif" font-size="10.00">use</text>
</g>
<!-- cap&#45;template&#45;theming -->
<g id="node10" class="node">
<title>cap&#45;template&#45;theming</title>
<path fill="#488791" stroke="#407780" d="M675,-160.12C675,-160.12 769,-160.12 769,-160.12 775,-160.12 781,-166.12 781,-172.12 781,-172.12 781,-220.12 781,-220.12 781,-226.12 775,-232.12 769,-232.12 769,-232.12 675,-232.12 675,-232.12 669,-232.12 663,-226.12 663,-220.12 663,-220.12 663,-172.12 663,-172.12 663,-166.12 669,-160.12 675,-160.12"/>
<text text-anchor="middle" x="722" y="-199.12" font-family="Helvetica,sans-Serif" font-size="10.00">SERVICE THEMING</text>
<text text-anchor="middle" x="722" y="-176.12" font-family="Helvetica,sans-Serif" font-size="10.00">cap&#45;template&#45;theming</text>
</g>
<!-- approuter&#45;&gt;cap&#45;template&#45;theming -->
<g id="edge9" class="edge">
<title>approuter&#45;&gt;cap&#45;template&#45;theming</title>
<path fill="none" stroke="black" stroke-width="0.7" stroke-dasharray="5,2" d="M628.14,-340.55C613.2,-318.39 601.47,-290.24 618,-269.62 628.26,-256.84 639.53,-269.32 654,-261.62 664.89,-255.83 675.29,-247.82 684.53,-239.41"/>
<polygon fill="black" stroke="black" stroke-width="0.7" points="687.19,-241.71 692.02,-232.28 682.36,-236.64 687.19,-241.71"/>
<text text-anchor="middle" x="627" y="-278.12" font-family="Helvetica,sans-Serif" font-size="10.00">use</text>
</g>
<!-- destinations -->
<g id="node11" class="node">
<title>destinations</title>
<ellipse fill="#bfb9ac" stroke="#737c80" cx="835" cy="-196.12" rx="36" ry="36"/>
<text text-anchor="middle" x="835" y="-193.62" font-family="Helvetica,sans-Serif" font-size="10.00">destinations</text>
</g>
<!-- approuter&#45;&gt;destinations -->
<g id="edge11" class="edge">
<title>approuter&#45;&gt;destinations</title>
<path fill="none" stroke="black" stroke-width="0.7" d="M647.26,-340.76C642.54,-317.54 641.46,-288.09 659,-269.62 669.04,-259.05 777.28,-268.76 790,-261.62 799.94,-256.05 808.18,-247.25 814.77,-237.93"/>
<polygon fill="black" stroke="black" stroke-width="0.7" points="817.86,-239.59 820.37,-229.3 811.99,-235.79 817.86,-239.59"/>
<text text-anchor="middle" x="704" y="-283.62" font-family="Helvetica,sans-Serif" font-size="10.00">define enviroment</text>
<text text-anchor="middle" x="704" y="-272.62" font-family="Helvetica,sans-Serif" font-size="10.00">variable</text>
</g>
<!-- cap&#45;template&#45;html5&#45;repo&#45;runtime -->
<g id="node12" class="node">
<title>cap&#45;template&#45;html5&#45;repo&#45;runtime</title>
<path fill="#488791" stroke="#407780" d="M327,-160.12C327,-160.12 477,-160.12 477,-160.12 483,-160.12 489,-166.12 489,-172.12 489,-172.12 489,-220.12 489,-220.12 489,-226.12 483,-232.12 477,-232.12 477,-232.12 327,-232.12 327,-232.12 321,-232.12 315,-226.12 315,-220.12 315,-220.12 315,-172.12 315,-172.12 315,-166.12 321,-160.12 327,-160.12"/>
<text text-anchor="middle" x="402" y="-199.12" font-family="Helvetica,sans-Serif" font-size="10.00">SERVICE HTML5 RUNTIME</text>
<text text-anchor="middle" x="402" y="-176.12" font-family="Helvetica,sans-Serif" font-size="10.00">cap&#45;template&#45;html5&#45;repo&#45;runtime</text>
</g>
<!-- approuter&#45;&gt;cap&#45;template&#45;html5&#45;repo&#45;runtime -->
<g id="edge12" class="edge">
<title>approuter&#45;&gt;cap&#45;template&#45;html5&#45;repo&#45;runtime</title>
<path fill="none" stroke="black" stroke-width="0.7" d="M621.99,-361.87C586.94,-347.24 533.1,-322.21 492,-291.62 472.14,-276.84 452.84,-257.47 437.24,-240.11"/>
<polygon fill="black" stroke="black" stroke-width="0.7" points="439.58,-237.47 430.34,-232.3 434.33,-242.11 439.58,-237.47"/>
<text text-anchor="middle" x="535.5" y="-283.62" font-family="Helvetica,sans-Serif" font-size="10.00">route apps to</text>
<text text-anchor="middle" x="535.5" y="-272.62" font-family="Helvetica,sans-Serif" font-size="10.00">HTML5 repository</text>
</g>
<!-- destinations&#45;&gt;cap&#45;services&#45;api:srv_api -->
<g id="edge24" class="edge">
<title>destinations&#45;&gt;cap&#45;services&#45;api:srv_api</title>
<path fill="none" stroke="grey" stroke-width="0.7" d="M858.35,-167.93C864.84,-161.65 872.24,-155.51 880,-151 956.65,-106.48 1057.32,-83.47 1122.34,-72.45"/>
<polygon fill="grey" stroke="grey" stroke-width="0.7" points="1123.17,-75.86 1132.46,-70.78 1122.03,-68.96 1123.17,-75.86"/>
<text text-anchor="middle" x="986" y="-127.5" font-family="Helvetica,sans-Serif" font-size="10.00" fill="grey">use MTA property</text>
</g>
<!-- cap&#45;template&#45;html&#45;deployer -->
<g id="node13" class="node">
<title>cap&#45;template&#45;html&#45;deployer</title>
<polygon fill="#bfb9ac" stroke="#737c80" points="271.5,-232.12 128.5,-232.12 124.5,-228.12 124.5,-160.12 267.5,-160.12 271.5,-164.12 271.5,-232.12"/>
<polyline fill="none" stroke="#737c80" points="267.5,-228.12 124.5,-228.12 "/>
<polyline fill="none" stroke="#737c80" points="267.5,-228.12 267.5,-160.12 "/>
<polyline fill="none" stroke="#737c80" points="267.5,-228.12 271.5,-232.12 "/>
<text text-anchor="middle" x="198" y="-199.12" font-family="Helvetica,sans-Serif" font-size="10.00">APPS DEPLOYER</text>
<text text-anchor="middle" x="198" y="-176.12" font-family="Helvetica,sans-Serif" font-size="10.00">cap&#45;template&#45;html&#45;deployer</text>
</g>
<!-- cap&#45;template&#45;html5&#45;repo&#45;host -->
<g id="node14" class="node">
<title>cap&#45;template&#45;html5&#45;repo&#45;host</title>
<polygon fill="#488791" stroke="#407780" points="489,-101 486,-105 465,-105 462,-101 333,-101 333,-24 489,-24 489,-101"/>
<text text-anchor="middle" x="411" y="-77" font-family="Helvetica,sans-Serif" font-size="10.00">SERVICE HTML5 REPOSITORY</text>
<text text-anchor="middle" x="411" y="-54" font-family="Helvetica,sans-Serif" font-size="10.00">cap&#45;template&#45;html5&#45;repo&#45;host</text>
<text text-anchor="middle" x="411" y="-31" font-family="Helvetica,sans-Serif" font-size="10.00">Size: 1 MB</text>
</g>
<!-- cap&#45;template&#45;html&#45;deployer&#45;&gt;cap&#45;template&#45;html5&#45;repo&#45;host -->
<g id="edge13" class="edge">
<title>cap&#45;template&#45;html&#45;deployer&#45;&gt;cap&#45;template&#45;html5&#45;repo&#45;host</title>
<path fill="none" stroke="black" stroke-width="0.7" d="M271.68,-160.8C283.69,-154.56 295.84,-147.85 307,-141 323.43,-130.91 340.51,-118.9 355.96,-107.38"/>
<polygon fill="black" stroke="black" stroke-width="0.7" points="358.49,-109.86 364.36,-101.04 354.27,-104.27 358.49,-109.86"/>
<text text-anchor="middle" x="383.5" y="-133" font-family="Helvetica,sans-Serif" font-size="10.00">deploy apps to</text>
<text text-anchor="middle" x="383.5" y="-122" font-family="Helvetica,sans-Serif" font-size="10.00">HTML5 repository</text>
</g>
<!-- ui_datacenters -->
<g id="node15" class="node">
<title>ui_datacenters</title>
<path fill="#b0ac89" stroke="#8b875d" d="M93.5,-98.5C93.5,-98.5 36.5,-98.5 36.5,-98.5 30.5,-98.5 24.5,-92.5 24.5,-86.5 24.5,-86.5 24.5,-38.5 24.5,-38.5 24.5,-32.5 30.5,-26.5 36.5,-26.5 36.5,-26.5 93.5,-26.5 93.5,-26.5 99.5,-26.5 105.5,-32.5 105.5,-38.5 105.5,-38.5 105.5,-86.5 105.5,-86.5 105.5,-92.5 99.5,-98.5 93.5,-98.5"/>
<text text-anchor="middle" x="65" y="-65.5" font-family="Helvetica,sans-Serif" font-size="10.00">APP HTML5</text>
<text text-anchor="middle" x="65" y="-42.5" font-family="Helvetica,sans-Serif" font-size="10.00">ui_datacenters</text>
</g>
<!-- cap&#45;template&#45;html&#45;deployer&#45;&gt;ui_datacenters -->
<g id="edge14" class="edge">
<title>cap&#45;template&#45;html&#45;deployer&#45;&gt;ui_datacenters</title>
<path fill="none" stroke="#8b875d" stroke-width="0.7" d="M146.66,-159.87C139.11,-153.9 131.65,-147.51 125,-141 114.53,-130.75 104.32,-118.63 95.37,-107.05"/>
<polygon fill="#8b875d" stroke="#8b875d" stroke-width="0.7" points="97.92,-104.62 89.1,-98.75 92.34,-108.84 97.92,-104.62"/>
<text text-anchor="middle" x="151" y="-127.5" font-family="Helvetica,sans-Serif" font-size="10.00" fill="#8b875d">deployApp</text>
</g>
<!-- ui_accessrights -->
<g id="node16" class="node">
<title>ui_accessrights</title>
<path fill="#b0ac89" stroke="#8b875d" d="M196,-98.5C196,-98.5 136,-98.5 136,-98.5 130,-98.5 124,-92.5 124,-86.5 124,-86.5 124,-38.5 124,-38.5 124,-32.5 130,-26.5 136,-26.5 136,-26.5 196,-26.5 196,-26.5 202,-26.5 208,-32.5 208,-38.5 208,-38.5 208,-86.5 208,-86.5 208,-92.5 202,-98.5 196,-98.5"/>
<text text-anchor="middle" x="166" y="-65.5" font-family="Helvetica,sans-Serif" font-size="10.00">APP HTML5</text>
<text text-anchor="middle" x="166" y="-42.5" font-family="Helvetica,sans-Serif" font-size="10.00">ui_accessrights</text>
</g>
<!-- cap&#45;template&#45;html&#45;deployer&#45;&gt;ui_accessrights -->
<g id="edge15" class="edge">
<title>cap&#45;template&#45;html&#45;deployer&#45;&gt;ui_accessrights</title>
<path fill="none" stroke="#8b875d" stroke-width="0.7" d="M189.42,-159.85C185.62,-144.21 181.1,-125.62 177.05,-108.95"/>
<polygon fill="#8b875d" stroke="#8b875d" stroke-width="0.7" points="180.36,-107.76 174.6,-98.87 173.56,-109.41 180.36,-107.76"/>
<text text-anchor="middle" x="210" y="-127.5" font-family="Helvetica,sans-Serif" font-size="10.00" fill="#8b875d">deployApp</text>
</g>
<!-- ui_poweronrules -->
<g id="node17" class="node">
<title>ui_poweronrules</title>
<path fill="#b0ac89" stroke="#8b875d" d="M302.5,-98.5C302.5,-98.5 237.5,-98.5 237.5,-98.5 231.5,-98.5 225.5,-92.5 225.5,-86.5 225.5,-86.5 225.5,-38.5 225.5,-38.5 225.5,-32.5 231.5,-26.5 237.5,-26.5 237.5,-26.5 302.5,-26.5 302.5,-26.5 308.5,-26.5 314.5,-32.5 314.5,-38.5 314.5,-38.5 314.5,-86.5 314.5,-86.5 314.5,-92.5 308.5,-98.5 302.5,-98.5"/>
<text text-anchor="middle" x="270" y="-65.5" font-family="Helvetica,sans-Serif" font-size="10.00">APP HTML5</text>
<text text-anchor="middle" x="270" y="-42.5" font-family="Helvetica,sans-Serif" font-size="10.00">ui_poweronrules</text>
</g>
<!-- cap&#45;template&#45;html&#45;deployer&#45;&gt;ui_poweronrules -->
<g id="edge16" class="edge">
<title>cap&#45;template&#45;html&#45;deployer&#45;&gt;ui_poweronrules</title>
<path fill="none" stroke="#8b875d" stroke-width="0.7" d="M227.55,-160.05C232.04,-153.9 236.37,-147.42 240,-141 245.77,-130.8 250.89,-119.27 255.21,-108.29"/>
<polygon fill="#8b875d" stroke="#8b875d" stroke-width="0.7" points="258.52,-109.41 258.78,-98.82 251.98,-106.94 258.52,-109.41"/>
<text text-anchor="middle" x="277" y="-127.5" font-family="Helvetica,sans-Serif" font-size="10.00" fill="#8b875d">deployApp</text>
</g>
<!-- cap&#45;template&#45;portal&#45;deployer -->
<g id="node19" class="node">
<title>cap&#45;template&#45;portal&#45;deployer</title>
<polygon fill="#bfb9ac" stroke="#737c80" points="1164.5,-412.93 1015.5,-412.93 1011.5,-408.93 1011.5,-340.93 1160.5,-340.93 1164.5,-344.93 1164.5,-412.93"/>
<polyline fill="none" stroke="#737c80" points="1160.5,-408.93 1011.5,-408.93 "/>
<polyline fill="none" stroke="#737c80" points="1160.5,-408.93 1160.5,-340.93 "/>
<polyline fill="none" stroke="#737c80" points="1160.5,-408.93 1164.5,-412.93 "/>
<text text-anchor="middle" x="1088" y="-379.93" font-family="Helvetica,sans-Serif" font-size="10.00">PORTAL DEPLOYER</text>
<text text-anchor="middle" x="1088" y="-356.93" font-family="Helvetica,sans-Serif" font-size="10.00">cap&#45;template&#45;portal&#45;deployer</text>
</g>
<!-- cap&#45;template&#45;portal&#45;deployer&#45;&gt;cap&#45;template&#45;uaa -->
<g id="edge22" class="edge">
<title>cap&#45;template&#45;portal&#45;deployer&#45;&gt;cap&#45;template&#45;uaa</title>
<path fill="none" stroke="#40806e" stroke-width="0.7" d="M1082.87,-340.9C1081.56,-317.43 1084.39,-287.64 1103,-269.62 1114.88,-258.12 1162.31,-269.22 1177,-261.62 1187.27,-256.31 1196.53,-248.33 1204.46,-239.76"/>
<polygon fill="#40806e" stroke="#40806e" stroke-width="0.7" points="1207.17,-241.98 1211.08,-232.14 1201.88,-237.39 1207.17,-241.98"/>
<text text-anchor="middle" x="1147" y="-278.12" font-family="Helvetica,sans-Serif" font-size="10.00" fill="#40806e">use xsuaa service</text>
</g>
<!-- cap&#45;template&#45;portal&#45;deployer&#45;&gt;cap&#45;template&#45;portal -->
<g id="edge20" class="edge">
<title>cap&#45;template&#45;portal&#45;deployer&#45;&gt;cap&#45;template&#45;portal</title>
<path fill="none" stroke="black" stroke-width="0.7" d="M1047.86,-340.77C1035.15,-330.27 1020.81,-319.05 1007,-309.62 993.52,-300.42 985.48,-304.14 975,-291.62 963.25,-277.59 955.58,-259.11 950.62,-242.21"/>
<polygon fill="black" stroke="black" stroke-width="0.7" points="953.99,-241.24 948.01,-232.5 947.23,-243.06 953.99,-241.24"/>
<text text-anchor="middle" x="1017" y="-278.12" font-family="Helvetica,sans-Serif" font-size="10.00">publish apps into</text>
</g>
<!-- cap&#45;template&#45;portal&#45;deployer&#45;&gt;cap&#45;template&#45;html5&#45;repo&#45;host -->
<g id="edge21" class="edge">
<title>cap&#45;template&#45;portal&#45;deployer&#45;&gt;cap&#45;template&#45;html5&#45;repo&#45;host</title>
<path fill="none" stroke="black" stroke-width="0.7" d="M1085.68,-340.8C1080.69,-277.23 1066.54,-147.06 1033,-119 1011.33,-100.87 577.78,-107.02 499.61,-101.3"/>
<polygon fill="black" stroke="black" stroke-width="0.7" points="499.67,-97.78 489.33,-100.08 498.85,-104.73 499.67,-97.78"/>
<text text-anchor="middle" x="1120.5" y="-199.12" font-family="Helvetica,sans-Serif" font-size="10.00">use apps from</text>
<text text-anchor="middle" x="1120.5" y="-188.12" font-family="Helvetica,sans-Serif" font-size="10.00">HTML5 repository</text>
</g>
</g>
</svg>
