<?xml version="1.0" encoding="UTF-8" standalone="no"?>
<!DOCTYPE svg PUBLIC "-//W3C//DTD SVG 1.1//EN"
 "http://www.w3.org/Graphics/SVG/1.1/DTD/svg11.dtd">
<!-- Generated by graphviz version 2.43.0 (0)
 -->
<!-- Title: MTA Pages: 1 -->
<svg width="1330pt" height="572pt"
 viewBox="0.00 0.00 1330.00 572.00" xmlns="http://www.w3.org/2000/svg" xmlns:xlink="http://www.w3.org/1999/xlink">
<g id="graph0" class="graph" transform="scale(1 1) rotate(0) translate(4 568)">
<title>MTA</title>
<polygon fill="#e6cfd4" stroke="#000000" points="-4,4 -4,-568 1326,-568 1326,4 -4,4"/>
<g id="clust1" class="cluster">
<title>cluster_MTA_MAIN</title>
<polygon fill="white" stroke="black" points="8,-8 8,-556 1275,-556 1275,-8 8,-8"/>
<text text-anchor="middle" x="211.5" y="-540.8" font-family="Helvetica,sans-Serif" font-size="14.00">MTA ID: DOCUMENTCENTRICAPPROVALPROCESS [0.0.5]</text>
</g>
<g id="clust2" class="cluster">
<title>cluster_DESTINATIONS</title>
<polygon fill="#e6dbcf" stroke="black" stroke-dasharray="1,5" points="472,-16 472,-525 1267,-525 1267,-16 472,-16"/>
<text text-anchor="middle" x="525" y="-511.4" font-family="Helvetica,sans-Serif" font-size="12.00">DESTINATIONS</text>
</g>
<g id="clust3" class="cluster">
<title>cluster_HTML5_APPS</title>
<polygon fill="#e6dbcf" stroke="black" stroke-dasharray="1,5" points="16,-16.5 16,-256 464,-256 464,-16.5 16,-16.5"/>
<text text-anchor="middle" x="62" y="-242.4" font-family="Helvetica,sans-Serif" font-size="12.00">HTML5 APPS</text>
</g>
<g id="clust4" class="cluster">
<title>cluster_WORKFLOW</title>
<polygon fill="#e6dbcf" stroke="black" stroke-dasharray="1,5" points="152,-296 152,-525 328,-525 328,-296 152,-296"/>
<text text-anchor="middle" x="196.5" y="-511.4" font-family="Helvetica,sans-Serif" font-size="12.00">WORKFLOW</text>
</g>
<!-- DocumentCentricApprovalProcess&#45;destination&#45;service -->
<g id="node1" class="node">
<title>DocumentCentricApprovalProcess&#45;destination&#45;service</title>
<polygon fill="#488791" stroke="transparent" points="992,-376.5 720,-376.5 720,-304.5 992,-304.5 992,-376.5"/>
<polyline fill="none" stroke="#407780" points="720,-304.5 992,-304.5 "/>
<text text-anchor="middle" x="856" y="-343.5" font-family="Helvetica,sans-Serif" font-size="10.00">SERVICE DESTINATION</text>
<text text-anchor="middle" x="856" y="-320.5" font-family="Helvetica,sans-Serif" font-size="10.00">DocumentCentricApprovalProcess&#45;destination&#45;service</text>
</g>
<!-- DocumentCentricApproval_DocumentCentricApprovalProcess_html_repo_host -->
<g id="node2" class="node">
<title>DocumentCentricApproval_DocumentCentricApprovalProcess_html_repo_host</title>
<polygon fill="#bfb9ac" stroke="transparent" points="889.5,-227 500.5,-227 500.5,-155 889.5,-155 889.5,-227"/>
<polyline fill="none" stroke="#737c80" points="500.5,-155 889.5,-155 "/>
<text text-anchor="middle" x="695" y="-194" font-family="Helvetica,sans-Serif" font-size="10.00">DESTINATION</text>
<text text-anchor="middle" x="695" y="-171" font-family="Helvetica,sans-Serif" font-size="10.00">DocumentCentricApproval_DocumentCentricApprovalProcess_html_repo_host</text>
</g>
<!-- DocumentCentricApprovalProcess&#45;destination&#45;service&#45;&gt;DocumentCentricApproval_DocumentCentricApprovalProcess_html_repo_host -->
<g id="edge1" class="edge">
<title>DocumentCentricApprovalProcess&#45;destination&#45;service&#45;&gt;DocumentCentricApproval_DocumentCentricApprovalProcess_html_repo_host</title>
<path fill="none" stroke="black" stroke-width="0.7" d="M817.44,-304.17C794.44,-283.1 765.1,-256.22 740.91,-234.06"/>
<polygon fill="black" stroke="black" stroke-width="0.7" points="742.99,-231.22 733.25,-227.04 738.26,-236.38 742.99,-231.22"/>
<text text-anchor="middle" x="842" y="-278" font-family="Helvetica,sans-Serif" font-size="10.00">define destination</text>
<text text-anchor="middle" x="842" y="-267" font-family="Helvetica,sans-Serif" font-size="10.00">at subaccount level</text>
</g>
<!-- DocumentCentricApproval_uaa_DocumentCentricApprovalProcess -->
<g id="node3" class="node">
<title>DocumentCentricApproval_uaa_DocumentCentricApprovalProcess</title>
<polygon fill="#bfb9ac" stroke="transparent" points="1238.5,-227 907.5,-227 907.5,-155 1238.5,-155 1238.5,-227"/>
<polyline fill="none" stroke="#737c80" points="907.5,-155 1238.5,-155 "/>
<text text-anchor="middle" x="1073" y="-194" font-family="Helvetica,sans-Serif" font-size="10.00">DESTINATION</text>
<text text-anchor="middle" x="1073" y="-171" font-family="Helvetica,sans-Serif" font-size="10.00">DocumentCentricApproval_uaa_DocumentCentricApprovalProcess</text>
</g>
<!-- DocumentCentricApprovalProcess&#45;destination&#45;service&#45;&gt;DocumentCentricApproval_uaa_DocumentCentricApprovalProcess -->
<g id="edge2" class="edge">
<title>DocumentCentricApprovalProcess&#45;destination&#45;service&#45;&gt;DocumentCentricApproval_uaa_DocumentCentricApprovalProcess</title>
<path fill="none" stroke="black" stroke-width="0.7" d="M907.7,-304.36C939.23,-282.93 979.68,-255.43 1012.67,-233.01"/>
<polygon fill="black" stroke="black" stroke-width="0.7" points="1015.02,-235.64 1021.32,-227.13 1011.08,-229.86 1015.02,-235.64"/>
<text text-anchor="middle" x="1012" y="-278" font-family="Helvetica,sans-Serif" font-size="10.00">define destination</text>
<text text-anchor="middle" x="1012" y="-267" font-family="Helvetica,sans-Serif" font-size="10.00">at subaccount level</text>
</g>
<!-- DocumentCentricApprovalProcess_html_repo_host -->
<g id="node5" class="node">
<title>DocumentCentricApprovalProcess_html_repo_host</title>
<polygon fill="#488791" stroke="#407780" points="735.5,-96.5 732.5,-100.5 711.5,-100.5 708.5,-96.5 480.5,-96.5 480.5,-24.5 735.5,-24.5 735.5,-96.5"/>
<text text-anchor="middle" x="608" y="-63.5" font-family="Helvetica,sans-Serif" font-size="10.00">SERVICE HTML5 REPOSITORY</text>
<text text-anchor="middle" x="608" y="-40.5" font-family="Helvetica,sans-Serif" font-size="10.00">DocumentCentricApprovalProcess_html_repo_host</text>
</g>
<!-- DocumentCentricApproval_DocumentCentricApprovalProcess_html_repo_host&#45;&gt;DocumentCentricApprovalProcess_html_repo_host -->
<g id="edge4" class="edge">
<title>DocumentCentricApproval_DocumentCentricApprovalProcess_html_repo_host&#45;&gt;DocumentCentricApprovalProcess_html_repo_host</title>
<path fill="none" stroke="black" stroke-width="0.7" d="M671.23,-154.89C660.77,-139.45 648.39,-121.16 637.37,-104.88"/>
<polygon fill="black" stroke="black" stroke-width="0.7" points="640.25,-102.89 631.74,-96.57 634.45,-106.81 640.25,-102.89"/>
<text text-anchor="middle" x="694" y="-123.5" font-family="Helvetica,sans-Serif" font-size="10.00">point to service</text>
</g>
<!-- uaa_DocumentCentricApprovalProcess -->
<g id="node6" class="node">
<title>uaa_DocumentCentricApprovalProcess</title>
<path fill="#488791" stroke="#40806e" d="M1030,-24.5C1030,-24.5 1204,-24.5 1204,-24.5 1210,-24.5 1216,-30.5 1216,-36.5 1216,-36.5 1216,-84.5 1216,-84.5 1216,-90.5 1210,-96.5 1204,-96.5 1204,-96.5 1030,-96.5 1030,-96.5 1024,-96.5 1018,-90.5 1018,-84.5 1018,-84.5 1018,-36.5 1018,-36.5 1018,-30.5 1024,-24.5 1030,-24.5"/>
<text text-anchor="middle" x="1117" y="-63.5" font-family="Helvetica,sans-Serif" font-size="10.00">🔑 SERVICE XSUAA</text>
<text text-anchor="middle" x="1117" y="-40.5" font-family="Helvetica,sans-Serif" font-size="10.00">uaa_DocumentCentricApprovalProcess</text>
</g>
<!-- DocumentCentricApproval_uaa_DocumentCentricApprovalProcess&#45;&gt;uaa_DocumentCentricApprovalProcess -->
<g id="edge5" class="edge">
<title>DocumentCentricApproval_uaa_DocumentCentricApprovalProcess&#45;&gt;uaa_DocumentCentricApprovalProcess</title>
<path fill="none" stroke="black" stroke-width="0.7" d="M1085.02,-154.89C1090.16,-139.87 1096.23,-122.16 1101.69,-106.23"/>
<polygon fill="black" stroke="black" stroke-width="0.7" points="1105.06,-107.17 1104.99,-96.57 1098.44,-104.9 1105.06,-107.17"/>
<text text-anchor="middle" x="1135" y="-123.5" font-family="Helvetica,sans-Serif" font-size="10.00">point to service</text>
</g>
<!-- DocumentCentricApprovalProcess&#45;destination&#45;content -->
<g id="node4" class="node">
<title>DocumentCentricApprovalProcess&#45;destination&#45;content</title>
<polygon fill="#bfb9ac" stroke="#737c80" points="992.5,-496 723.5,-496 719.5,-492 719.5,-424 988.5,-424 992.5,-428 992.5,-496"/>
<polyline fill="none" stroke="#737c80" points="988.5,-492 719.5,-492 "/>
<polyline fill="none" stroke="#737c80" points="988.5,-492 988.5,-424 "/>
<polyline fill="none" stroke="#737c80" points="988.5,-492 992.5,-496 "/>
<text text-anchor="middle" x="856" y="-463" font-family="Helvetica,sans-Serif" font-size="10.00">DESTINATIONS DEPLOYER</text>
<text text-anchor="middle" x="856" y="-440" font-family="Helvetica,sans-Serif" font-size="10.00">DocumentCentricApprovalProcess&#45;destination&#45;content</text>
</g>
<!-- DocumentCentricApprovalProcess&#45;destination&#45;content&#45;&gt;DocumentCentricApprovalProcess&#45;destination&#45;service -->
<g id="edge3" class="edge">
<title>DocumentCentricApprovalProcess&#45;destination&#45;content&#45;&gt;DocumentCentricApprovalProcess&#45;destination&#45;service</title>
<path fill="none" stroke="black" stroke-width="0.7" d="M856,-423.75C856,-412.13 856,-399.04 856,-386.78"/>
<polygon fill="black" stroke="black" stroke-width="0.7" points="859.5,-386.73 856,-376.73 852.5,-386.73 859.5,-386.73"/>
<text text-anchor="middle" x="919.5" y="-398" font-family="Helvetica,sans-Serif" font-size="10.00">create destination service</text>
</g>
<!-- DocumentCentricApprovalProcess&#45;destination&#45;content&#45;&gt;DocumentCentricApprovalProcess_html_repo_host -->
<g id="edge11" class="edge">
<title>DocumentCentricApprovalProcess&#45;destination&#45;content&#45;&gt;DocumentCentricApprovalProcess_html_repo_host</title>
<path fill="none" stroke="black" stroke-width="0.7" stroke-dasharray="5,2" d="M726.61,-423.93C643.65,-393.99 542.38,-341.79 492,-256 469.27,-217.29 472.63,-195.49 492,-155 501.82,-134.46 518.61,-116.99 536.4,-102.91"/>
<polygon fill="black" stroke="black" stroke-width="0.7" points="538.77,-105.51 544.63,-96.68 534.54,-99.93 538.77,-105.51"/>
<text text-anchor="middle" x="520" y="-272.5" font-family="Helvetica,sans-Serif" font-size="10.00">use</text>
</g>
<!-- DocumentCentricApprovalProcess&#45;destination&#45;content&#45;&gt;uaa_DocumentCentricApprovalProcess -->
<g id="edge12" class="edge">
<title>DocumentCentricApprovalProcess&#45;destination&#45;content&#45;&gt;uaa_DocumentCentricApprovalProcess</title>
<path fill="none" stroke="#40806e" stroke-width="0.7" d="M947.26,-423.96C960.72,-418.25 974.32,-412.17 987,-406 988.88,-405.08 1246.95,-257.81 1248,-256 1270.48,-217.15 1268.55,-194.91 1248,-155 1237.03,-133.7 1218.71,-116.18 1199.2,-102.29"/>
<polygon fill="#40806e" stroke="#40806e" stroke-width="0.7" points="1201.02,-99.29 1190.78,-96.56 1197.08,-105.08 1201.02,-99.29"/>
<text text-anchor="middle" x="1278" y="-272.5" font-family="Helvetica,sans-Serif" font-size="10.00" fill="#40806e">use xsuaa service</text>
</g>
<!-- DocumentCentricApprovalProcess_ui_deployer -->
<g id="node7" class="node">
<title>DocumentCentricApprovalProcess_ui_deployer</title>
<polygon fill="#bfb9ac" stroke="#737c80" points="389.5,-227 156.5,-227 152.5,-223 152.5,-155 385.5,-155 389.5,-159 389.5,-227"/>
<polyline fill="none" stroke="#737c80" points="385.5,-223 152.5,-223 "/>
<polyline fill="none" stroke="#737c80" points="385.5,-223 385.5,-155 "/>
<polyline fill="none" stroke="#737c80" points="385.5,-223 389.5,-227 "/>
<text text-anchor="middle" x="271" y="-194" font-family="Helvetica,sans-Serif" font-size="10.00">APPS DEPLOYER</text>
<text text-anchor="middle" x="271" y="-171" font-family="Helvetica,sans-Serif" font-size="10.00">DocumentCentricApprovalProcess_ui_deployer</text>
</g>
<!-- DocumentCentricApprovalProcess_ui_deployer&#45;&gt;DocumentCentricApprovalProcess_html_repo_host -->
<g id="edge6" class="edge">
<title>DocumentCentricApprovalProcess_ui_deployer&#45;&gt;DocumentCentricApprovalProcess_html_repo_host</title>
<path fill="none" stroke="black" stroke-width="0.7" d="M337.92,-154.78C347.23,-149.16 356.51,-143.16 365,-137 376.71,-128.5 376.19,-121.72 389,-115 420.89,-98.28 432.99,-105.43 468,-97 468.75,-96.82 469.51,-96.64 470.27,-96.45"/>
<polygon fill="black" stroke="black" stroke-width="0.7" points="471.34,-99.79 480.23,-94.03 469.69,-92.99 471.34,-99.79"/>
<text text-anchor="middle" x="432.5" y="-129" font-family="Helvetica,sans-Serif" font-size="10.00">deploy apps to</text>
<text text-anchor="middle" x="432.5" y="-118" font-family="Helvetica,sans-Serif" font-size="10.00">HTML5 repository</text>
</g>
<!-- DocumentCentricStartUI -->
<g id="node8" class="node">
<title>DocumentCentricStartUI</title>
<path fill="#b0ac89" stroke="#8b875d" d="M139.5,-96.5C139.5,-96.5 36.5,-96.5 36.5,-96.5 30.5,-96.5 24.5,-90.5 24.5,-84.5 24.5,-84.5 24.5,-36.5 24.5,-36.5 24.5,-30.5 30.5,-24.5 36.5,-24.5 36.5,-24.5 139.5,-24.5 139.5,-24.5 145.5,-24.5 151.5,-30.5 151.5,-36.5 151.5,-36.5 151.5,-84.5 151.5,-84.5 151.5,-90.5 145.5,-96.5 139.5,-96.5"/>
<text text-anchor="middle" x="88" y="-63.5" font-family="Helvetica,sans-Serif" font-size="10.00">APP HTML5</text>
<text text-anchor="middle" x="88" y="-40.5" font-family="Helvetica,sans-Serif" font-size="10.00">DocumentCentricStartUI</text>
</g>
<!-- DocumentCentricApprovalProcess_ui_deployer&#45;&gt;DocumentCentricStartUI -->
<g id="edge7" class="edge">
<title>DocumentCentricApprovalProcess_ui_deployer&#45;&gt;DocumentCentricStartUI</title>
<path fill="none" stroke="#8b875d" stroke-width="0.7" d="M205.04,-154.93C195.45,-149.22 185.84,-143.16 177,-137 162.41,-126.83 147.36,-114.76 133.88,-103.29"/>
<polygon fill="#8b875d" stroke="#8b875d" stroke-width="0.7" points="136,-100.5 126.14,-96.62 131.43,-105.8 136,-100.5"/>
<text text-anchor="middle" x="203" y="-123.5" font-family="Helvetica,sans-Serif" font-size="10.00" fill="#8b875d">deployApp</text>
</g>
<!-- DocumentCentricTaskUI -->
<g id="node9" class="node">
<title>DocumentCentricTaskUI</title>
<path fill="#b0ac89" stroke="#8b875d" d="M284,-96.5C284,-96.5 182,-96.5 182,-96.5 176,-96.5 170,-90.5 170,-84.5 170,-84.5 170,-36.5 170,-36.5 170,-30.5 176,-24.5 182,-24.5 182,-24.5 284,-24.5 284,-24.5 290,-24.5 296,-30.5 296,-36.5 296,-36.5 296,-84.5 296,-84.5 296,-90.5 290,-96.5 284,-96.5"/>
<text text-anchor="middle" x="233" y="-63.5" font-family="Helvetica,sans-Serif" font-size="10.00">APP HTML5</text>
<text text-anchor="middle" x="233" y="-40.5" font-family="Helvetica,sans-Serif" font-size="10.00">DocumentCentricTaskUI</text>
</g>
<!-- DocumentCentricApprovalProcess_ui_deployer&#45;&gt;DocumentCentricTaskUI -->
<g id="edge8" class="edge">
<title>DocumentCentricApprovalProcess_ui_deployer&#45;&gt;DocumentCentricTaskUI</title>
<path fill="none" stroke="#8b875d" stroke-width="0.7" d="M244.93,-154.76C241.75,-149.06 238.94,-143.04 237,-137 233.95,-127.54 232.36,-117.08 231.62,-107.02"/>
<polygon fill="#8b875d" stroke="#8b875d" stroke-width="0.7" points="235.11,-106.58 231.14,-96.76 228.11,-106.91 235.11,-106.58"/>
<text text-anchor="middle" x="263" y="-123.5" font-family="Helvetica,sans-Serif" font-size="10.00" fill="#8b875d">deployApp</text>
</g>
<!-- DocumentCentricReworkUI -->
<g id="node10" class="node">
<title>DocumentCentricReworkUI</title>
<path fill="#b0ac89" stroke="#8b875d" d="M443.5,-96.5C443.5,-96.5 326.5,-96.5 326.5,-96.5 320.5,-96.5 314.5,-90.5 314.5,-84.5 314.5,-84.5 314.5,-36.5 314.5,-36.5 314.5,-30.5 320.5,-24.5 326.5,-24.5 326.5,-24.5 443.5,-24.5 443.5,-24.5 449.5,-24.5 455.5,-30.5 455.5,-36.5 455.5,-36.5 455.5,-84.5 455.5,-84.5 455.5,-90.5 449.5,-96.5 443.5,-96.5"/>
<text text-anchor="middle" x="385" y="-63.5" font-family="Helvetica,sans-Serif" font-size="10.00">APP HTML5</text>
<text text-anchor="middle" x="385" y="-40.5" font-family="Helvetica,sans-Serif" font-size="10.00">DocumentCentricReworkUI</text>
</g>
<!-- DocumentCentricApprovalProcess_ui_deployer&#45;&gt;DocumentCentricReworkUI -->
<g id="edge9" class="edge">
<title>DocumentCentricApprovalProcess_ui_deployer&#45;&gt;DocumentCentricReworkUI</title>
<path fill="none" stroke="#8b875d" stroke-width="0.7" d="M286.8,-154.79C293.73,-141.5 302.65,-126.77 313,-115 316.45,-111.08 320.22,-107.27 324.19,-103.61"/>
<polygon fill="#8b875d" stroke="#8b875d" stroke-width="0.7" points="326.79,-105.98 332,-96.76 322.17,-100.72 326.79,-105.98"/>
<text text-anchor="middle" x="339" y="-123.5" font-family="Helvetica,sans-Serif" font-size="10.00" fill="#8b875d">deployApp</text>
</g>
<!-- DocumentApproval -->
<g id="node11" class="node">
<title>DocumentApproval</title>
<polygon fill="#bfb9ac" stroke="#737c80" points="262,-496 164,-496 160,-492 160,-424 258,-424 262,-428 262,-496"/>
<polyline fill="none" stroke="#737c80" points="258,-492 160,-492 "/>
<polyline fill="none" stroke="#737c80" points="258,-492 258,-424 "/>
<polyline fill="none" stroke="#737c80" points="258,-492 262,-496 "/>
<text text-anchor="middle" x="211" y="-463" font-family="Helvetica,sans-Serif" font-size="10.00">DEPLOYER</text>
<text text-anchor="middle" x="211" y="-440" font-family="Helvetica,sans-Serif" font-size="10.00">DocumentApproval</text>
</g>
<!-- Workflow -->
<g id="node12" class="node">
<title>Workflow</title>
<path fill="#488791" stroke="#407780" d="M172,-304.5C172,-304.5 260,-304.5 260,-304.5 266,-304.5 272,-310.5 272,-316.5 272,-316.5 272,-364.5 272,-364.5 272,-370.5 266,-376.5 260,-376.5 260,-376.5 172,-376.5 172,-376.5 166,-376.5 160,-370.5 160,-364.5 160,-364.5 160,-316.5 160,-316.5 160,-310.5 166,-304.5 172,-304.5"/>
<text text-anchor="middle" x="216" y="-343.5" font-family="Helvetica,sans-Serif" font-size="10.00">SERVICE WORKFLOW</text>
<text text-anchor="middle" x="216" y="-320.5" font-family="Helvetica,sans-Serif" font-size="10.00">Workflow</text>
</g>
<!-- DocumentApproval&#45;&gt;Workflow -->
<g id="edge10" class="edge">
<title>DocumentApproval&#45;&gt;Workflow</title>
<path fill="none" stroke="black" stroke-width="0.7" d="M212.5,-423.75C212.99,-412.13 213.55,-399.04 214.07,-386.78"/>
<polygon fill="black" stroke="black" stroke-width="0.7" points="217.57,-386.87 214.5,-376.73 210.58,-386.57 217.57,-386.87"/>
<text text-anchor="middle" x="285" y="-398" font-family="Helvetica,sans-Serif" font-size="10.00">deploy workflow definition to</text>
</g>
</g>
</svg>
