<?xml version="1.0" encoding="UTF-8" standalone="no"?>
<!DOCTYPE svg PUBLIC "-//W3C//DTD SVG 1.1//EN"
 "http://www.w3.org/Graphics/SVG/1.1/DTD/svg11.dtd">
<!-- Generated by graphviz version 2.43.0 (0)
 -->
<!-- Title: MTA Pages: 1 -->
<svg width="4382pt" height="453pt"
 viewBox="0.00 0.00 4382.00 452.61" xmlns="http://www.w3.org/2000/svg" xmlns:xlink="http://www.w3.org/1999/xlink">
<g id="graph0" class="graph" transform="scale(1 1) rotate(0) translate(4 448.61)">
<title>MTA</title>
<polygon fill="white" stroke="transparent" points="-4,4 -4,-448.61 4378,-448.61 4378,4 -4,4"/>
<g id="clust1" class="cluster">
<title>cluster_CAP_SERVICE</title>
<polygon fill="none" stroke="black" points="8,-113 8,-436.61 479,-436.61 479,-113 8,-113"/>
<text text-anchor="middle" x="243.5" y="-421.41" font-family="Times,serif" font-size="14.00">CAP SERVICE</text>
</g>
<g id="clust2" class="cluster">
<title>cluster_HTML5_APPS</title>
<polygon fill="none" stroke="black" points="1990,-126.12 1990,-410.43 4366,-410.43 4366,-126.12 1990,-126.12"/>
<text text-anchor="middle" x="3178" y="-395.23" font-family="Times,serif" font-size="14.00">HTML5 APPS</text>
</g>
<!-- cap&#45;services -->
<g id="node1" class="node">
<title>cap&#45;services</title>
<polygon fill="none" stroke="blue" points="220.02,-363.4 118,-405.8 15.98,-363.4 16.07,-294.79 219.93,-294.79 220.02,-363.4"/>
<text text-anchor="middle" x="118" y="-348.23" font-family="Times,serif" font-size="14.00">CAP SERVICE</text>
<text text-anchor="middle" x="118" y="-317.23" font-family="Times,serif" font-size="14.00">cap&#45;services</text>
</g>
<!-- cap&#45;template&#45;hanadb -->
<g id="node2" class="node">
<title>cap&#45;template&#45;hanadb</title>
<path fill="none" stroke="orange" d="M245.5,-208.6C245.5,-213.44 203.14,-217.38 151,-217.38 98.86,-217.38 56.5,-213.44 56.5,-208.6 56.5,-208.6 56.5,-129.65 56.5,-129.65 56.5,-124.81 98.86,-120.87 151,-120.87 203.14,-120.87 245.5,-124.81 245.5,-129.65 245.5,-129.65 245.5,-208.6 245.5,-208.6"/>
<path fill="none" stroke="orange" d="M245.5,-208.6C245.5,-203.76 203.14,-199.83 151,-199.83 98.86,-199.83 56.5,-203.76 56.5,-208.6"/>
<text text-anchor="middle" x="151" y="-172.93" font-family="Times,serif" font-size="14.00">SERVICE HANA CLOUD</text>
<text text-anchor="middle" x="151" y="-141.93" font-family="Times,serif" font-size="14.00">cap&#45;template&#45;hanadb</text>
</g>
<!-- cap&#45;services&#45;&gt;cap&#45;template&#45;hanadb -->
<g id="edge1" class="edge">
<title>cap&#45;services&#45;&gt;cap&#45;template&#45;hanadb</title>
<path fill="none" stroke="orange" d="M95.38,-294.65C89.65,-275.76 86.89,-254.16 94,-235.25 95.16,-232.16 96.55,-229.11 98.11,-226.13"/>
<polygon fill="orange" stroke="orange" points="101.19,-227.8 103.26,-217.41 95.16,-224.24 101.19,-227.8"/>
<text text-anchor="middle" x="131.5" y="-246.55" font-family="Times,serif" font-size="14.00" fill="orange">read/write</text>
</g>
<!-- cap&#45;services&#45;api:srv_api -->
<g id="node21" class="node">
<title>cap&#45;services&#45;api:srv_api</title>
<polygon fill="none" stroke="grey" points="424,-70 244,-70 244,0 430,0 430,-64 424,-70"/>
<polyline fill="none" stroke="grey" points="424,-70 424,-64 "/>
<polyline fill="none" stroke="grey" points="430,-64 424,-64 "/>
<text text-anchor="middle" x="337" y="-38.8" font-family="Times,serif" font-size="14.00">cap&#45;services&#45;api:srv_api</text>
<text text-anchor="middle" x="337" y="-7.8" font-family="Times,serif" font-size="14.00">${default&#45;url}</text>
</g>
<!-- cap&#45;services&#45;&gt;cap&#45;services&#45;api:srv_api -->
<g id="edge19" class="edge">
<title>cap&#45;services&#45;&gt;cap&#45;services&#45;api:srv_api</title>
<path fill="none" stroke="grey" d="M202.35,-294.7C211.2,-290.5 220.18,-286.59 229,-283.25 262.27,-270.66 283.09,-291.59 307,-265.25 313.15,-258.48 325.75,-145.16 332.5,-80.43"/>
<polygon fill="grey" stroke="grey" points="335.98,-80.79 333.53,-70.48 329.01,-80.07 335.98,-80.79"/>
<text text-anchor="middle" x="403" y="-165.43" font-family="Times,serif" font-size="14.00" fill="grey">define MTA property</text>
</g>
<!-- cap&#45;template&#45;uaa -->
<g id="node22" class="node">
<title>cap&#45;template&#45;uaa</title>
<polygon fill="none" stroke="orange" points="741,-146.12 741,-192.12 881,-192.12 881,-146.12 741,-146.12"/>
<text text-anchor="middle" x="811" y="-176.93" font-family="Times,serif" font-size="14.00">SERVICE XSUAA</text>
<polyline fill="none" stroke="orange" points="741,-169.12 881,-169.12 "/>
<text text-anchor="middle" x="811" y="-153.93" font-family="Times,serif" font-size="14.00">cap&#45;template&#45;uaa</text>
</g>
<!-- cap&#45;services&#45;&gt;cap&#45;template&#45;uaa -->
<g id="edge20" class="edge">
<title>cap&#45;services&#45;&gt;cap&#45;template&#45;uaa</title>
<path fill="none" stroke="black" d="M198.44,-294.78C208.47,-290.24 218.79,-286.23 229,-283.25 283.32,-267.41 433.46,-292.6 483,-265.25 497.48,-257.26 490.56,-243.3 505,-235.25 549.2,-210.61 683.79,-232.61 732,-217.25 746.08,-212.76 760.3,-205.36 772.73,-197.74"/>
<polygon fill="black" stroke="black" points="774.88,-200.52 781.43,-192.19 771.12,-194.62 774.88,-200.52"/>
<text text-anchor="middle" x="568.5" y="-246.55" font-family="Times,serif" font-size="14.00">use xsuaa service</text>
</g>
<!-- cap&#45;application&#45;logging -->
<g id="node23" class="node">
<title>cap&#45;application&#45;logging</title>
<ellipse fill="none" stroke="black" cx="605" cy="-169.12" rx="118.08" ry="18"/>
<text text-anchor="middle" x="605" y="-165.43" font-family="Times,serif" font-size="14.00">cap&#45;application&#45;logging</text>
</g>
<!-- cap&#45;services&#45;&gt;cap&#45;application&#45;logging -->
<g id="edge21" class="edge">
<title>cap&#45;services&#45;&gt;cap&#45;application&#45;logging</title>
<path fill="none" stroke="black" d="M200.92,-294.77C210.21,-290.44 219.68,-286.48 229,-283.25 273.32,-267.87 290.7,-285.53 333,-265.25 351.17,-256.54 348.75,-243.81 367,-235.25 414.24,-213.1 432.6,-230.73 483,-217.25 509.01,-210.3 537.09,-199.68 559.75,-190.28"/>
<polygon fill="black" stroke="black" points="561.25,-193.44 569.11,-186.34 558.54,-186.99 561.25,-193.44"/>
<text text-anchor="middle" x="387.5" y="-246.55" font-family="Times,serif" font-size="14.00">log to</text>
</g>
<!-- cap&#45;template&#45;hanadb&#45;deployer -->
<g id="node3" class="node">
<title>cap&#45;template&#45;hanadb&#45;deployer</title>
<polygon fill="none" stroke="blue" points="471.5,-379.43 242.5,-379.43 238.5,-375.43 238.5,-309.43 467.5,-309.43 471.5,-313.43 471.5,-379.43"/>
<polyline fill="none" stroke="blue" points="467.5,-375.43 238.5,-375.43 "/>
<polyline fill="none" stroke="blue" points="467.5,-375.43 467.5,-309.43 "/>
<polyline fill="none" stroke="blue" points="467.5,-375.43 471.5,-379.43 "/>
<text text-anchor="middle" x="355" y="-348.23" font-family="Times,serif" font-size="14.00">DB DEPLOYER</text>
<text text-anchor="middle" x="355" y="-317.23" font-family="Times,serif" font-size="14.00">cap&#45;template&#45;hanadb&#45;deployer</text>
</g>
<!-- cap&#45;template&#45;hanadb&#45;deployer&#45;&gt;cap&#45;template&#45;hanadb -->
<g id="edge2" class="edge">
<title>cap&#45;template&#45;hanadb&#45;deployer&#45;&gt;cap&#45;template&#45;hanadb</title>
<path fill="none" stroke="orange" d="M281.67,-309.35C259.83,-297.22 236.74,-282.29 218,-265.25 205.5,-253.88 194.01,-239.79 184.22,-225.97"/>
<polygon fill="orange" stroke="orange" points="186.89,-223.68 178.34,-217.42 181.12,-227.64 186.89,-223.68"/>
<text text-anchor="middle" x="275.5" y="-246.55" font-family="Times,serif" font-size="14.00" fill="orange">deploy tables to</text>
</g>
<!-- cap&#45;template&#45;hanadb&#45;deployer&#45;&gt;cap&#45;template&#45;uaa -->
<g id="edge29" class="edge">
<title>cap&#45;template&#45;hanadb&#45;deployer&#45;&gt;cap&#45;template&#45;uaa</title>
<path fill="none" stroke="black" d="M471.7,-326.81C524.81,-315.4 586.68,-296.45 636,-265.25 650.91,-255.82 647,-244.54 662,-235.25 689.32,-218.34 702.35,-229.6 732,-217.25 744.8,-211.92 758.01,-204.78 769.88,-197.67"/>
<polygon fill="black" stroke="black" points="771.98,-200.49 778.66,-192.27 768.31,-194.53 771.98,-200.49"/>
<text text-anchor="middle" x="725.5" y="-246.55" font-family="Times,serif" font-size="14.00">use xsuaa service</text>
</g>
<!-- cap&#45;template&#45;hanadb&#45;deployer&#45;&gt;cap&#45;application&#45;logging -->
<g id="edge30" class="edge">
<title>cap&#45;template&#45;hanadb&#45;deployer&#45;&gt;cap&#45;application&#45;logging</title>
<path fill="none" stroke="black" d="M375.69,-309.28C391.4,-285.79 414.87,-255.31 442,-235.25 446.85,-231.67 507.98,-207.63 553.97,-189.79"/>
<polygon fill="black" stroke="black" points="555.46,-192.97 563.52,-186.09 552.94,-186.44 555.46,-192.97"/>
<text text-anchor="middle" x="462.5" y="-246.55" font-family="Times,serif" font-size="14.00">log to</text>
</g>
<!-- cap&#45;template&#45;html&#45;deployer -->
<g id="node4" class="node">
<title>cap&#45;template&#45;html&#45;deployer</title>
<polygon fill="none" stroke="blue" points="3317,-379.43 3107,-379.43 3103,-375.43 3103,-309.43 3313,-309.43 3317,-313.43 3317,-379.43"/>
<polyline fill="none" stroke="blue" points="3313,-375.43 3103,-375.43 "/>
<polyline fill="none" stroke="blue" points="3313,-375.43 3313,-309.43 "/>
<polyline fill="none" stroke="blue" points="3313,-375.43 3317,-379.43 "/>
<text text-anchor="middle" x="3210" y="-348.23" font-family="Times,serif" font-size="14.00">DEPLOYER</text>
<text text-anchor="middle" x="3210" y="-317.23" font-family="Times,serif" font-size="14.00">cap&#45;template&#45;html&#45;deployer</text>
</g>
<!-- cap&#45;template&#45;html5&#45;repo&#45;host -->
<g id="node5" class="node">
<title>cap&#45;template&#45;html5&#45;repo&#45;host</title>
<polygon fill="none" stroke="orange" points="2239.5,-204.12 2236.5,-208.12 2215.5,-208.12 2212.5,-204.12 1998.5,-204.12 1998.5,-134.12 2239.5,-134.12 2239.5,-204.12"/>
<text text-anchor="middle" x="2119" y="-172.93" font-family="Times,serif" font-size="14.00">SERVICE HTML5 REPOSITORY</text>
<text text-anchor="middle" x="2119" y="-141.93" font-family="Times,serif" font-size="14.00">cap&#45;template&#45;html5&#45;repo&#45;host</text>
</g>
<!-- cap&#45;template&#45;html&#45;deployer&#45;&gt;cap&#45;template&#45;html5&#45;repo&#45;host -->
<g id="edge3" class="edge">
<title>cap&#45;template&#45;html&#45;deployer&#45;&gt;cap&#45;template&#45;html5&#45;repo&#45;host</title>
<path fill="none" stroke="black" d="M3102.78,-338.72C2899.57,-329.01 2465.71,-304.35 2321,-265.25 2273.88,-252.52 2224.25,-229.3 2185.98,-208.99"/>
<polygon fill="black" stroke="black" points="2187.46,-205.82 2177,-204.17 2184.15,-211.98 2187.46,-205.82"/>
<text text-anchor="middle" x="2373.5" y="-246.55" font-family="Times,serif" font-size="14.00">deploy apps to</text>
</g>
<!-- ui_datacenters -->
<g id="node6" class="node">
<title>ui_datacenters</title>
<polygon fill="none" stroke="green" points="4226,-204.12 4104,-204.12 4104,-134.12 4226,-134.12 4226,-204.12"/>
<text text-anchor="middle" x="4165" y="-172.93" font-family="Times,serif" font-size="14.00">APP HTML5</text>
<text text-anchor="middle" x="4165" y="-141.93" font-family="Times,serif" font-size="14.00">ui_datacenters</text>
</g>
<!-- cap&#45;template&#45;html&#45;deployer&#45;&gt;ui_datacenters -->
<g id="edge4" class="edge">
<title>cap&#45;template&#45;html&#45;deployer&#45;&gt;ui_datacenters</title>
<path fill="none" stroke="green" d="M3317.12,-342.55C3467.64,-339.08 3749.28,-324.37 3981,-265.25 4034.27,-251.66 4046.64,-243.39 4095,-217.25 4099.29,-214.93 4103.64,-212.42 4107.97,-209.81"/>
<polygon fill="green" stroke="green" points="4110.15,-212.58 4116.8,-204.33 4106.46,-206.63 4110.15,-212.58"/>
<text text-anchor="middle" x="4100.5" y="-246.55" font-family="Times,serif" font-size="14.00" fill="green">deploy app</text>
</g>
<!-- ui_employees -->
<g id="node7" class="node">
<title>ui_employees</title>
<polygon fill="none" stroke="green" points="4357.5,-204.12 4244.5,-204.12 4244.5,-134.12 4357.5,-134.12 4357.5,-204.12"/>
<text text-anchor="middle" x="4301" y="-172.93" font-family="Times,serif" font-size="14.00">APP HTML5</text>
<text text-anchor="middle" x="4301" y="-141.93" font-family="Times,serif" font-size="14.00">ui_employees</text>
</g>
<!-- cap&#45;template&#45;html&#45;deployer&#45;&gt;ui_employees -->
<g id="edge5" class="edge">
<title>cap&#45;template&#45;html&#45;deployer&#45;&gt;ui_employees</title>
<path fill="none" stroke="green" d="M3317.07,-339.84C3528.32,-331.89 3991.53,-309.83 4144,-265.25 4182.42,-254.02 4220.93,-230.91 4250.2,-210.28"/>
<polygon fill="green" stroke="green" points="4252.5,-212.93 4258.59,-204.26 4248.42,-207.25 4252.5,-212.93"/>
<text text-anchor="middle" x="4247.5" y="-246.55" font-family="Times,serif" font-size="14.00" fill="green">deploy app</text>
</g>
<!-- ui_systems -->
<g id="node8" class="node">
<title>ui_systems</title>
<polygon fill="none" stroke="green" points="2362,-204.12 2258,-204.12 2258,-134.12 2362,-134.12 2362,-204.12"/>
<text text-anchor="middle" x="2310" y="-172.93" font-family="Times,serif" font-size="14.00">APP HTML5</text>
<text text-anchor="middle" x="2310" y="-141.93" font-family="Times,serif" font-size="14.00">ui_systems</text>
</g>
<!-- cap&#45;template&#45;html&#45;deployer&#45;&gt;ui_systems -->
<g id="edge6" class="edge">
<title>cap&#45;template&#45;html&#45;deployer&#45;&gt;ui_systems</title>
<path fill="none" stroke="green" d="M3102.75,-340.8C2923.64,-334.99 2572.3,-317.17 2461,-265.25 2443.62,-257.14 2446.52,-244.98 2430,-235.25 2406.38,-221.33 2395.36,-229.84 2371,-217.25 2366.76,-215.06 2362.53,-212.57 2358.37,-209.9"/>
<polygon fill="green" stroke="green" points="2360.22,-206.92 2349.97,-204.22 2356.29,-212.72 2360.22,-206.92"/>
<text text-anchor="middle" x="2500.5" y="-246.55" font-family="Times,serif" font-size="14.00" fill="green">deploy app</text>
</g>
<!-- ui_products -->
<g id="node9" class="node">
<title>ui_products</title>
<polygon fill="none" stroke="green" points="2484,-204.12 2380,-204.12 2380,-134.12 2484,-134.12 2484,-204.12"/>
<text text-anchor="middle" x="2432" y="-172.93" font-family="Times,serif" font-size="14.00">APP HTML5</text>
<text text-anchor="middle" x="2432" y="-141.93" font-family="Times,serif" font-size="14.00">ui_products</text>
</g>
<!-- cap&#45;template&#45;html&#45;deployer&#45;&gt;ui_products -->
<g id="edge7" class="edge">
<title>cap&#45;template&#45;html&#45;deployer&#45;&gt;ui_products</title>
<path fill="none" stroke="green" d="M3102.98,-340.9C2979.63,-335.43 2772.03,-318.34 2602,-265.25 2574.3,-256.6 2570.64,-246.77 2544,-235.25 2521.94,-225.71 2514.11,-228.74 2493,-217.25 2488.99,-215.07 2484.97,-212.63 2481,-210.04"/>
<polygon fill="green" stroke="green" points="2482.68,-206.95 2472.45,-204.19 2478.73,-212.73 2482.68,-206.95"/>
<text text-anchor="middle" x="2641.5" y="-246.55" font-family="Times,serif" font-size="14.00" fill="green">deploy app</text>
</g>
<!-- ui_servers -->
<g id="node10" class="node">
<title>ui_servers</title>
<polygon fill="none" stroke="green" points="2606,-204.12 2502,-204.12 2502,-134.12 2606,-134.12 2606,-204.12"/>
<text text-anchor="middle" x="2554" y="-172.93" font-family="Times,serif" font-size="14.00">APP HTML5</text>
<text text-anchor="middle" x="2554" y="-141.93" font-family="Times,serif" font-size="14.00">ui_servers</text>
</g>
<!-- cap&#45;template&#45;html&#45;deployer&#45;&gt;ui_servers -->
<g id="edge8" class="edge">
<title>cap&#45;template&#45;html&#45;deployer&#45;&gt;ui_servers</title>
<path fill="none" stroke="green" d="M3102.58,-341.62C3000.88,-336.4 2845.9,-319.21 2723,-265.25 2703.3,-256.6 2704.26,-244.84 2685,-235.25 2656.63,-221.13 2644.5,-231.11 2616,-217.25 2611.48,-215.05 2606.97,-212.5 2602.55,-209.74"/>
<polygon fill="green" stroke="green" points="2604.48,-206.82 2594.21,-204.22 2600.62,-212.66 2604.48,-206.82"/>
<text text-anchor="middle" x="2762.5" y="-246.55" font-family="Times,serif" font-size="14.00" fill="green">deploy app</text>
</g>
<!-- ui_solutionsalteaup -->
<g id="node11" class="node">
<title>ui_solutionsalteaup</title>
<polygon fill="none" stroke="green" points="2779.5,-204.12 2624.5,-204.12 2624.5,-134.12 2779.5,-134.12 2779.5,-204.12"/>
<text text-anchor="middle" x="2702" y="-172.93" font-family="Times,serif" font-size="14.00">APP HTML5</text>
<text text-anchor="middle" x="2702" y="-141.93" font-family="Times,serif" font-size="14.00">ui_solutionsalteaup</text>
</g>
<!-- cap&#45;template&#45;html&#45;deployer&#45;&gt;ui_solutionsalteaup -->
<g id="edge9" class="edge">
<title>cap&#45;template&#45;html&#45;deployer&#45;&gt;ui_solutionsalteaup</title>
<path fill="none" stroke="green" d="M3102.94,-336.88C3025.31,-328.46 2919.85,-309.21 2837,-265.25 2820.06,-256.26 2821.1,-247.07 2806,-235.25 2794.69,-226.39 2782.12,-217.68 2769.74,-209.66"/>
<polygon fill="green" stroke="green" points="2771.53,-206.65 2761.22,-204.22 2767.76,-212.55 2771.53,-206.65"/>
<text text-anchor="middle" x="2876.5" y="-246.55" font-family="Times,serif" font-size="14.00" fill="green">deploy app</text>
</g>
<!-- ui_typologies -->
<g id="node12" class="node">
<title>ui_typologies</title>
<polygon fill="none" stroke="green" points="2908,-204.12 2798,-204.12 2798,-134.12 2908,-134.12 2908,-204.12"/>
<text text-anchor="middle" x="2853" y="-172.93" font-family="Times,serif" font-size="14.00">APP HTML5</text>
<text text-anchor="middle" x="2853" y="-141.93" font-family="Times,serif" font-size="14.00">ui_typologies</text>
</g>
<!-- cap&#45;template&#45;html&#45;deployer&#45;&gt;ui_typologies -->
<g id="edge10" class="edge">
<title>cap&#45;template&#45;html&#45;deployer&#45;&gt;ui_typologies</title>
<path fill="none" stroke="green" d="M3102.76,-319.71C3057.86,-307.22 3006.19,-289.39 2963,-265.25 2937.4,-250.94 2912.39,-230.03 2892.69,-211.46"/>
<polygon fill="green" stroke="green" points="2895.06,-208.87 2885.42,-204.47 2890.21,-213.92 2895.06,-208.87"/>
<text text-anchor="middle" x="3002.5" y="-246.55" font-family="Times,serif" font-size="14.00" fill="green">deploy app</text>
</g>
<!-- ui_systemstatus -->
<g id="node13" class="node">
<title>ui_systemstatus</title>
<polygon fill="none" stroke="green" points="3058,-204.12 2926,-204.12 2926,-134.12 3058,-134.12 3058,-204.12"/>
<text text-anchor="middle" x="2992" y="-172.93" font-family="Times,serif" font-size="14.00">APP HTML5</text>
<text text-anchor="middle" x="2992" y="-141.93" font-family="Times,serif" font-size="14.00">ui_systemstatus</text>
</g>
<!-- cap&#45;template&#45;html&#45;deployer&#45;&gt;ui_systemstatus -->
<g id="edge11" class="edge">
<title>cap&#45;template&#45;html&#45;deployer&#45;&gt;ui_systemstatus</title>
<path fill="none" stroke="green" d="M3142.73,-309.28C3120.81,-296.77 3096.99,-281.63 3077,-265.25 3057.99,-249.67 3039.48,-229.72 3024.62,-212.11"/>
<polygon fill="green" stroke="green" points="3027.14,-209.67 3018.05,-204.21 3021.75,-214.14 3027.14,-209.67"/>
<text text-anchor="middle" x="3116.5" y="-246.55" font-family="Times,serif" font-size="14.00" fill="green">deploy app</text>
</g>
<!-- ui_futurestatus -->
<g id="node14" class="node">
<title>ui_futurestatus</title>
<polygon fill="none" stroke="green" points="3201.5,-204.12 3076.5,-204.12 3076.5,-134.12 3201.5,-134.12 3201.5,-204.12"/>
<text text-anchor="middle" x="3139" y="-172.93" font-family="Times,serif" font-size="14.00">APP HTML5</text>
<text text-anchor="middle" x="3139" y="-141.93" font-family="Times,serif" font-size="14.00">ui_futurestatus</text>
</g>
<!-- cap&#45;template&#45;html&#45;deployer&#45;&gt;ui_futurestatus -->
<g id="edge12" class="edge">
<title>cap&#45;template&#45;html&#45;deployer&#45;&gt;ui_futurestatus</title>
<path fill="none" stroke="green" d="M3191.68,-309.27C3184.77,-295.75 3177.11,-279.96 3171,-265.25 3164.19,-248.86 3157.74,-230.45 3152.43,-214.23"/>
<polygon fill="green" stroke="green" points="3155.68,-212.89 3149.28,-204.45 3149.01,-215.04 3155.68,-212.89"/>
<text text-anchor="middle" x="3210.5" y="-246.55" font-family="Times,serif" font-size="14.00" fill="green">deploy app</text>
</g>
<!-- ui_accessrights -->
<g id="node15" class="node">
<title>ui_accessrights</title>
<polygon fill="none" stroke="green" points="3346,-204.12 3220,-204.12 3220,-134.12 3346,-134.12 3346,-204.12"/>
<text text-anchor="middle" x="3283" y="-172.93" font-family="Times,serif" font-size="14.00">APP HTML5</text>
<text text-anchor="middle" x="3283" y="-141.93" font-family="Times,serif" font-size="14.00">ui_accessrights</text>
</g>
<!-- cap&#45;template&#45;html&#45;deployer&#45;&gt;ui_accessrights -->
<g id="edge13" class="edge">
<title>cap&#45;template&#45;html&#45;deployer&#45;&gt;ui_accessrights</title>
<path fill="none" stroke="green" d="M3228.77,-309.29C3235.86,-295.77 3243.72,-279.97 3250,-265.25 3256.99,-248.87 3263.64,-230.47 3269.12,-214.24"/>
<polygon fill="green" stroke="green" points="3272.54,-215.05 3272.37,-204.46 3265.89,-212.85 3272.54,-215.05"/>
<text text-anchor="middle" x="3300.5" y="-246.55" font-family="Times,serif" font-size="14.00" fill="green">deploy app</text>
</g>
<!-- ui_poweronrules -->
<g id="node16" class="node">
<title>ui_poweronrules</title>
<polygon fill="none" stroke="green" points="3498,-204.12 3364,-204.12 3364,-134.12 3498,-134.12 3498,-204.12"/>
<text text-anchor="middle" x="3431" y="-172.93" font-family="Times,serif" font-size="14.00">APP HTML5</text>
<text text-anchor="middle" x="3431" y="-141.93" font-family="Times,serif" font-size="14.00">ui_poweronrules</text>
</g>
<!-- cap&#45;template&#45;html&#45;deployer&#45;&gt;ui_poweronrules -->
<g id="edge14" class="edge">
<title>cap&#45;template&#45;html&#45;deployer&#45;&gt;ui_poweronrules</title>
<path fill="none" stroke="green" d="M3277.34,-309.41C3299.51,-296.86 3323.67,-281.66 3344,-265.25 3363.33,-249.65 3382.25,-229.69 3397.49,-212.09"/>
<polygon fill="green" stroke="green" points="3400.4,-214.08 3404.22,-204.19 3395.07,-209.54 3400.4,-214.08"/>
<text text-anchor="middle" x="3414.5" y="-246.55" font-family="Times,serif" font-size="14.00" fill="green">deploy app</text>
</g>
<!-- ui_customers -->
<g id="node17" class="node">
<title>ui_customers</title>
<polygon fill="none" stroke="green" points="3627.5,-204.12 3516.5,-204.12 3516.5,-134.12 3627.5,-134.12 3627.5,-204.12"/>
<text text-anchor="middle" x="3572" y="-172.93" font-family="Times,serif" font-size="14.00">APP HTML5</text>
<text text-anchor="middle" x="3572" y="-141.93" font-family="Times,serif" font-size="14.00">ui_customers</text>
</g>
<!-- cap&#45;template&#45;html&#45;deployer&#45;&gt;ui_customers -->
<g id="edge15" class="edge">
<title>cap&#45;template&#45;html&#45;deployer&#45;&gt;ui_customers</title>
<path fill="none" stroke="green" d="M3317.16,-319.48C3362.28,-306.94 3414.33,-289.13 3458,-265.25 3484.27,-250.88 3510.17,-229.97 3530.63,-211.41"/>
<polygon fill="green" stroke="green" points="3533.22,-213.78 3538.19,-204.43 3528.47,-208.64 3533.22,-213.78"/>
<text text-anchor="middle" x="3540.5" y="-246.55" font-family="Times,serif" font-size="14.00" fill="green">deploy app</text>
</g>
<!-- ui_ideas -->
<g id="node18" class="node">
<title>ui_ideas</title>
<polygon fill="none" stroke="green" points="3750,-204.12 3646,-204.12 3646,-134.12 3750,-134.12 3750,-204.12"/>
<text text-anchor="middle" x="3698" y="-172.93" font-family="Times,serif" font-size="14.00">APP HTML5</text>
<text text-anchor="middle" x="3698" y="-141.93" font-family="Times,serif" font-size="14.00">ui_ideas</text>
</g>
<!-- cap&#45;template&#45;html&#45;deployer&#45;&gt;ui_ideas -->
<g id="edge16" class="edge">
<title>cap&#45;template&#45;html&#45;deployer&#45;&gt;ui_ideas</title>
<path fill="none" stroke="green" d="M3317.23,-334.99C3394.53,-325.64 3499.66,-306.07 3584,-265.25 3611.48,-251.95 3637.94,-230.59 3658.44,-211.48"/>
<polygon fill="green" stroke="green" points="3660.88,-213.99 3665.71,-204.56 3656.05,-208.92 3660.88,-213.99"/>
<text text-anchor="middle" x="3667.5" y="-246.55" font-family="Times,serif" font-size="14.00" fill="green">deploy app</text>
</g>
<!-- ui_sectors -->
<g id="node19" class="node">
<title>ui_sectors</title>
<polygon fill="none" stroke="green" points="3872,-204.12 3768,-204.12 3768,-134.12 3872,-134.12 3872,-204.12"/>
<text text-anchor="middle" x="3820" y="-172.93" font-family="Times,serif" font-size="14.00">APP HTML5</text>
<text text-anchor="middle" x="3820" y="-141.93" font-family="Times,serif" font-size="14.00">ui_sectors</text>
</g>
<!-- cap&#45;template&#45;html&#45;deployer&#45;&gt;ui_sectors -->
<g id="edge17" class="edge">
<title>cap&#45;template&#45;html&#45;deployer&#45;&gt;ui_sectors</title>
<path fill="none" stroke="green" d="M3317.01,-333.76C3442.75,-321.18 3642.88,-297 3711,-265.25 3738.25,-252.55 3763.85,-230.93 3783.38,-211.5"/>
<polygon fill="green" stroke="green" points="3786.06,-213.78 3790.56,-204.19 3781.06,-208.87 3786.06,-213.78"/>
<text text-anchor="middle" x="3793.5" y="-246.55" font-family="Times,serif" font-size="14.00" fill="green">deploy app</text>
</g>
<!-- ui_businessrequirements -->
<g id="node20" class="node">
<title>ui_businessrequirements</title>
<polygon fill="none" stroke="green" points="4086,-204.12 3890,-204.12 3890,-134.12 4086,-134.12 4086,-204.12"/>
<text text-anchor="middle" x="3988" y="-172.93" font-family="Times,serif" font-size="14.00">APP HTML5</text>
<text text-anchor="middle" x="3988" y="-141.93" font-family="Times,serif" font-size="14.00">ui_businessrequirements</text>
</g>
<!-- cap&#45;template&#45;html&#45;deployer&#45;&gt;ui_businessrequirements -->
<g id="edge18" class="edge">
<title>cap&#45;template&#45;html&#45;deployer&#45;&gt;ui_businessrequirements</title>
<path fill="none" stroke="green" d="M3317.11,-335.73C3470.3,-323.76 3743.77,-298.56 3837,-265.25 3872.7,-252.5 3908.76,-230.21 3936.69,-210.41"/>
<polygon fill="green" stroke="green" points="3939.02,-213.04 3945.09,-204.36 3934.93,-207.37 3939.02,-213.04"/>
<text text-anchor="middle" x="3937.5" y="-246.55" font-family="Times,serif" font-size="14.00" fill="green">deploy app</text>
</g>
<!-- approuter -->
<g id="node24" class="node">
<title>approuter</title>
<polygon fill="none" stroke="blue" points="1338,-379.43 1232,-379.43 1228,-375.43 1228,-309.43 1334,-309.43 1338,-313.43 1338,-379.43"/>
<polyline fill="none" stroke="blue" points="1334,-375.43 1228,-375.43 "/>
<polyline fill="none" stroke="blue" points="1334,-375.43 1334,-309.43 "/>
<polyline fill="none" stroke="blue" points="1334,-375.43 1338,-379.43 "/>
<text text-anchor="middle" x="1283" y="-348.23" font-family="Times,serif" font-size="14.00">APPROUTER</text>
<text text-anchor="middle" x="1283" y="-317.23" font-family="Times,serif" font-size="14.00">approuter</text>
</g>
<!-- approuter&#45;&gt;cap&#45;template&#45;uaa -->
<g id="edge23" class="edge">
<title>approuter&#45;&gt;cap&#45;template&#45;uaa</title>
<path fill="none" stroke="black" d="M1227.93,-331.71C1168.74,-318.4 1072.31,-294.67 992,-265.25 944.96,-248.02 934.23,-240.78 890,-217.25 878.54,-211.15 866.4,-204.18 855.15,-197.5"/>
<polygon fill="black" stroke="black" points="856.74,-194.37 846.36,-192.23 853.14,-200.37 856.74,-194.37"/>
<text text-anchor="middle" x="1055.5" y="-246.55" font-family="Times,serif" font-size="14.00">use xsuaa service</text>
</g>
<!-- approuter&#45;&gt;cap&#45;application&#45;logging -->
<g id="edge27" class="edge">
<title>approuter&#45;&gt;cap&#45;application&#45;logging</title>
<path fill="none" stroke="black" d="M1227.75,-334.99C1149.64,-322.55 1002.76,-297.25 880,-265.25 838.79,-254.51 829.53,-248.33 789,-235.25 763.72,-227.09 757.13,-225.87 732,-217.25 706.79,-208.6 679.02,-198.37 655.89,-189.66"/>
<polygon fill="black" stroke="black" points="656.87,-186.29 646.28,-186.03 654.4,-192.84 656.87,-186.29"/>
<text text-anchor="middle" x="900.5" y="-246.55" font-family="Times,serif" font-size="14.00">log to</text>
</g>
<!-- cap&#45;template&#45;destination -->
<g id="node25" class="node">
<title>cap&#45;template&#45;destination</title>
<polygon fill="none" stroke="orange" points="1749,-198.12 1567,-198.12 1567,-140.12 1749,-140.12 1761,-169.12 1749,-198.12"/>
<text text-anchor="middle" x="1664" y="-172.93" font-family="Times,serif" font-size="14.00">SERVICE DESTINATION</text>
<text text-anchor="middle" x="1664" y="-141.93" font-family="Times,serif" font-size="14.00">cap&#45;template&#45;destination</text>
</g>
<!-- approuter&#45;&gt;cap&#45;template&#45;destination -->
<g id="edge22" class="edge">
<title>approuter&#45;&gt;cap&#45;template&#45;destination</title>
<path fill="none" stroke="black" d="M1338.09,-332.55C1391.45,-320.66 1473.65,-298.73 1539,-265.25 1567.55,-250.62 1596.25,-229.35 1618.94,-210.64"/>
<polygon fill="black" stroke="black" points="1621.29,-213.24 1626.71,-204.14 1616.79,-207.87 1621.29,-213.24"/>
<text text-anchor="middle" x="1598.5" y="-246.55" font-family="Times,serif" font-size="14.00">use</text>
</g>
<!-- cap&#45;template&#45;html5&#45;repo&#45;runtime -->
<g id="node26" class="node">
<title>cap&#45;template&#45;html5&#45;repo&#45;runtime</title>
<polygon fill="none" stroke="orange" points="1153,-204.12 1150,-208.12 1129,-208.12 1126,-204.12 899,-204.12 899,-134.12 1153,-134.12 1153,-204.12"/>
<text text-anchor="middle" x="1026" y="-172.93" font-family="Times,serif" font-size="14.00">SERVICE HTML5 REPOSITORY</text>
<text text-anchor="middle" x="1026" y="-141.93" font-family="Times,serif" font-size="14.00">cap&#45;template&#45;html5&#45;repo&#45;runtime</text>
</g>
<!-- approuter&#45;&gt;cap&#45;template&#45;html5&#45;repo&#45;runtime -->
<g id="edge24" class="edge">
<title>approuter&#45;&gt;cap&#45;template&#45;html5&#45;repo&#45;runtime</title>
<path fill="none" stroke="black" d="M1232.53,-309.4C1190.23,-280.88 1129.78,-240.11 1085.2,-210.05"/>
<polygon fill="black" stroke="black" points="1087.04,-207.07 1076.79,-204.38 1083.13,-212.87 1087.04,-207.07"/>
<text text-anchor="middle" x="1174.5" y="-246.55" font-family="Times,serif" font-size="14.00">use</text>
</g>
<!-- cap&#45;template&#45;portal -->
<g id="node27" class="node">
<title>cap&#45;template&#45;portal</title>
<polygon fill="none" stroke="orange" points="1779.5,-146.12 1779.5,-192.12 1936.5,-192.12 1936.5,-146.12 1779.5,-146.12"/>
<text text-anchor="middle" x="1858" y="-176.93" font-family="Times,serif" font-size="14.00">SERVICE PORTAL</text>
<polyline fill="none" stroke="orange" points="1779.5,-169.12 1936.5,-169.12 "/>
<text text-anchor="middle" x="1858" y="-153.93" font-family="Times,serif" font-size="14.00">cap&#45;template&#45;portal</text>
</g>
<!-- approuter&#45;&gt;cap&#45;template&#45;portal -->
<g id="edge25" class="edge">
<title>approuter&#45;&gt;cap&#45;template&#45;portal</title>
<path fill="none" stroke="black" d="M1338.01,-336.44C1405.4,-326.54 1522.05,-305.05 1615,-265.25 1637.44,-255.64 1638.25,-244.09 1661,-235.25 1706.76,-217.46 1723.51,-233.05 1770,-217.25 1785.08,-212.13 1800.66,-204.61 1814.46,-197.08"/>
<polygon fill="black" stroke="black" points="1816.23,-200.1 1823.24,-192.15 1812.8,-193.99 1816.23,-200.1"/>
<text text-anchor="middle" x="1673.5" y="-246.55" font-family="Times,serif" font-size="14.00">use</text>
</g>
<!-- cap&#45;template&#45;theming -->
<g id="node28" class="node">
<title>cap&#45;template&#45;theming</title>
<ellipse fill="none" stroke="black" cx="1283" cy="-169.12" rx="112.38" ry="18"/>
<text text-anchor="middle" x="1283" y="-165.43" font-family="Times,serif" font-size="14.00">cap&#45;template&#45;theming</text>
</g>
<!-- approuter&#45;&gt;cap&#45;template&#45;theming -->
<g id="edge26" class="edge">
<title>approuter&#45;&gt;cap&#45;template&#45;theming</title>
<path fill="none" stroke="black" d="M1283,-309.19C1283,-276.51 1283,-227.89 1283,-197.65"/>
<polygon fill="black" stroke="black" points="1286.5,-197.4 1283,-187.4 1279.5,-197.4 1286.5,-197.4"/>
<text text-anchor="middle" x="1295.5" y="-246.55" font-family="Times,serif" font-size="14.00">use</text>
</g>
<!-- destinations -->
<g id="node29" class="node">
<title>destinations</title>
<ellipse fill="none" stroke="black" cx="1481" cy="-169.12" rx="67.69" ry="18"/>
<text text-anchor="middle" x="1481" y="-165.43" font-family="Times,serif" font-size="14.00">destinations</text>
</g>
<!-- approuter&#45;&gt;destinations -->
<g id="edge28" class="edge">
<title>approuter&#45;&gt;destinations</title>
<path fill="none" stroke="black" d="M1322.12,-309.19C1361.35,-274.85 1420.68,-222.93 1454.64,-193.2"/>
<polygon fill="black" stroke="black" points="1457.08,-195.72 1462.29,-186.5 1452.46,-190.45 1457.08,-195.72"/>
<text text-anchor="middle" x="1470" y="-254.05" font-family="Times,serif" font-size="14.00">define enviroment</text>
<text text-anchor="middle" x="1470" y="-239.05" font-family="Times,serif" font-size="14.00">variable</text>
</g>
<!-- destinations&#45;&gt;cap&#45;services&#45;api:srv_api -->
<g id="edge34" class="edge">
<title>destinations&#45;&gt;cap&#45;services&#45;api:srv_api</title>
<path fill="none" stroke="grey" d="M1463.96,-151.65C1449.34,-138.63 1427.04,-121.32 1404,-113 1228.76,-49.69 672.78,-38.32 440.52,-36.36"/>
<polygon fill="grey" stroke="grey" points="440.41,-32.86 430.38,-36.28 440.35,-39.86 440.41,-32.86"/>
<text text-anchor="middle" x="1421.5" y="-91.8" font-family="Times,serif" font-size="14.00" fill="grey">use MTA property</text>
</g>
<!-- cap&#45;template&#45;portal&#45;deployer -->
<g id="node30" class="node">
<title>cap&#45;template&#45;portal&#45;deployer</title>
<polygon fill="none" stroke="blue" points="1970,-379.43 1750,-379.43 1746,-375.43 1746,-309.43 1966,-309.43 1970,-313.43 1970,-379.43"/>
<polyline fill="none" stroke="blue" points="1966,-375.43 1746,-375.43 "/>
<polyline fill="none" stroke="blue" points="1966,-375.43 1966,-309.43 "/>
<polyline fill="none" stroke="blue" points="1966,-375.43 1970,-379.43 "/>
<text text-anchor="middle" x="1858" y="-348.23" font-family="Times,serif" font-size="14.00">PORTAL DEPLOYER</text>
<text text-anchor="middle" x="1858" y="-317.23" font-family="Times,serif" font-size="14.00">cap&#45;template&#45;portal&#45;deployer</text>
</g>
<!-- cap&#45;template&#45;portal&#45;deployer&#45;&gt;cap&#45;template&#45;html5&#45;repo&#45;host -->
<g id="edge32" class="edge">
<title>cap&#45;template&#45;portal&#45;deployer&#45;&gt;cap&#45;template&#45;html5&#45;repo&#45;host</title>
<path fill="none" stroke="black" d="M1915.9,-309.28C1938.06,-295.9 1963.42,-280.2 1986,-265.25 2012.37,-247.8 2040.96,-227.53 2064.86,-210.2"/>
<polygon fill="black" stroke="black" points="2067.08,-212.91 2073.1,-204.2 2062.96,-207.25 2067.08,-212.91"/>
<text text-anchor="middle" x="2077" y="-246.55" font-family="Times,serif" font-size="14.00">use apps from</text>
</g>
<!-- cap&#45;template&#45;portal&#45;deployer&#45;&gt;cap&#45;template&#45;uaa -->
<g id="edge33" class="edge">
<title>cap&#45;template&#45;portal&#45;deployer&#45;&gt;cap&#45;template&#45;uaa</title>
<path fill="none" stroke="black" d="M1798.26,-309.37C1775.64,-296.06 1749.86,-280.38 1727,-265.25 1708.17,-252.78 1707.38,-242.51 1686,-235.25 1602.23,-206.82 975.02,-241.72 890,-217.25 875.41,-213.05 860.76,-205.47 848.11,-197.6"/>
<polygon fill="black" stroke="black" points="849.99,-194.65 839.7,-192.15 846.18,-200.52 849.99,-194.65"/>
<text text-anchor="middle" x="1790.5" y="-246.55" font-family="Times,serif" font-size="14.00">use xsuaa service</text>
</g>
<!-- cap&#45;template&#45;portal&#45;deployer&#45;&gt;cap&#45;template&#45;portal -->
<g id="edge31" class="edge">
<title>cap&#45;template&#45;portal&#45;deployer&#45;&gt;cap&#45;template&#45;portal</title>
<path fill="none" stroke="black" d="M1858,-309.19C1858,-278.13 1858,-232.68 1858,-202.28"/>
<polygon fill="black" stroke="black" points="1861.5,-202.21 1858,-192.21 1854.5,-202.21 1861.5,-202.21"/>
<text text-anchor="middle" x="1920" y="-246.55" font-family="Times,serif" font-size="14.00">publish apps into</text>
</g>
</g>
</svg>
