<?xml version="1.0" encoding="UTF-8" standalone="no"?>
<!DOCTYPE svg PUBLIC "-//W3C//DTD SVG 1.1//EN"
 "http://www.w3.org/Graphics/SVG/1.1/DTD/svg11.dtd">
<!-- Generated by graphviz version 2.43.0 (0)
 -->
<!-- Title: MTA Pages: 1 -->
<svg width="4368pt" height="453pt"
 viewBox="0.00 0.00 4368.00 452.61" xmlns="http://www.w3.org/2000/svg" xmlns:xlink="http://www.w3.org/1999/xlink">
<g id="graph0" class="graph" transform="scale(1 1) rotate(0) translate(4 448.61)">
<title>MTA</title>
<polygon fill="white" stroke="transparent" points="-4,4 -4,-448.61 4364,-448.61 4364,4 -4,4"/>
<g id="clust1" class="cluster">
<title>cluster_CAP_SERVICE</title>
<polygon fill="none" stroke="black" points="8,-113 8,-436.61 479,-436.61 479,-113 8,-113"/>
<text text-anchor="middle" x="243.5" y="-421.41" font-family="Times,serif" font-size="14.00">CAP SERVICE</text>
</g>
<g id="clust2" class="cluster">
<title>cluster_HTML5_APPS</title>
<polygon fill="none" stroke="black" points="1990,-126.12 1990,-410.43 4352,-410.43 4352,-126.12 1990,-126.12"/>
<text text-anchor="middle" x="3171" y="-395.23" font-family="Times,serif" font-size="14.00">HTML5 APPS</text>
</g>
<!-- cap&#45;services -->
<g id="node1" class="node">
<title>cap&#45;services</title>
<polygon fill="none" stroke="blue" points="220.02,-363.4 118,-405.8 15.98,-363.4 16.07,-294.79 219.93,-294.79 220.02,-363.4"/>
<text text-anchor="middle" x="118" y="-348.23" font-family="Times,serif" font-size="14.00">CAP SERVICE</text>
<text text-anchor="middle" x="118" y="-317.23" font-family="Times,serif" font-size="14.00">cap&#45;services</text>
</g>
<!-- cap&#45;template&#45;hanadb -->
<g id="node2" class="node">
<title>cap&#45;template&#45;hanadb</title>
<path fill="none" stroke="orange" d="M228.5,-208.6C228.5,-213.44 191.07,-217.38 145,-217.38 98.93,-217.38 61.5,-213.44 61.5,-208.6 61.5,-208.6 61.5,-129.65 61.5,-129.65 61.5,-124.81 98.93,-120.87 145,-120.87 191.07,-120.87 228.5,-124.81 228.5,-129.65 228.5,-129.65 228.5,-208.6 228.5,-208.6"/>
<path fill="none" stroke="orange" d="M228.5,-208.6C228.5,-203.76 191.07,-199.83 145,-199.83 98.93,-199.83 61.5,-203.76 61.5,-208.6"/>
<text text-anchor="middle" x="145" y="-172.93" font-family="Times,serif" font-size="14.00">HANA CLOUD</text>
<text text-anchor="middle" x="145" y="-141.93" font-family="Times,serif" font-size="14.00">cap&#45;template&#45;hanadb</text>
</g>
<!-- cap&#45;services&#45;&gt;cap&#45;template&#45;hanadb -->
<g id="edge1" class="edge">
<title>cap&#45;services&#45;&gt;cap&#45;template&#45;hanadb</title>
<path fill="none" stroke="orange" d="M95.84,-294.58C90.24,-275.77 87.44,-254.25 94,-235.25 95.02,-232.29 96.24,-229.36 97.61,-226.48"/>
<polygon fill="orange" stroke="orange" points="100.8,-227.93 102.47,-217.47 94.64,-224.61 100.8,-227.93"/>
<text text-anchor="middle" x="131.5" y="-246.55" font-family="Times,serif" font-size="14.00" fill="orange">read/write</text>
</g>
<!-- cap&#45;services&#45;api:srv_api -->
<g id="node21" class="node">
<title>cap&#45;services&#45;api:srv_api</title>
<polygon fill="none" stroke="grey" points="424,-70 244,-70 244,0 430,0 430,-64 424,-70"/>
<polyline fill="none" stroke="grey" points="424,-70 424,-64 "/>
<polyline fill="none" stroke="grey" points="430,-64 424,-64 "/>
<text text-anchor="middle" x="337" y="-38.8" font-family="Times,serif" font-size="14.00">cap&#45;services&#45;api:srv_api</text>
<text text-anchor="middle" x="337" y="-7.8" font-family="Times,serif" font-size="14.00">${default&#45;url}</text>
</g>
<!-- cap&#45;services&#45;&gt;cap&#45;services&#45;api:srv_api -->
<g id="edge19" class="edge">
<title>cap&#45;services&#45;&gt;cap&#45;services&#45;api:srv_api</title>
<path fill="none" stroke="grey" d="M202.35,-294.7C211.2,-290.5 220.18,-286.59 229,-283.25 262.27,-270.66 283.09,-291.59 307,-265.25 313.15,-258.48 325.75,-145.16 332.5,-80.43"/>
<polygon fill="grey" stroke="grey" points="335.98,-80.79 333.53,-70.48 329.01,-80.07 335.98,-80.79"/>
<text text-anchor="middle" x="403" y="-165.43" font-family="Times,serif" font-size="14.00" fill="grey">define MTA property</text>
</g>
<!-- cap&#45;template&#45;uaa -->
<g id="node22" class="node">
<title>cap&#45;template&#45;uaa</title>
<polygon fill="none" stroke="orange" points="741,-146.12 741,-192.12 881,-192.12 881,-146.12 741,-146.12"/>
<text text-anchor="middle" x="811" y="-176.93" font-family="Times,serif" font-size="14.00">SERVICE XSUAA</text>
<polyline fill="none" stroke="orange" points="741,-169.12 881,-169.12 "/>
<text text-anchor="middle" x="811" y="-153.93" font-family="Times,serif" font-size="14.00">cap&#45;template&#45;uaa</text>
</g>
<!-- cap&#45;services&#45;&gt;cap&#45;template&#45;uaa -->
<g id="edge20" class="edge">
<title>cap&#45;services&#45;&gt;cap&#45;template&#45;uaa</title>
<path fill="none" stroke="black" d="M198.44,-294.78C208.47,-290.24 218.79,-286.23 229,-283.25 283.32,-267.41 433.46,-292.6 483,-265.25 497.48,-257.26 490.56,-243.3 505,-235.25 549.2,-210.61 683.79,-232.61 732,-217.25 746.08,-212.76 760.3,-205.36 772.73,-197.74"/>
<polygon fill="black" stroke="black" points="774.88,-200.52 781.43,-192.19 771.12,-194.62 774.88,-200.52"/>
<text text-anchor="middle" x="568.5" y="-246.55" font-family="Times,serif" font-size="14.00">use xsuaa service</text>
</g>
<!-- cap&#45;application&#45;logging -->
<g id="node23" class="node">
<title>cap&#45;application&#45;logging</title>
<ellipse fill="none" stroke="black" cx="605" cy="-169.12" rx="118.08" ry="18"/>
<text text-anchor="middle" x="605" y="-165.43" font-family="Times,serif" font-size="14.00">cap&#45;application&#45;logging</text>
</g>
<!-- cap&#45;services&#45;&gt;cap&#45;application&#45;logging -->
<g id="edge21" class="edge">
<title>cap&#45;services&#45;&gt;cap&#45;application&#45;logging</title>
<path fill="none" stroke="black" d="M200.92,-294.77C210.21,-290.44 219.68,-286.48 229,-283.25 273.32,-267.87 290.7,-285.53 333,-265.25 351.17,-256.54 348.75,-243.81 367,-235.25 414.24,-213.1 432.6,-230.73 483,-217.25 509.01,-210.3 537.09,-199.68 559.75,-190.28"/>
<polygon fill="black" stroke="black" points="561.25,-193.44 569.11,-186.34 558.54,-186.99 561.25,-193.44"/>
<text text-anchor="middle" x="387.5" y="-246.55" font-family="Times,serif" font-size="14.00">log to</text>
</g>
<!-- cap&#45;template&#45;hanadb&#45;deployer -->
<g id="node3" class="node">
<title>cap&#45;template&#45;hanadb&#45;deployer</title>
<polygon fill="none" stroke="blue" points="471.5,-379.43 242.5,-379.43 238.5,-375.43 238.5,-309.43 467.5,-309.43 471.5,-313.43 471.5,-379.43"/>
<polyline fill="none" stroke="blue" points="467.5,-375.43 238.5,-375.43 "/>
<polyline fill="none" stroke="blue" points="467.5,-375.43 467.5,-309.43 "/>
<polyline fill="none" stroke="blue" points="467.5,-375.43 471.5,-379.43 "/>
<text text-anchor="middle" x="355" y="-348.23" font-family="Times,serif" font-size="14.00">DB DEPLOYER</text>
<text text-anchor="middle" x="355" y="-317.23" font-family="Times,serif" font-size="14.00">cap&#45;template&#45;hanadb&#45;deployer</text>
</g>
<!-- cap&#45;template&#45;hanadb&#45;deployer&#45;&gt;cap&#45;template&#45;hanadb -->
<g id="edge2" class="edge">
<title>cap&#45;template&#45;hanadb&#45;deployer&#45;&gt;cap&#45;template&#45;hanadb</title>
<path fill="none" stroke="orange" d="M282.8,-309.27C260.77,-297.05 237.29,-282.08 218,-265.25 204.76,-253.69 192.31,-239.41 181.57,-225.46"/>
<polygon fill="orange" stroke="orange" points="184.26,-223.21 175.45,-217.31 178.66,-227.41 184.26,-223.21"/>
<text text-anchor="middle" x="275.5" y="-246.55" font-family="Times,serif" font-size="14.00" fill="orange">deploy tables to</text>
</g>
<!-- cap&#45;template&#45;hanadb&#45;deployer&#45;&gt;cap&#45;template&#45;uaa -->
<g id="edge29" class="edge">
<title>cap&#45;template&#45;hanadb&#45;deployer&#45;&gt;cap&#45;template&#45;uaa</title>
<path fill="none" stroke="black" d="M471.7,-326.81C524.81,-315.4 586.68,-296.45 636,-265.25 650.91,-255.82 647,-244.54 662,-235.25 689.32,-218.34 702.35,-229.6 732,-217.25 744.8,-211.92 758.01,-204.78 769.88,-197.67"/>
<polygon fill="black" stroke="black" points="771.98,-200.49 778.66,-192.27 768.31,-194.53 771.98,-200.49"/>
<text text-anchor="middle" x="725.5" y="-246.55" font-family="Times,serif" font-size="14.00">use xsuaa service</text>
</g>
<!-- cap&#45;template&#45;hanadb&#45;deployer&#45;&gt;cap&#45;application&#45;logging -->
<g id="edge30" class="edge">
<title>cap&#45;template&#45;hanadb&#45;deployer&#45;&gt;cap&#45;application&#45;logging</title>
<path fill="none" stroke="black" d="M375.69,-309.28C391.4,-285.79 414.87,-255.31 442,-235.25 446.85,-231.67 507.98,-207.63 553.97,-189.79"/>
<polygon fill="black" stroke="black" points="555.46,-192.97 563.52,-186.09 552.94,-186.44 555.46,-192.97"/>
<text text-anchor="middle" x="462.5" y="-246.55" font-family="Times,serif" font-size="14.00">log to</text>
</g>
<!-- cap&#45;template&#45;html&#45;deployer -->
<g id="node4" class="node">
<title>cap&#45;template&#45;html&#45;deployer</title>
<polygon fill="none" stroke="blue" points="3303,-379.43 3093,-379.43 3089,-375.43 3089,-309.43 3299,-309.43 3303,-313.43 3303,-379.43"/>
<polyline fill="none" stroke="blue" points="3299,-375.43 3089,-375.43 "/>
<polyline fill="none" stroke="blue" points="3299,-375.43 3299,-309.43 "/>
<polyline fill="none" stroke="blue" points="3299,-375.43 3303,-379.43 "/>
<text text-anchor="middle" x="3196" y="-348.23" font-family="Times,serif" font-size="14.00">DEPLOYER</text>
<text text-anchor="middle" x="3196" y="-317.23" font-family="Times,serif" font-size="14.00">cap&#45;template&#45;html&#45;deployer</text>
</g>
<!-- cap&#45;template&#45;html5&#45;repo&#45;host -->
<g id="node5" class="node">
<title>cap&#45;template&#45;html5&#45;repo&#45;host</title>
<polygon fill="none" stroke="orange" points="2226,-204.12 2223,-208.12 2202,-208.12 2199,-204.12 1998,-204.12 1998,-134.12 2226,-134.12 2226,-204.12"/>
<text text-anchor="middle" x="2112" y="-172.93" font-family="Times,serif" font-size="14.00">HTML5 REPOSITORY</text>
<text text-anchor="middle" x="2112" y="-141.93" font-family="Times,serif" font-size="14.00">cap&#45;template&#45;html5&#45;repo&#45;host</text>
</g>
<!-- cap&#45;template&#45;html&#45;deployer&#45;&gt;cap&#45;template&#45;html5&#45;repo&#45;host -->
<g id="edge3" class="edge">
<title>cap&#45;template&#45;html&#45;deployer&#45;&gt;cap&#45;template&#45;html5&#45;repo&#45;host</title>
<path fill="none" stroke="black" d="M3088.73,-338.78C2885.98,-329.2 2453.97,-304.78 2310,-265.25 2263.7,-252.54 2215.05,-229.32 2177.56,-209.01"/>
<polygon fill="black" stroke="black" points="2179.21,-205.92 2168.76,-204.18 2175.85,-212.06 2179.21,-205.92"/>
<text text-anchor="middle" x="2362.5" y="-246.55" font-family="Times,serif" font-size="14.00">deploy apps to</text>
</g>
<!-- ui_datacenters -->
<g id="node6" class="node">
<title>ui_datacenters</title>
<polygon fill="none" stroke="green" points="4212,-204.12 4090,-204.12 4090,-134.12 4212,-134.12 4212,-204.12"/>
<text text-anchor="middle" x="4151" y="-172.93" font-family="Times,serif" font-size="14.00">APP HTML5</text>
<text text-anchor="middle" x="4151" y="-141.93" font-family="Times,serif" font-size="14.00">ui_datacenters</text>
</g>
<!-- cap&#45;template&#45;html&#45;deployer&#45;&gt;ui_datacenters -->
<g id="edge4" class="edge">
<title>cap&#45;template&#45;html&#45;deployer&#45;&gt;ui_datacenters</title>
<path fill="none" stroke="green" d="M3303.12,-342.55C3453.64,-339.08 3735.28,-324.37 3967,-265.25 4020.27,-251.66 4032.64,-243.39 4081,-217.25 4085.29,-214.93 4089.64,-212.42 4093.97,-209.81"/>
<polygon fill="green" stroke="green" points="4096.15,-212.58 4102.8,-204.33 4092.46,-206.63 4096.15,-212.58"/>
<text text-anchor="middle" x="4086.5" y="-246.55" font-family="Times,serif" font-size="14.00" fill="green">deploy app</text>
</g>
<!-- ui_employees -->
<g id="node7" class="node">
<title>ui_employees</title>
<polygon fill="none" stroke="green" points="4343.5,-204.12 4230.5,-204.12 4230.5,-134.12 4343.5,-134.12 4343.5,-204.12"/>
<text text-anchor="middle" x="4287" y="-172.93" font-family="Times,serif" font-size="14.00">APP HTML5</text>
<text text-anchor="middle" x="4287" y="-141.93" font-family="Times,serif" font-size="14.00">ui_employees</text>
</g>
<!-- cap&#45;template&#45;html&#45;deployer&#45;&gt;ui_employees -->
<g id="edge5" class="edge">
<title>cap&#45;template&#45;html&#45;deployer&#45;&gt;ui_employees</title>
<path fill="none" stroke="green" d="M3303.07,-339.84C3514.32,-331.89 3977.53,-309.83 4130,-265.25 4168.42,-254.02 4206.93,-230.91 4236.2,-210.28"/>
<polygon fill="green" stroke="green" points="4238.5,-212.93 4244.59,-204.26 4234.42,-207.25 4238.5,-212.93"/>
<text text-anchor="middle" x="4233.5" y="-246.55" font-family="Times,serif" font-size="14.00" fill="green">deploy app</text>
</g>
<!-- ui_systems -->
<g id="node8" class="node">
<title>ui_systems</title>
<polygon fill="none" stroke="green" points="2348,-204.12 2244,-204.12 2244,-134.12 2348,-134.12 2348,-204.12"/>
<text text-anchor="middle" x="2296" y="-172.93" font-family="Times,serif" font-size="14.00">APP HTML5</text>
<text text-anchor="middle" x="2296" y="-141.93" font-family="Times,serif" font-size="14.00">ui_systems</text>
</g>
<!-- cap&#45;template&#45;html&#45;deployer&#45;&gt;ui_systems -->
<g id="edge6" class="edge">
<title>cap&#45;template&#45;html&#45;deployer&#45;&gt;ui_systems</title>
<path fill="none" stroke="green" d="M3088.82,-340.75C2910.32,-334.87 2560.77,-316.96 2450,-265.25 2432.63,-257.14 2435.58,-244.87 2419,-235.25 2394.18,-220.85 2382.58,-230.25 2357,-217.25 2352.75,-215.09 2348.5,-212.62 2344.34,-209.96"/>
<polygon fill="green" stroke="green" points="2346.18,-206.99 2335.93,-204.3 2342.27,-212.79 2346.18,-206.99"/>
<text text-anchor="middle" x="2489.5" y="-246.55" font-family="Times,serif" font-size="14.00" fill="green">deploy app</text>
</g>
<!-- ui_products -->
<g id="node9" class="node">
<title>ui_products</title>
<polygon fill="none" stroke="green" points="2470,-204.12 2366,-204.12 2366,-134.12 2470,-134.12 2470,-204.12"/>
<text text-anchor="middle" x="2418" y="-172.93" font-family="Times,serif" font-size="14.00">APP HTML5</text>
<text text-anchor="middle" x="2418" y="-141.93" font-family="Times,serif" font-size="14.00">ui_products</text>
</g>
<!-- cap&#45;template&#45;html&#45;deployer&#45;&gt;ui_products -->
<g id="edge7" class="edge">
<title>cap&#45;template&#45;html&#45;deployer&#45;&gt;ui_products</title>
<path fill="none" stroke="green" d="M3088.74,-341.3C2965.43,-336.2 2758.24,-319.45 2589,-265.25 2562.11,-256.64 2558.93,-246.42 2533,-235.25 2509.77,-225.24 2501.32,-229.15 2479,-217.25 2474.97,-215.1 2470.93,-212.69 2466.96,-210.12"/>
<polygon fill="green" stroke="green" points="2468.63,-207.03 2458.4,-204.3 2464.69,-212.81 2468.63,-207.03"/>
<text text-anchor="middle" x="2628.5" y="-246.55" font-family="Times,serif" font-size="14.00" fill="green">deploy app</text>
</g>
<!-- ui_servers -->
<g id="node10" class="node">
<title>ui_servers</title>
<polygon fill="none" stroke="green" points="2592,-204.12 2488,-204.12 2488,-134.12 2592,-134.12 2592,-204.12"/>
<text text-anchor="middle" x="2540" y="-172.93" font-family="Times,serif" font-size="14.00">APP HTML5</text>
<text text-anchor="middle" x="2540" y="-141.93" font-family="Times,serif" font-size="14.00">ui_servers</text>
</g>
<!-- cap&#45;template&#45;html&#45;deployer&#45;&gt;ui_servers -->
<g id="edge8" class="edge">
<title>cap&#45;template&#45;html&#45;deployer&#45;&gt;ui_servers</title>
<path fill="none" stroke="green" d="M3088.8,-341.58C2987.31,-336.34 2832.65,-319.13 2710,-265.25 2690.3,-256.6 2691.28,-244.8 2672,-235.25 2643.22,-220.99 2630.91,-231.25 2602,-217.25 2597.48,-215.06 2592.96,-212.51 2588.54,-209.76"/>
<polygon fill="green" stroke="green" points="2590.47,-206.84 2580.2,-204.24 2586.61,-212.68 2590.47,-206.84"/>
<text text-anchor="middle" x="2749.5" y="-246.55" font-family="Times,serif" font-size="14.00" fill="green">deploy app</text>
</g>
<!-- ui_solutionsalteaup -->
<g id="node11" class="node">
<title>ui_solutionsalteaup</title>
<polygon fill="none" stroke="green" points="2765.5,-204.12 2610.5,-204.12 2610.5,-134.12 2765.5,-134.12 2765.5,-204.12"/>
<text text-anchor="middle" x="2688" y="-172.93" font-family="Times,serif" font-size="14.00">APP HTML5</text>
<text text-anchor="middle" x="2688" y="-141.93" font-family="Times,serif" font-size="14.00">ui_solutionsalteaup</text>
</g>
<!-- cap&#45;template&#45;html&#45;deployer&#45;&gt;ui_solutionsalteaup -->
<g id="edge9" class="edge">
<title>cap&#45;template&#45;html&#45;deployer&#45;&gt;ui_solutionsalteaup</title>
<path fill="none" stroke="green" d="M3088.72,-337.29C3010.98,-329.06 2905.49,-309.89 2823,-265.25 2806.42,-256.28 2807.78,-246.96 2793,-235.25 2781.73,-226.32 2769.17,-217.6 2756.75,-209.59"/>
<polygon fill="green" stroke="green" points="2758.52,-206.57 2748.2,-204.17 2754.77,-212.48 2758.52,-206.57"/>
<text text-anchor="middle" x="2862.5" y="-246.55" font-family="Times,serif" font-size="14.00" fill="green">deploy app</text>
</g>
<!-- ui_typologies -->
<g id="node12" class="node">
<title>ui_typologies</title>
<polygon fill="none" stroke="green" points="2894,-204.12 2784,-204.12 2784,-134.12 2894,-134.12 2894,-204.12"/>
<text text-anchor="middle" x="2839" y="-172.93" font-family="Times,serif" font-size="14.00">APP HTML5</text>
<text text-anchor="middle" x="2839" y="-141.93" font-family="Times,serif" font-size="14.00">ui_typologies</text>
</g>
<!-- cap&#45;template&#45;html&#45;deployer&#45;&gt;ui_typologies -->
<g id="edge10" class="edge">
<title>cap&#45;template&#45;html&#45;deployer&#45;&gt;ui_typologies</title>
<path fill="none" stroke="green" d="M3088.76,-319.71C3043.86,-307.22 2992.19,-289.39 2949,-265.25 2923.4,-250.94 2898.39,-230.03 2878.69,-211.46"/>
<polygon fill="green" stroke="green" points="2881.06,-208.87 2871.42,-204.47 2876.21,-213.92 2881.06,-208.87"/>
<text text-anchor="middle" x="2988.5" y="-246.55" font-family="Times,serif" font-size="14.00" fill="green">deploy app</text>
</g>
<!-- ui_systemstatus -->
<g id="node13" class="node">
<title>ui_systemstatus</title>
<polygon fill="none" stroke="green" points="3044,-204.12 2912,-204.12 2912,-134.12 3044,-134.12 3044,-204.12"/>
<text text-anchor="middle" x="2978" y="-172.93" font-family="Times,serif" font-size="14.00">APP HTML5</text>
<text text-anchor="middle" x="2978" y="-141.93" font-family="Times,serif" font-size="14.00">ui_systemstatus</text>
</g>
<!-- cap&#45;template&#45;html&#45;deployer&#45;&gt;ui_systemstatus -->
<g id="edge11" class="edge">
<title>cap&#45;template&#45;html&#45;deployer&#45;&gt;ui_systemstatus</title>
<path fill="none" stroke="green" d="M3128.73,-309.28C3106.81,-296.77 3082.99,-281.63 3063,-265.25 3043.99,-249.67 3025.48,-229.72 3010.62,-212.11"/>
<polygon fill="green" stroke="green" points="3013.14,-209.67 3004.05,-204.21 3007.75,-214.14 3013.14,-209.67"/>
<text text-anchor="middle" x="3102.5" y="-246.55" font-family="Times,serif" font-size="14.00" fill="green">deploy app</text>
</g>
<!-- ui_futurestatus -->
<g id="node14" class="node">
<title>ui_futurestatus</title>
<polygon fill="none" stroke="green" points="3187.5,-204.12 3062.5,-204.12 3062.5,-134.12 3187.5,-134.12 3187.5,-204.12"/>
<text text-anchor="middle" x="3125" y="-172.93" font-family="Times,serif" font-size="14.00">APP HTML5</text>
<text text-anchor="middle" x="3125" y="-141.93" font-family="Times,serif" font-size="14.00">ui_futurestatus</text>
</g>
<!-- cap&#45;template&#45;html&#45;deployer&#45;&gt;ui_futurestatus -->
<g id="edge12" class="edge">
<title>cap&#45;template&#45;html&#45;deployer&#45;&gt;ui_futurestatus</title>
<path fill="none" stroke="green" d="M3177.68,-309.27C3170.77,-295.75 3163.11,-279.96 3157,-265.25 3150.19,-248.86 3143.74,-230.45 3138.43,-214.23"/>
<polygon fill="green" stroke="green" points="3141.68,-212.89 3135.28,-204.45 3135.01,-215.04 3141.68,-212.89"/>
<text text-anchor="middle" x="3196.5" y="-246.55" font-family="Times,serif" font-size="14.00" fill="green">deploy app</text>
</g>
<!-- ui_accessrights -->
<g id="node15" class="node">
<title>ui_accessrights</title>
<polygon fill="none" stroke="green" points="3332,-204.12 3206,-204.12 3206,-134.12 3332,-134.12 3332,-204.12"/>
<text text-anchor="middle" x="3269" y="-172.93" font-family="Times,serif" font-size="14.00">APP HTML5</text>
<text text-anchor="middle" x="3269" y="-141.93" font-family="Times,serif" font-size="14.00">ui_accessrights</text>
</g>
<!-- cap&#45;template&#45;html&#45;deployer&#45;&gt;ui_accessrights -->
<g id="edge13" class="edge">
<title>cap&#45;template&#45;html&#45;deployer&#45;&gt;ui_accessrights</title>
<path fill="none" stroke="green" d="M3214.77,-309.29C3221.86,-295.77 3229.72,-279.97 3236,-265.25 3242.99,-248.87 3249.64,-230.47 3255.12,-214.24"/>
<polygon fill="green" stroke="green" points="3258.54,-215.05 3258.37,-204.46 3251.89,-212.85 3258.54,-215.05"/>
<text text-anchor="middle" x="3286.5" y="-246.55" font-family="Times,serif" font-size="14.00" fill="green">deploy app</text>
</g>
<!-- ui_poweronrules -->
<g id="node16" class="node">
<title>ui_poweronrules</title>
<polygon fill="none" stroke="green" points="3484,-204.12 3350,-204.12 3350,-134.12 3484,-134.12 3484,-204.12"/>
<text text-anchor="middle" x="3417" y="-172.93" font-family="Times,serif" font-size="14.00">APP HTML5</text>
<text text-anchor="middle" x="3417" y="-141.93" font-family="Times,serif" font-size="14.00">ui_poweronrules</text>
</g>
<!-- cap&#45;template&#45;html&#45;deployer&#45;&gt;ui_poweronrules -->
<g id="edge14" class="edge">
<title>cap&#45;template&#45;html&#45;deployer&#45;&gt;ui_poweronrules</title>
<path fill="none" stroke="green" d="M3263.34,-309.41C3285.51,-296.86 3309.67,-281.66 3330,-265.25 3349.33,-249.65 3368.25,-229.69 3383.49,-212.09"/>
<polygon fill="green" stroke="green" points="3386.4,-214.08 3390.22,-204.19 3381.07,-209.54 3386.4,-214.08"/>
<text text-anchor="middle" x="3400.5" y="-246.55" font-family="Times,serif" font-size="14.00" fill="green">deploy app</text>
</g>
<!-- ui_customers -->
<g id="node17" class="node">
<title>ui_customers</title>
<polygon fill="none" stroke="green" points="3613.5,-204.12 3502.5,-204.12 3502.5,-134.12 3613.5,-134.12 3613.5,-204.12"/>
<text text-anchor="middle" x="3558" y="-172.93" font-family="Times,serif" font-size="14.00">APP HTML5</text>
<text text-anchor="middle" x="3558" y="-141.93" font-family="Times,serif" font-size="14.00">ui_customers</text>
</g>
<!-- cap&#45;template&#45;html&#45;deployer&#45;&gt;ui_customers -->
<g id="edge15" class="edge">
<title>cap&#45;template&#45;html&#45;deployer&#45;&gt;ui_customers</title>
<path fill="none" stroke="green" d="M3303.16,-319.48C3348.28,-306.94 3400.33,-289.13 3444,-265.25 3470.27,-250.88 3496.17,-229.97 3516.63,-211.41"/>
<polygon fill="green" stroke="green" points="3519.22,-213.78 3524.19,-204.43 3514.47,-208.64 3519.22,-213.78"/>
<text text-anchor="middle" x="3526.5" y="-246.55" font-family="Times,serif" font-size="14.00" fill="green">deploy app</text>
</g>
<!-- ui_ideas -->
<g id="node18" class="node">
<title>ui_ideas</title>
<polygon fill="none" stroke="green" points="3736,-204.12 3632,-204.12 3632,-134.12 3736,-134.12 3736,-204.12"/>
<text text-anchor="middle" x="3684" y="-172.93" font-family="Times,serif" font-size="14.00">APP HTML5</text>
<text text-anchor="middle" x="3684" y="-141.93" font-family="Times,serif" font-size="14.00">ui_ideas</text>
</g>
<!-- cap&#45;template&#45;html&#45;deployer&#45;&gt;ui_ideas -->
<g id="edge16" class="edge">
<title>cap&#45;template&#45;html&#45;deployer&#45;&gt;ui_ideas</title>
<path fill="none" stroke="green" d="M3303.23,-334.99C3380.53,-325.64 3485.66,-306.07 3570,-265.25 3597.48,-251.95 3623.94,-230.59 3644.44,-211.48"/>
<polygon fill="green" stroke="green" points="3646.88,-213.99 3651.71,-204.56 3642.05,-208.92 3646.88,-213.99"/>
<text text-anchor="middle" x="3653.5" y="-246.55" font-family="Times,serif" font-size="14.00" fill="green">deploy app</text>
</g>
<!-- ui_sectors -->
<g id="node19" class="node">
<title>ui_sectors</title>
<polygon fill="none" stroke="green" points="3858,-204.12 3754,-204.12 3754,-134.12 3858,-134.12 3858,-204.12"/>
<text text-anchor="middle" x="3806" y="-172.93" font-family="Times,serif" font-size="14.00">APP HTML5</text>
<text text-anchor="middle" x="3806" y="-141.93" font-family="Times,serif" font-size="14.00">ui_sectors</text>
</g>
<!-- cap&#45;template&#45;html&#45;deployer&#45;&gt;ui_sectors -->
<g id="edge17" class="edge">
<title>cap&#45;template&#45;html&#45;deployer&#45;&gt;ui_sectors</title>
<path fill="none" stroke="green" d="M3303.01,-333.76C3428.75,-321.18 3628.88,-297 3697,-265.25 3724.25,-252.55 3749.85,-230.93 3769.38,-211.5"/>
<polygon fill="green" stroke="green" points="3772.06,-213.78 3776.56,-204.19 3767.06,-208.87 3772.06,-213.78"/>
<text text-anchor="middle" x="3779.5" y="-246.55" font-family="Times,serif" font-size="14.00" fill="green">deploy app</text>
</g>
<!-- ui_businessrequirements -->
<g id="node20" class="node">
<title>ui_businessrequirements</title>
<polygon fill="none" stroke="green" points="4072,-204.12 3876,-204.12 3876,-134.12 4072,-134.12 4072,-204.12"/>
<text text-anchor="middle" x="3974" y="-172.93" font-family="Times,serif" font-size="14.00">APP HTML5</text>
<text text-anchor="middle" x="3974" y="-141.93" font-family="Times,serif" font-size="14.00">ui_businessrequirements</text>
</g>
<!-- cap&#45;template&#45;html&#45;deployer&#45;&gt;ui_businessrequirements -->
<g id="edge18" class="edge">
<title>cap&#45;template&#45;html&#45;deployer&#45;&gt;ui_businessrequirements</title>
<path fill="none" stroke="green" d="M3303.11,-335.73C3456.3,-323.76 3729.77,-298.56 3823,-265.25 3858.7,-252.5 3894.76,-230.21 3922.69,-210.41"/>
<polygon fill="green" stroke="green" points="3925.02,-213.04 3931.09,-204.36 3920.93,-207.37 3925.02,-213.04"/>
<text text-anchor="middle" x="3923.5" y="-246.55" font-family="Times,serif" font-size="14.00" fill="green">deploy app</text>
</g>
<!-- approuter -->
<g id="node24" class="node">
<title>approuter</title>
<polygon fill="none" stroke="blue" points="1338,-379.43 1232,-379.43 1228,-375.43 1228,-309.43 1334,-309.43 1338,-313.43 1338,-379.43"/>
<polyline fill="none" stroke="blue" points="1334,-375.43 1228,-375.43 "/>
<polyline fill="none" stroke="blue" points="1334,-375.43 1334,-309.43 "/>
<polyline fill="none" stroke="blue" points="1334,-375.43 1338,-379.43 "/>
<text text-anchor="middle" x="1283" y="-348.23" font-family="Times,serif" font-size="14.00">APPROUTER</text>
<text text-anchor="middle" x="1283" y="-317.23" font-family="Times,serif" font-size="14.00">approuter</text>
</g>
<!-- approuter&#45;&gt;cap&#45;template&#45;uaa -->
<g id="edge23" class="edge">
<title>approuter&#45;&gt;cap&#45;template&#45;uaa</title>
<path fill="none" stroke="black" d="M1227.93,-331.71C1168.74,-318.4 1072.31,-294.67 992,-265.25 944.96,-248.02 934.23,-240.78 890,-217.25 878.54,-211.15 866.4,-204.18 855.15,-197.5"/>
<polygon fill="black" stroke="black" points="856.74,-194.37 846.36,-192.23 853.14,-200.37 856.74,-194.37"/>
<text text-anchor="middle" x="1055.5" y="-246.55" font-family="Times,serif" font-size="14.00">use xsuaa service</text>
</g>
<!-- approuter&#45;&gt;cap&#45;application&#45;logging -->
<g id="edge27" class="edge">
<title>approuter&#45;&gt;cap&#45;application&#45;logging</title>
<path fill="none" stroke="black" d="M1227.75,-334.99C1149.64,-322.55 1002.76,-297.25 880,-265.25 838.79,-254.51 829.53,-248.33 789,-235.25 763.72,-227.09 757.13,-225.87 732,-217.25 706.79,-208.6 679.02,-198.37 655.89,-189.66"/>
<polygon fill="black" stroke="black" points="656.87,-186.29 646.28,-186.03 654.4,-192.84 656.87,-186.29"/>
<text text-anchor="middle" x="900.5" y="-246.55" font-family="Times,serif" font-size="14.00">log to</text>
</g>
<!-- cap&#45;template&#45;destination -->
<g id="node25" class="node">
<title>cap&#45;template&#45;destination</title>
<polygon fill="none" stroke="orange" points="1749,-198.12 1567,-198.12 1567,-140.12 1749,-140.12 1761,-169.12 1749,-198.12"/>
<text text-anchor="middle" x="1664" y="-172.93" font-family="Times,serif" font-size="14.00">SERVICE DESTINATION</text>
<text text-anchor="middle" x="1664" y="-141.93" font-family="Times,serif" font-size="14.00">cap&#45;template&#45;destination</text>
</g>
<!-- approuter&#45;&gt;cap&#45;template&#45;destination -->
<g id="edge22" class="edge">
<title>approuter&#45;&gt;cap&#45;template&#45;destination</title>
<path fill="none" stroke="black" d="M1338.09,-332.55C1391.45,-320.66 1473.65,-298.73 1539,-265.25 1567.55,-250.62 1596.25,-229.35 1618.94,-210.64"/>
<polygon fill="black" stroke="black" points="1621.29,-213.24 1626.71,-204.14 1616.79,-207.87 1621.29,-213.24"/>
<text text-anchor="middle" x="1598.5" y="-246.55" font-family="Times,serif" font-size="14.00">use</text>
</g>
<!-- cap&#45;template&#45;html5&#45;repo&#45;runtime -->
<g id="node26" class="node">
<title>cap&#45;template&#45;html5&#45;repo&#45;runtime</title>
<polygon fill="none" stroke="orange" points="1153,-204.12 1150,-208.12 1129,-208.12 1126,-204.12 899,-204.12 899,-134.12 1153,-134.12 1153,-204.12"/>
<text text-anchor="middle" x="1026" y="-172.93" font-family="Times,serif" font-size="14.00">HTML5 REPOSITORY</text>
<text text-anchor="middle" x="1026" y="-141.93" font-family="Times,serif" font-size="14.00">cap&#45;template&#45;html5&#45;repo&#45;runtime</text>
</g>
<!-- approuter&#45;&gt;cap&#45;template&#45;html5&#45;repo&#45;runtime -->
<g id="edge24" class="edge">
<title>approuter&#45;&gt;cap&#45;template&#45;html5&#45;repo&#45;runtime</title>
<path fill="none" stroke="black" d="M1232.53,-309.4C1190.23,-280.88 1129.78,-240.11 1085.2,-210.05"/>
<polygon fill="black" stroke="black" points="1087.04,-207.07 1076.79,-204.38 1083.13,-212.87 1087.04,-207.07"/>
<text text-anchor="middle" x="1174.5" y="-246.55" font-family="Times,serif" font-size="14.00">use</text>
</g>
<!-- cap&#45;template&#45;portal -->
<g id="node27" class="node">
<title>cap&#45;template&#45;portal</title>
<polygon fill="none" stroke="orange" points="1779.5,-146.12 1779.5,-192.12 1936.5,-192.12 1936.5,-146.12 1779.5,-146.12"/>
<text text-anchor="middle" x="1858" y="-176.93" font-family="Times,serif" font-size="14.00">SERVICE PORTAL</text>
<polyline fill="none" stroke="orange" points="1779.5,-169.12 1936.5,-169.12 "/>
<text text-anchor="middle" x="1858" y="-153.93" font-family="Times,serif" font-size="14.00">cap&#45;template&#45;portal</text>
</g>
<!-- approuter&#45;&gt;cap&#45;template&#45;portal -->
<g id="edge25" class="edge">
<title>approuter&#45;&gt;cap&#45;template&#45;portal</title>
<path fill="none" stroke="black" d="M1338.01,-336.44C1405.4,-326.54 1522.05,-305.05 1615,-265.25 1637.44,-255.64 1638.25,-244.09 1661,-235.25 1706.76,-217.46 1723.51,-233.05 1770,-217.25 1785.08,-212.13 1800.66,-204.61 1814.46,-197.08"/>
<polygon fill="black" stroke="black" points="1816.23,-200.1 1823.24,-192.15 1812.8,-193.99 1816.23,-200.1"/>
<text text-anchor="middle" x="1673.5" y="-246.55" font-family="Times,serif" font-size="14.00">use</text>
</g>
<!-- cap&#45;template&#45;theming -->
<g id="node28" class="node">
<title>cap&#45;template&#45;theming</title>
<ellipse fill="none" stroke="black" cx="1283" cy="-169.12" rx="112.38" ry="18"/>
<text text-anchor="middle" x="1283" y="-165.43" font-family="Times,serif" font-size="14.00">cap&#45;template&#45;theming</text>
</g>
<!-- approuter&#45;&gt;cap&#45;template&#45;theming -->
<g id="edge26" class="edge">
<title>approuter&#45;&gt;cap&#45;template&#45;theming</title>
<path fill="none" stroke="black" d="M1283,-309.19C1283,-276.51 1283,-227.89 1283,-197.65"/>
<polygon fill="black" stroke="black" points="1286.5,-197.4 1283,-187.4 1279.5,-197.4 1286.5,-197.4"/>
<text text-anchor="middle" x="1295.5" y="-246.55" font-family="Times,serif" font-size="14.00">use</text>
</g>
<!-- destinations -->
<g id="node29" class="node">
<title>destinations</title>
<ellipse fill="none" stroke="black" cx="1481" cy="-169.12" rx="67.69" ry="18"/>
<text text-anchor="middle" x="1481" y="-165.43" font-family="Times,serif" font-size="14.00">destinations</text>
</g>
<!-- approuter&#45;&gt;destinations -->
<g id="edge28" class="edge">
<title>approuter&#45;&gt;destinations</title>
<path fill="none" stroke="black" d="M1322.12,-309.19C1361.35,-274.85 1420.68,-222.93 1454.64,-193.2"/>
<polygon fill="black" stroke="black" points="1457.08,-195.72 1462.29,-186.5 1452.46,-190.45 1457.08,-195.72"/>
<text text-anchor="middle" x="1470" y="-254.05" font-family="Times,serif" font-size="14.00">define enviroment</text>
<text text-anchor="middle" x="1470" y="-239.05" font-family="Times,serif" font-size="14.00">variable</text>
</g>
<!-- destinations&#45;&gt;cap&#45;services&#45;api:srv_api -->
<g id="edge34" class="edge">
<title>destinations&#45;&gt;cap&#45;services&#45;api:srv_api</title>
<path fill="none" stroke="grey" d="M1463.96,-151.65C1449.34,-138.63 1427.04,-121.32 1404,-113 1228.76,-49.69 672.78,-38.32 440.52,-36.36"/>
<polygon fill="grey" stroke="grey" points="440.41,-32.86 430.38,-36.28 440.35,-39.86 440.41,-32.86"/>
<text text-anchor="middle" x="1421.5" y="-91.8" font-family="Times,serif" font-size="14.00" fill="grey">use MTA property</text>
</g>
<!-- cap&#45;template&#45;portal&#45;deployer -->
<g id="node30" class="node">
<title>cap&#45;template&#45;portal&#45;deployer</title>
<polygon fill="none" stroke="blue" points="1970,-379.43 1750,-379.43 1746,-375.43 1746,-309.43 1966,-309.43 1970,-313.43 1970,-379.43"/>
<polyline fill="none" stroke="blue" points="1966,-375.43 1746,-375.43 "/>
<polyline fill="none" stroke="blue" points="1966,-375.43 1966,-309.43 "/>
<polyline fill="none" stroke="blue" points="1966,-375.43 1970,-379.43 "/>
<text text-anchor="middle" x="1858" y="-348.23" font-family="Times,serif" font-size="14.00">PORTAL DEPLOYER</text>
<text text-anchor="middle" x="1858" y="-317.23" font-family="Times,serif" font-size="14.00">cap&#45;template&#45;portal&#45;deployer</text>
</g>
<!-- cap&#45;template&#45;portal&#45;deployer&#45;&gt;cap&#45;template&#45;html5&#45;repo&#45;host -->
<g id="edge32" class="edge">
<title>cap&#45;template&#45;portal&#45;deployer&#45;&gt;cap&#45;template&#45;html5&#45;repo&#45;host</title>
<path fill="none" stroke="black" d="M1916.43,-309.4C1938.53,-296.09 1963.72,-280.41 1986,-265.25 2011.23,-248.08 2038.34,-227.86 2060.93,-210.48"/>
<polygon fill="black" stroke="black" points="2063.26,-213.1 2069.04,-204.22 2058.98,-207.56 2063.26,-213.1"/>
<text text-anchor="middle" x="2075" y="-246.55" font-family="Times,serif" font-size="14.00">use apps from</text>
</g>
<!-- cap&#45;template&#45;portal&#45;deployer&#45;&gt;cap&#45;template&#45;uaa -->
<g id="edge33" class="edge">
<title>cap&#45;template&#45;portal&#45;deployer&#45;&gt;cap&#45;template&#45;uaa</title>
<path fill="none" stroke="black" d="M1798.26,-309.37C1775.64,-296.06 1749.86,-280.38 1727,-265.25 1708.17,-252.78 1707.38,-242.51 1686,-235.25 1602.23,-206.82 975.02,-241.72 890,-217.25 875.41,-213.05 860.76,-205.47 848.11,-197.6"/>
<polygon fill="black" stroke="black" points="849.99,-194.65 839.7,-192.15 846.18,-200.52 849.99,-194.65"/>
<text text-anchor="middle" x="1790.5" y="-246.55" font-family="Times,serif" font-size="14.00">use xsuaa service</text>
</g>
<!-- cap&#45;template&#45;portal&#45;deployer&#45;&gt;cap&#45;template&#45;portal -->
<g id="edge31" class="edge">
<title>cap&#45;template&#45;portal&#45;deployer&#45;&gt;cap&#45;template&#45;portal</title>
<path fill="none" stroke="black" d="M1858,-309.19C1858,-278.13 1858,-232.68 1858,-202.28"/>
<polygon fill="black" stroke="black" points="1861.5,-202.21 1858,-192.21 1854.5,-202.21 1861.5,-202.21"/>
<text text-anchor="middle" x="1920" y="-246.55" font-family="Times,serif" font-size="14.00">publish apps into</text>
</g>
</g>
</svg>
