<?xml version="1.0" encoding="UTF-8" standalone="no"?>
<!DOCTYPE svg PUBLIC "-//W3C//DTD SVG 1.1//EN"
 "http://www.w3.org/Graphics/SVG/1.1/DTD/svg11.dtd">
<!-- Generated by graphviz version 2.43.0 (0)
 -->
<!-- Title: MTA Pages: 1 -->
<svg width="4513pt" height="426pt"
 viewBox="0.00 0.00 4513.00 426.36" xmlns="http://www.w3.org/2000/svg" xmlns:xlink="http://www.w3.org/1999/xlink">
<g id="graph0" class="graph" transform="scale(1 1) rotate(0) translate(4 422.36)">
<title>MTA</title>
<polygon fill="white" stroke="transparent" points="-4,4 -4,-422.36 4509,-422.36 4509,4 -4,4"/>
<g id="clust1" class="cluster">
<title>cluster_CAP_SERVICE</title>
<polygon fill="none" stroke="black" points="8,-130 8,-410.36 479,-410.36 479,-130 8,-130"/>
<text text-anchor="middle" x="243.5" y="-395.16" font-family="Times,serif" font-size="14.00">CAP SERVICE</text>
</g>
<g id="clust2" class="cluster">
<title>cluster_HTML5_APPS</title>
<polygon fill="none" stroke="black" points="2067,-113 2067,-384.18 4497,-384.18 4497,-113 2067,-113"/>
<text text-anchor="middle" x="3282" y="-368.98" font-family="Times,serif" font-size="14.00">HTML5 APPS</text>
</g>
<!-- cap&#45;services -->
<g id="node1" class="node">
<title>cap&#45;services</title>
<polygon fill="none" stroke="blue" points="220.02,-337.15 118,-379.55 15.98,-337.15 16.07,-268.54 219.93,-268.54 220.02,-337.15"/>
<text text-anchor="middle" x="118" y="-321.98" font-family="Times,serif" font-size="14.00">CAP SERVICE</text>
<text text-anchor="middle" x="118" y="-290.98" font-family="Times,serif" font-size="14.00">cap&#45;services</text>
</g>
<!-- cap&#45;template&#45;hanadb -->
<g id="node2" class="node">
<title>cap&#45;template&#45;hanadb</title>
<ellipse fill="none" stroke="black" cx="151" cy="-156" rx="108.58" ry="18"/>
<text text-anchor="middle" x="151" y="-152.3" font-family="Times,serif" font-size="14.00">cap&#45;template&#45;hanadb</text>
</g>
<!-- cap&#45;services&#45;&gt;cap&#45;template&#45;hanadb -->
<g id="edge1" class="edge">
<title>cap&#45;services&#45;&gt;cap&#45;template&#45;hanadb</title>
<path fill="none" stroke="orange" d="M94.46,-268.5C88.47,-249.41 85.77,-227.66 94,-209 98.89,-197.91 107.45,-188.16 116.47,-180.2"/>
<polygon fill="orange" stroke="orange" points="118.92,-182.71 124.43,-173.66 114.48,-177.3 118.92,-182.71"/>
<text text-anchor="middle" x="131.5" y="-220.3" font-family="Times,serif" font-size="14.00" fill="orange">read/write</text>
</g>
<!-- cap&#45;services&#45;api:srv_api -->
<g id="node21" class="node">
<title>cap&#45;services&#45;api:srv_api</title>
<polygon fill="none" stroke="grey" points="424,-70 244,-70 244,0 430,0 430,-64 424,-70"/>
<polyline fill="none" stroke="grey" points="424,-70 424,-64 "/>
<polyline fill="none" stroke="grey" points="430,-64 424,-64 "/>
<text text-anchor="middle" x="337" y="-38.8" font-family="Times,serif" font-size="14.00">cap&#45;services&#45;api:srv_api</text>
<text text-anchor="middle" x="337" y="-7.8" font-family="Times,serif" font-size="14.00">${default&#45;url}</text>
</g>
<!-- cap&#45;services&#45;&gt;cap&#45;services&#45;api:srv_api -->
<g id="edge19" class="edge">
<title>cap&#45;services&#45;&gt;cap&#45;services&#45;api:srv_api</title>
<path fill="none" stroke="grey" d="M202.35,-268.45C211.2,-264.25 220.18,-260.34 229,-257 262.27,-244.41 282.87,-265.14 307,-239 317.61,-227.51 327.77,-136.3 333.12,-80.12"/>
<polygon fill="grey" stroke="grey" points="336.61,-80.35 334.06,-70.06 329.64,-79.69 336.61,-80.35"/>
<text text-anchor="middle" x="404" y="-152.3" font-family="Times,serif" font-size="14.00" fill="grey">define MTA property</text>
</g>
<!-- cap&#45;template&#45;uaa -->
<g id="node22" class="node">
<title>cap&#45;template&#45;uaa</title>
<polygon fill="none" stroke="orange" points="741,-133 741,-179 881,-179 881,-133 741,-133"/>
<text text-anchor="middle" x="811" y="-163.8" font-family="Times,serif" font-size="14.00">SERVICE XSUAA</text>
<polyline fill="none" stroke="orange" points="741,-156 881,-156 "/>
<text text-anchor="middle" x="811" y="-140.8" font-family="Times,serif" font-size="14.00">cap&#45;template&#45;uaa</text>
</g>
<!-- cap&#45;services&#45;&gt;cap&#45;template&#45;uaa -->
<g id="edge20" class="edge">
<title>cap&#45;services&#45;&gt;cap&#45;template&#45;uaa</title>
<path fill="none" stroke="black" d="M198.42,-268.45C208.45,-263.92 218.78,-259.94 229,-257 289.77,-239.52 457.52,-269.36 513,-239 527.5,-231.06 520.61,-217.14 535,-209 573.27,-187.36 689.39,-201.82 732,-191 740.22,-188.91 748.68,-186.08 756.86,-182.93"/>
<polygon fill="black" stroke="black" points="758.36,-186.1 766.32,-179.12 755.74,-179.61 758.36,-186.1"/>
<text text-anchor="middle" x="598.5" y="-220.3" font-family="Times,serif" font-size="14.00">use xsuaa service</text>
</g>
<!-- cap&#45;application&#45;logging -->
<g id="node23" class="node">
<title>cap&#45;application&#45;logging</title>
<ellipse fill="none" stroke="black" cx="605" cy="-156" rx="118.08" ry="18"/>
<text text-anchor="middle" x="605" y="-152.3" font-family="Times,serif" font-size="14.00">cap&#45;application&#45;logging</text>
</g>
<!-- cap&#45;services&#45;&gt;cap&#45;application&#45;logging -->
<g id="edge21" class="edge">
<title>cap&#45;services&#45;&gt;cap&#45;application&#45;logging</title>
<path fill="none" stroke="black" d="M200.92,-268.5C210.2,-264.18 219.68,-260.23 229,-257 273.74,-241.51 289.28,-254.55 334,-239 360.3,-229.86 362.79,-218.4 389,-209 429.04,-194.64 441.59,-200.72 483,-191 503.05,-186.29 524.76,-180.48 544.24,-175"/>
<polygon fill="black" stroke="black" points="545.23,-178.35 553.9,-172.26 543.32,-171.62 545.23,-178.35"/>
<text text-anchor="middle" x="409.5" y="-220.3" font-family="Times,serif" font-size="14.00">log to</text>
</g>
<!-- cap&#45;template&#45;hanadb&#45;deployer -->
<g id="node3" class="node">
<title>cap&#45;template&#45;hanadb&#45;deployer</title>
<polygon fill="none" stroke="blue" points="471.5,-353.18 242.5,-353.18 238.5,-349.18 238.5,-283.18 467.5,-283.18 471.5,-287.18 471.5,-353.18"/>
<polyline fill="none" stroke="blue" points="467.5,-349.18 238.5,-349.18 "/>
<polyline fill="none" stroke="blue" points="467.5,-349.18 467.5,-283.18 "/>
<polyline fill="none" stroke="blue" points="467.5,-349.18 471.5,-353.18 "/>
<text text-anchor="middle" x="355" y="-321.98" font-family="Times,serif" font-size="14.00">DB DEPLOYER</text>
<text text-anchor="middle" x="355" y="-290.98" font-family="Times,serif" font-size="14.00">cap&#45;template&#45;hanadb&#45;deployer</text>
</g>
<!-- cap&#45;template&#45;hanadb&#45;deployer&#45;&gt;cap&#45;template&#45;hanadb -->
<g id="edge2" class="edge">
<title>cap&#45;template&#45;hanadb&#45;deployer&#45;&gt;cap&#45;template&#45;hanadb</title>
<path fill="none" stroke="orange" d="M284.76,-283.09C262.62,-270.73 238.79,-255.67 219,-239 199.37,-222.46 181.03,-199.75 168.36,-182.42"/>
<polygon fill="orange" stroke="orange" points="170.94,-180.01 162.27,-173.91 165.25,-184.08 170.94,-180.01"/>
<text text-anchor="middle" x="276.5" y="-220.3" font-family="Times,serif" font-size="14.00" fill="orange">deploy tables to</text>
</g>
<!-- cap&#45;template&#45;hanadb&#45;deployer&#45;&gt;cap&#45;template&#45;uaa -->
<g id="edge29" class="edge">
<title>cap&#45;template&#45;hanadb&#45;deployer&#45;&gt;cap&#45;template&#45;uaa</title>
<path fill="none" stroke="black" d="M471.68,-302.23C532.36,-290.99 606.14,-271.68 666,-239 683.11,-229.66 681.83,-219.88 698,-209 707.44,-202.65 728.27,-192.71 749.5,-183.22"/>
<polygon fill="black" stroke="black" points="751.19,-186.3 758.91,-179.05 748.35,-179.9 751.19,-186.3"/>
<text text-anchor="middle" x="761.5" y="-220.3" font-family="Times,serif" font-size="14.00">use xsuaa service</text>
</g>
<!-- cap&#45;template&#45;hanadb&#45;deployer&#45;&gt;cap&#45;application&#45;logging -->
<g id="edge30" class="edge">
<title>cap&#45;template&#45;hanadb&#45;deployer&#45;&gt;cap&#45;application&#45;logging</title>
<path fill="none" stroke="black" d="M385.32,-283.09C407.49,-259.77 439.29,-229.48 472,-209 493.98,-195.24 520.2,-184.04 543.52,-175.61"/>
<polygon fill="black" stroke="black" points="544.71,-178.9 552.98,-172.28 542.39,-172.3 544.71,-178.9"/>
<text text-anchor="middle" x="492.5" y="-220.3" font-family="Times,serif" font-size="14.00">log to</text>
</g>
<!-- cap&#45;template&#45;html&#45;deployer -->
<g id="node4" class="node">
<title>cap&#45;template&#45;html&#45;deployer</title>
<polygon fill="none" stroke="blue" points="3448,-353.18 3238,-353.18 3234,-349.18 3234,-283.18 3444,-283.18 3448,-287.18 3448,-353.18"/>
<polyline fill="none" stroke="blue" points="3444,-349.18 3234,-349.18 "/>
<polyline fill="none" stroke="blue" points="3444,-349.18 3444,-283.18 "/>
<polyline fill="none" stroke="blue" points="3444,-349.18 3448,-353.18 "/>
<text text-anchor="middle" x="3341" y="-321.98" font-family="Times,serif" font-size="14.00">DEPLOYER</text>
<text text-anchor="middle" x="3341" y="-290.98" font-family="Times,serif" font-size="14.00">cap&#45;template&#45;html&#45;deployer</text>
</g>
<!-- cap&#45;template&#45;html5&#45;repo&#45;host -->
<g id="node5" class="node">
<title>cap&#45;template&#45;html5&#45;repo&#45;host</title>
<ellipse fill="none" stroke="black" cx="2223" cy="-156" rx="148.37" ry="18"/>
<text text-anchor="middle" x="2223" y="-152.3" font-family="Times,serif" font-size="14.00">cap&#45;template&#45;html5&#45;repo&#45;host</text>
</g>
<!-- cap&#45;template&#45;html&#45;deployer&#45;&gt;cap&#45;template&#45;html5&#45;repo&#45;host -->
<g id="edge3" class="edge">
<title>cap&#45;template&#45;html&#45;deployer&#45;&gt;cap&#45;template&#45;html5&#45;repo&#45;host</title>
<path fill="none" stroke="black" d="M3233.95,-317.6C3063.03,-316.11 2718.93,-304.3 2436,-239 2375.16,-224.96 2308.51,-197.13 2266.26,-177.81"/>
<polygon fill="black" stroke="black" points="2267.65,-174.6 2257.11,-173.59 2264.72,-180.96 2267.65,-174.6"/>
<text text-anchor="middle" x="2502" y="-227.8" font-family="Times,serif" font-size="14.00">deploy apps to</text>
<text text-anchor="middle" x="2502" y="-212.8" font-family="Times,serif" font-size="14.00">HTML5 repository</text>
</g>
<!-- ui_datacenters -->
<g id="node6" class="node">
<title>ui_datacenters</title>
<polygon fill="none" stroke="green" points="4357,-191 4235,-191 4235,-121 4357,-121 4357,-191"/>
<text text-anchor="middle" x="4296" y="-159.8" font-family="Times,serif" font-size="14.00">APP HTML5</text>
<text text-anchor="middle" x="4296" y="-128.8" font-family="Times,serif" font-size="14.00">ui_datacenters</text>
</g>
<!-- cap&#45;template&#45;html&#45;deployer&#45;&gt;ui_datacenters -->
<g id="edge4" class="edge">
<title>cap&#45;template&#45;html&#45;deployer&#45;&gt;ui_datacenters</title>
<path fill="none" stroke="green" d="M3448.19,-317.61C3600.61,-315.72 3887.49,-302.92 4122,-239 4158.51,-229.05 4196.79,-211.84 4228.12,-195.75"/>
<polygon fill="green" stroke="green" points="4229.93,-198.75 4237.19,-191.03 4226.7,-192.54 4229.93,-198.75"/>
<text text-anchor="middle" x="4239.5" y="-220.3" font-family="Times,serif" font-size="14.00" fill="green">deploy app</text>
</g>
<!-- ui_employees -->
<g id="node7" class="node">
<title>ui_employees</title>
<polygon fill="none" stroke="green" points="4488.5,-191 4375.5,-191 4375.5,-121 4488.5,-121 4488.5,-191"/>
<text text-anchor="middle" x="4432" y="-159.8" font-family="Times,serif" font-size="14.00">APP HTML5</text>
<text text-anchor="middle" x="4432" y="-128.8" font-family="Times,serif" font-size="14.00">ui_employees</text>
</g>
<!-- cap&#45;template&#45;html&#45;deployer&#45;&gt;ui_employees -->
<g id="edge5" class="edge">
<title>cap&#45;template&#45;html&#45;deployer&#45;&gt;ui_employees</title>
<path fill="none" stroke="green" d="M3448.24,-313.91C3661.04,-306.49 4129.42,-285.32 4283,-239 4314.75,-229.42 4347.31,-212.47 4373.87,-196.45"/>
<polygon fill="green" stroke="green" points="4375.95,-199.28 4382.64,-191.07 4372.29,-193.32 4375.95,-199.28"/>
<text text-anchor="middle" x="4390.5" y="-220.3" font-family="Times,serif" font-size="14.00" fill="green">deploy app</text>
</g>
<!-- ui_systems -->
<g id="node8" class="node">
<title>ui_systems</title>
<polygon fill="none" stroke="green" points="2493,-191 2389,-191 2389,-121 2493,-121 2493,-191"/>
<text text-anchor="middle" x="2441" y="-159.8" font-family="Times,serif" font-size="14.00">APP HTML5</text>
<text text-anchor="middle" x="2441" y="-128.8" font-family="Times,serif" font-size="14.00">ui_systems</text>
</g>
<!-- cap&#45;template&#45;html&#45;deployer&#45;&gt;ui_systems -->
<g id="edge6" class="edge">
<title>cap&#45;template&#45;html&#45;deployer&#45;&gt;ui_systems</title>
<path fill="none" stroke="green" d="M3233.91,-314.36C3056.99,-308.29 2712.35,-290.12 2603,-239 2585.63,-230.88 2588.73,-218.37 2572,-209 2546.38,-194.66 2534.03,-201.45 2502.56,-190.71"/>
<polygon fill="green" stroke="green" points="2503.74,-187.42 2493.15,-187.19 2501.29,-193.97 2503.74,-187.42"/>
<text text-anchor="middle" x="2642.5" y="-220.3" font-family="Times,serif" font-size="14.00" fill="green">deploy app</text>
</g>
<!-- ui_products -->
<g id="node9" class="node">
<title>ui_products</title>
<polygon fill="none" stroke="green" points="2615,-191 2511,-191 2511,-121 2615,-121 2615,-191"/>
<text text-anchor="middle" x="2563" y="-159.8" font-family="Times,serif" font-size="14.00">APP HTML5</text>
<text text-anchor="middle" x="2563" y="-128.8" font-family="Times,serif" font-size="14.00">ui_products</text>
</g>
<!-- cap&#45;template&#45;html&#45;deployer&#45;&gt;ui_products -->
<g id="edge7" class="edge">
<title>cap&#45;template&#45;html&#45;deployer&#45;&gt;ui_products</title>
<path fill="none" stroke="green" d="M3233.86,-315.89C3111.03,-311.56 2905.13,-295.52 2738,-239 2712.72,-230.45 2710.54,-219.46 2686,-209 2662.18,-198.85 2652.43,-201.36 2624.82,-190.95"/>
<polygon fill="green" stroke="green" points="2625.78,-187.56 2615.2,-187.08 2623.17,-194.05 2625.78,-187.56"/>
<text text-anchor="middle" x="2777.5" y="-220.3" font-family="Times,serif" font-size="14.00" fill="green">deploy app</text>
</g>
<!-- ui_servers -->
<g id="node10" class="node">
<title>ui_servers</title>
<polygon fill="none" stroke="green" points="2737,-191 2633,-191 2633,-121 2737,-121 2737,-191"/>
<text text-anchor="middle" x="2685" y="-159.8" font-family="Times,serif" font-size="14.00">APP HTML5</text>
<text text-anchor="middle" x="2685" y="-128.8" font-family="Times,serif" font-size="14.00">ui_servers</text>
</g>
<!-- cap&#45;template&#45;html&#45;deployer&#45;&gt;ui_servers -->
<g id="edge8" class="edge">
<title>cap&#45;template&#45;html&#45;deployer&#45;&gt;ui_servers</title>
<path fill="none" stroke="green" d="M3233.91,-315.98C3132.61,-311.2 2978.42,-294.31 2857,-239 2838.05,-230.37 2839.6,-218.37 2821,-209 2790.77,-193.77 2778.56,-203.24 2747,-191 2746.9,-190.96 2746.8,-190.92 2746.7,-190.88"/>
<polygon fill="green" stroke="green" points="2747.88,-187.58 2737.31,-186.91 2745.16,-194.03 2747.88,-187.58"/>
<text text-anchor="middle" x="2896.5" y="-220.3" font-family="Times,serif" font-size="14.00" fill="green">deploy app</text>
</g>
<!-- ui_solutionsalteaup -->
<g id="node11" class="node">
<title>ui_solutionsalteaup</title>
<polygon fill="none" stroke="green" points="2910.5,-191 2755.5,-191 2755.5,-121 2910.5,-121 2910.5,-191"/>
<text text-anchor="middle" x="2833" y="-159.8" font-family="Times,serif" font-size="14.00">APP HTML5</text>
<text text-anchor="middle" x="2833" y="-128.8" font-family="Times,serif" font-size="14.00">ui_solutionsalteaup</text>
</g>
<!-- cap&#45;template&#45;html&#45;deployer&#45;&gt;ui_solutionsalteaup -->
<g id="edge9" class="edge">
<title>cap&#45;template&#45;html&#45;deployer&#45;&gt;ui_solutionsalteaup</title>
<path fill="none" stroke="green" d="M3233.96,-312.5C3155.54,-305.02 3048.94,-286.13 2967,-239 2951.45,-230.06 2954.33,-219.79 2940,-209 2933.62,-204.2 2926.72,-199.66 2919.61,-195.41"/>
<polygon fill="green" stroke="green" points="2920.94,-192.14 2910.52,-190.2 2917.45,-198.21 2920.94,-192.14"/>
<text text-anchor="middle" x="3006.5" y="-220.3" font-family="Times,serif" font-size="14.00" fill="green">deploy app</text>
</g>
<!-- ui_typologies -->
<g id="node12" class="node">
<title>ui_typologies</title>
<polygon fill="none" stroke="green" points="3039,-191 2929,-191 2929,-121 3039,-121 3039,-191"/>
<text text-anchor="middle" x="2984" y="-159.8" font-family="Times,serif" font-size="14.00">APP HTML5</text>
<text text-anchor="middle" x="2984" y="-128.8" font-family="Times,serif" font-size="14.00">ui_typologies</text>
</g>
<!-- cap&#45;template&#45;html&#45;deployer&#45;&gt;ui_typologies -->
<g id="edge10" class="edge">
<title>cap&#45;template&#45;html&#45;deployer&#45;&gt;ui_typologies</title>
<path fill="none" stroke="green" d="M3233.72,-293.12C3187.66,-280.48 3134.16,-262.62 3089,-239 3087.36,-238.14 3061.2,-217.71 3035.4,-197.46"/>
<polygon fill="green" stroke="green" points="3037.46,-194.63 3027.44,-191.2 3033.14,-200.13 3037.46,-194.63"/>
<text text-anchor="middle" x="3128.5" y="-220.3" font-family="Times,serif" font-size="14.00" fill="green">deploy app</text>
</g>
<!-- ui_systemstatus -->
<g id="node13" class="node">
<title>ui_systemstatus</title>
<polygon fill="none" stroke="green" points="3189,-191 3057,-191 3057,-121 3189,-121 3189,-191"/>
<text text-anchor="middle" x="3123" y="-159.8" font-family="Times,serif" font-size="14.00">APP HTML5</text>
<text text-anchor="middle" x="3123" y="-128.8" font-family="Times,serif" font-size="14.00">ui_systemstatus</text>
</g>
<!-- cap&#45;template&#45;html&#45;deployer&#45;&gt;ui_systemstatus -->
<g id="edge11" class="edge">
<title>cap&#45;template&#45;html&#45;deployer&#45;&gt;ui_systemstatus</title>
<path fill="none" stroke="green" d="M3274.31,-283.01C3251.82,-270.34 3227.1,-255.11 3206,-239 3190.38,-227.07 3174.68,-212.41 3161.2,-198.79"/>
<polygon fill="green" stroke="green" points="3163.44,-196.08 3153.95,-191.36 3158.43,-200.96 3163.44,-196.08"/>
<text text-anchor="middle" x="3245.5" y="-220.3" font-family="Times,serif" font-size="14.00" fill="green">deploy app</text>
</g>
<!-- ui_futurestatus -->
<g id="node14" class="node">
<title>ui_futurestatus</title>
<polygon fill="none" stroke="green" points="3332.5,-191 3207.5,-191 3207.5,-121 3332.5,-121 3332.5,-191"/>
<text text-anchor="middle" x="3270" y="-159.8" font-family="Times,serif" font-size="14.00">APP HTML5</text>
<text text-anchor="middle" x="3270" y="-128.8" font-family="Times,serif" font-size="14.00">ui_futurestatus</text>
</g>
<!-- cap&#45;template&#45;html&#45;deployer&#45;&gt;ui_futurestatus -->
<g id="edge12" class="edge">
<title>cap&#45;template&#45;html&#45;deployer&#45;&gt;ui_futurestatus</title>
<path fill="none" stroke="green" d="M3323.04,-282.86C3316.18,-269.33 3308.46,-253.56 3302,-239 3296.57,-226.76 3291.12,-213.3 3286.28,-200.89"/>
<polygon fill="green" stroke="green" points="3289.41,-199.27 3282.55,-191.2 3282.88,-201.79 3289.41,-199.27"/>
<text text-anchor="middle" x="3341.5" y="-220.3" font-family="Times,serif" font-size="14.00" fill="green">deploy app</text>
</g>
<!-- ui_accessrights -->
<g id="node15" class="node">
<title>ui_accessrights</title>
<polygon fill="none" stroke="green" points="3477,-191 3351,-191 3351,-121 3477,-121 3477,-191"/>
<text text-anchor="middle" x="3414" y="-159.8" font-family="Times,serif" font-size="14.00">APP HTML5</text>
<text text-anchor="middle" x="3414" y="-128.8" font-family="Times,serif" font-size="14.00">ui_accessrights</text>
</g>
<!-- cap&#45;template&#45;html&#45;deployer&#45;&gt;ui_accessrights -->
<g id="edge13" class="edge">
<title>cap&#45;template&#45;html&#45;deployer&#45;&gt;ui_accessrights</title>
<path fill="none" stroke="green" d="M3359.4,-282.87C3366.44,-269.34 3374.36,-253.57 3381,-239 3386.63,-226.65 3392.31,-213.04 3397.33,-200.53"/>
<polygon fill="green" stroke="green" points="3400.6,-201.79 3401.03,-191.2 3394.09,-199.21 3400.6,-201.79"/>
<text text-anchor="middle" x="3432.5" y="-220.3" font-family="Times,serif" font-size="14.00" fill="green">deploy app</text>
</g>
<!-- ui_poweronrules -->
<g id="node16" class="node">
<title>ui_poweronrules</title>
<polygon fill="none" stroke="green" points="3629,-191 3495,-191 3495,-121 3629,-121 3629,-191"/>
<text text-anchor="middle" x="3562" y="-159.8" font-family="Times,serif" font-size="14.00">APP HTML5</text>
<text text-anchor="middle" x="3562" y="-128.8" font-family="Times,serif" font-size="14.00">ui_poweronrules</text>
</g>
<!-- cap&#45;template&#45;html&#45;deployer&#45;&gt;ui_poweronrules -->
<g id="edge14" class="edge">
<title>cap&#45;template&#45;html&#45;deployer&#45;&gt;ui_poweronrules</title>
<path fill="none" stroke="green" d="M3406.84,-283.18C3429.5,-270.42 3454.55,-255.08 3476,-239 3492.17,-226.88 3508.55,-212.04 3522.62,-198.32"/>
<polygon fill="green" stroke="green" points="3525.09,-200.79 3529.75,-191.27 3520.17,-195.81 3525.09,-200.79"/>
<text text-anchor="middle" x="3549.5" y="-220.3" font-family="Times,serif" font-size="14.00" fill="green">deploy app</text>
</g>
<!-- ui_customers -->
<g id="node17" class="node">
<title>ui_customers</title>
<polygon fill="none" stroke="green" points="3758.5,-191 3647.5,-191 3647.5,-121 3758.5,-121 3758.5,-191"/>
<text text-anchor="middle" x="3703" y="-159.8" font-family="Times,serif" font-size="14.00">APP HTML5</text>
<text text-anchor="middle" x="3703" y="-128.8" font-family="Times,serif" font-size="14.00">ui_customers</text>
</g>
<!-- cap&#45;template&#45;html&#45;deployer&#45;&gt;ui_customers -->
<g id="edge15" class="edge">
<title>cap&#45;template&#45;html&#45;deployer&#45;&gt;ui_customers</title>
<path fill="none" stroke="green" d="M3448.03,-292.63C3494.05,-279.9 3547.58,-262.11 3593,-239 3615.1,-227.75 3637.41,-212.1 3656.11,-197.47"/>
<polygon fill="green" stroke="green" points="3658.52,-200.03 3664.17,-191.07 3654.16,-194.55 3658.52,-200.03"/>
<text text-anchor="middle" x="3679.5" y="-220.3" font-family="Times,serif" font-size="14.00" fill="green">deploy app</text>
</g>
<!-- ui_ideas -->
<g id="node18" class="node">
<title>ui_ideas</title>
<polygon fill="none" stroke="green" points="3881,-191 3777,-191 3777,-121 3881,-121 3881,-191"/>
<text text-anchor="middle" x="3829" y="-159.8" font-family="Times,serif" font-size="14.00">APP HTML5</text>
<text text-anchor="middle" x="3829" y="-128.8" font-family="Times,serif" font-size="14.00">ui_ideas</text>
</g>
<!-- cap&#45;template&#45;html&#45;deployer&#45;&gt;ui_ideas -->
<g id="edge16" class="edge">
<title>cap&#45;template&#45;html&#45;deployer&#45;&gt;ui_ideas</title>
<path fill="none" stroke="green" d="M3448.4,-308.38C3527.27,-298.83 3635.48,-279.16 3723,-239 3745.37,-228.74 3767.36,-212.95 3785.45,-197.96"/>
<polygon fill="green" stroke="green" points="3788.12,-200.29 3793.48,-191.15 3783.59,-194.95 3788.12,-200.29"/>
<text text-anchor="middle" x="3808.5" y="-220.3" font-family="Times,serif" font-size="14.00" fill="green">deploy app</text>
</g>
<!-- ui_sectors -->
<g id="node19" class="node">
<title>ui_sectors</title>
<polygon fill="none" stroke="green" points="4003,-191 3899,-191 3899,-121 4003,-121 4003,-191"/>
<text text-anchor="middle" x="3951" y="-159.8" font-family="Times,serif" font-size="14.00">APP HTML5</text>
<text text-anchor="middle" x="3951" y="-128.8" font-family="Times,serif" font-size="14.00">ui_sectors</text>
</g>
<!-- cap&#45;template&#45;html&#45;deployer&#45;&gt;ui_sectors -->
<g id="edge17" class="edge">
<title>cap&#45;template&#45;html&#45;deployer&#45;&gt;ui_sectors</title>
<path fill="none" stroke="green" d="M3448.04,-307.58C3576.01,-294.92 3781.73,-270.53 3852,-239 3873.72,-229.25 3894.53,-213.39 3911.41,-198.21"/>
<polygon fill="green" stroke="green" points="3913.91,-200.66 3918.88,-191.3 3909.16,-195.52 3913.91,-200.66"/>
<text text-anchor="middle" x="3935.5" y="-220.3" font-family="Times,serif" font-size="14.00" fill="green">deploy app</text>
</g>
<!-- ui_businessrequirements -->
<g id="node20" class="node">
<title>ui_businessrequirements</title>
<polygon fill="none" stroke="green" points="4217,-191 4021,-191 4021,-121 4217,-121 4217,-191"/>
<text text-anchor="middle" x="4119" y="-159.8" font-family="Times,serif" font-size="14.00">APP HTML5</text>
<text text-anchor="middle" x="4119" y="-128.8" font-family="Times,serif" font-size="14.00">ui_businessrequirements</text>
</g>
<!-- cap&#45;template&#45;html&#45;deployer&#45;&gt;ui_businessrequirements -->
<g id="edge18" class="edge">
<title>cap&#45;template&#45;html&#45;deployer&#45;&gt;ui_businessrequirements</title>
<path fill="none" stroke="green" d="M3448.06,-317.2C3577.23,-314.26 3799.41,-299.69 3979,-239 4008.6,-229 4038.83,-212.27 4063.59,-196.52"/>
<polygon fill="green" stroke="green" points="4065.62,-199.38 4072.11,-191 4061.82,-193.5 4065.62,-199.38"/>
<text text-anchor="middle" x="4078.5" y="-220.3" font-family="Times,serif" font-size="14.00" fill="green">deploy app</text>
</g>
<!-- approuter -->
<g id="node24" class="node">
<title>approuter</title>
<polygon fill="none" stroke="blue" points="1415,-353.18 1309,-353.18 1305,-349.18 1305,-283.18 1411,-283.18 1415,-287.18 1415,-353.18"/>
<polyline fill="none" stroke="blue" points="1411,-349.18 1305,-349.18 "/>
<polyline fill="none" stroke="blue" points="1411,-349.18 1411,-283.18 "/>
<polyline fill="none" stroke="blue" points="1411,-349.18 1415,-353.18 "/>
<text text-anchor="middle" x="1360" y="-321.98" font-family="Times,serif" font-size="14.00">APPROUTER</text>
<text text-anchor="middle" x="1360" y="-290.98" font-family="Times,serif" font-size="14.00">approuter</text>
</g>
<!-- approuter&#45;&gt;cap&#45;template&#45;uaa -->
<g id="edge23" class="edge">
<title>approuter&#45;&gt;cap&#45;template&#45;uaa</title>
<path fill="none" stroke="black" d="M1304.98,-306.11C1216.07,-287.41 1036.03,-246.13 890,-191 883.52,-188.55 876.8,-185.88 870.14,-183.14"/>
<polygon fill="black" stroke="black" points="871.02,-179.72 860.45,-179.1 868.33,-186.18 871.02,-179.72"/>
<text text-anchor="middle" x="1092.5" y="-220.3" font-family="Times,serif" font-size="14.00">use xsuaa service</text>
</g>
<!-- approuter&#45;&gt;cap&#45;application&#45;logging -->
<g id="edge27" class="edge">
<title>approuter&#45;&gt;cap&#45;application&#45;logging</title>
<path fill="none" stroke="black" d="M1304.71,-310.8C1218.85,-300.18 1048.68,-276.28 908,-239 870.08,-228.95 862.81,-219.42 825,-209 784.41,-197.81 773.03,-200.45 732,-191 711.07,-186.18 688.37,-180.31 668.02,-174.81"/>
<polygon fill="black" stroke="black" points="668.81,-171.4 658.24,-172.15 666.97,-178.15 668.81,-171.4"/>
<text text-anchor="middle" x="928.5" y="-220.3" font-family="Times,serif" font-size="14.00">log to</text>
</g>
<!-- cap&#45;template&#45;destination -->
<g id="node25" class="node">
<title>cap&#45;template&#45;destination</title>
<polygon fill="none" stroke="orange" points="1826,-185 1644,-185 1644,-127 1826,-127 1838,-156 1826,-185"/>
<text text-anchor="middle" x="1741" y="-159.8" font-family="Times,serif" font-size="14.00">SERVICE DESTINATION</text>
<text text-anchor="middle" x="1741" y="-128.8" font-family="Times,serif" font-size="14.00">cap&#45;template&#45;destination</text>
</g>
<!-- approuter&#45;&gt;cap&#45;template&#45;destination -->
<g id="edge22" class="edge">
<title>approuter&#45;&gt;cap&#45;template&#45;destination</title>
<path fill="none" stroke="black" d="M1415.02,-306.06C1469.35,-293.87 1553.93,-271.6 1622,-239 1645.77,-227.62 1670.06,-211.77 1690.45,-197.04"/>
<polygon fill="black" stroke="black" points="1692.65,-199.77 1698.65,-191.03 1688.51,-194.12 1692.65,-199.77"/>
<text text-anchor="middle" x="1685.5" y="-220.3" font-family="Times,serif" font-size="14.00">use</text>
</g>
<!-- cap&#45;template&#45;html5&#45;repo&#45;runtime -->
<g id="node26" class="node">
<title>cap&#45;template&#45;html5&#45;repo&#45;runtime</title>
<ellipse fill="none" stroke="black" cx="1064" cy="-156" rx="165.17" ry="18"/>
<text text-anchor="middle" x="1064" y="-152.3" font-family="Times,serif" font-size="14.00">cap&#45;template&#45;html5&#45;repo&#45;runtime</text>
</g>
<!-- approuter&#45;&gt;cap&#45;template&#45;html5&#45;repo&#45;runtime -->
<g id="edge24" class="edge">
<title>approuter&#45;&gt;cap&#45;template&#45;html5&#45;repo&#45;runtime</title>
<path fill="none" stroke="black" d="M1304.67,-287.24C1246.27,-255.63 1155.64,-206.59 1103.87,-178.58"/>
<polygon fill="black" stroke="black" points="1105.44,-175.45 1094.98,-173.77 1102.11,-181.6 1105.44,-175.45"/>
<text text-anchor="middle" x="1224.5" y="-220.3" font-family="Times,serif" font-size="14.00">use</text>
</g>
<!-- cap&#45;template&#45;portal -->
<g id="node27" class="node">
<title>cap&#45;template&#45;portal</title>
<polygon fill="none" stroke="orange" points="1856.5,-133 1856.5,-179 2013.5,-179 2013.5,-133 1856.5,-133"/>
<text text-anchor="middle" x="1935" y="-163.8" font-family="Times,serif" font-size="14.00">SERVICE PORTAL</text>
<polyline fill="none" stroke="orange" points="1856.5,-156 2013.5,-156 "/>
<text text-anchor="middle" x="1935" y="-140.8" font-family="Times,serif" font-size="14.00">cap&#45;template&#45;portal</text>
</g>
<!-- approuter&#45;&gt;cap&#45;template&#45;portal -->
<g id="edge25" class="edge">
<title>approuter&#45;&gt;cap&#45;template&#45;portal</title>
<path fill="none" stroke="black" d="M1415.06,-312.57C1484.94,-304.97 1607.71,-285.69 1702,-239 1720.66,-229.76 1719.06,-217.67 1738,-209 1782.65,-188.57 1799.63,-203.92 1847,-191 1855.7,-188.63 1864.73,-185.7 1873.55,-182.57"/>
<polygon fill="black" stroke="black" points="1874.82,-185.83 1883.01,-179.11 1872.41,-179.26 1874.82,-185.83"/>
<text text-anchor="middle" x="1750.5" y="-220.3" font-family="Times,serif" font-size="14.00">use</text>
</g>
<!-- cap&#45;template&#45;theming -->
<g id="node28" class="node">
<title>cap&#45;template&#45;theming</title>
<ellipse fill="none" stroke="black" cx="1360" cy="-156" rx="112.38" ry="18"/>
<text text-anchor="middle" x="1360" y="-152.3" font-family="Times,serif" font-size="14.00">cap&#45;template&#45;theming</text>
</g>
<!-- approuter&#45;&gt;cap&#45;template&#45;theming -->
<g id="edge26" class="edge">
<title>approuter&#45;&gt;cap&#45;template&#45;theming</title>
<path fill="none" stroke="black" d="M1360,-282.82C1360,-253.41 1360,-211.63 1360,-184.42"/>
<polygon fill="black" stroke="black" points="1363.5,-184.07 1360,-174.07 1356.5,-184.07 1363.5,-184.07"/>
<text text-anchor="middle" x="1372.5" y="-220.3" font-family="Times,serif" font-size="14.00">use</text>
</g>
<!-- destinations -->
<g id="node29" class="node">
<title>destinations</title>
<ellipse fill="none" stroke="black" cx="1558" cy="-156" rx="67.69" ry="18"/>
<text text-anchor="middle" x="1558" y="-152.3" font-family="Times,serif" font-size="14.00">destinations</text>
</g>
<!-- approuter&#45;&gt;destinations -->
<g id="edge28" class="edge">
<title>approuter&#45;&gt;destinations</title>
<path fill="none" stroke="black" d="M1402.48,-282.82C1441.03,-251.63 1496.77,-206.54 1530,-179.65"/>
<polygon fill="black" stroke="black" points="1532.36,-182.24 1537.94,-173.23 1527.96,-176.8 1532.36,-182.24"/>
<text text-anchor="middle" x="1553" y="-227.8" font-family="Times,serif" font-size="14.00">define enviroment</text>
<text text-anchor="middle" x="1553" y="-212.8" font-family="Times,serif" font-size="14.00">variable</text>
</g>
<!-- destinations&#45;&gt;cap&#45;services&#45;api:srv_api -->
<g id="edge34" class="edge">
<title>destinations&#45;&gt;cap&#45;services&#45;api:srv_api</title>
<path fill="none" stroke="grey" d="M1534.89,-138.94C1520.17,-129.61 1500.3,-118.62 1481,-113 1287.4,-56.64 683.77,-41.26 440.33,-37.3"/>
<polygon fill="grey" stroke="grey" points="440.12,-33.79 430.06,-37.13 440.01,-40.79 440.12,-33.79"/>
<text text-anchor="middle" x="1494.5" y="-91.8" font-family="Times,serif" font-size="14.00" fill="grey">use MTA property</text>
</g>
<!-- cap&#45;template&#45;portal&#45;deployer -->
<g id="node30" class="node">
<title>cap&#45;template&#45;portal&#45;deployer</title>
<polygon fill="none" stroke="blue" points="2047,-353.18 1827,-353.18 1823,-349.18 1823,-283.18 2043,-283.18 2047,-287.18 2047,-353.18"/>
<polyline fill="none" stroke="blue" points="2043,-349.18 1823,-349.18 "/>
<polyline fill="none" stroke="blue" points="2043,-349.18 2043,-283.18 "/>
<polyline fill="none" stroke="blue" points="2043,-349.18 2047,-353.18 "/>
<text text-anchor="middle" x="1935" y="-321.98" font-family="Times,serif" font-size="14.00">PORTAL DEPLOYER</text>
<text text-anchor="middle" x="1935" y="-290.98" font-family="Times,serif" font-size="14.00">cap&#45;template&#45;portal&#45;deployer</text>
</g>
<!-- cap&#45;template&#45;portal&#45;deployer&#45;&gt;cap&#45;template&#45;html5&#45;repo&#45;host -->
<g id="edge32" class="edge">
<title>cap&#45;template&#45;portal&#45;deployer&#45;&gt;cap&#45;template&#45;html5&#45;repo&#45;host</title>
<path fill="none" stroke="black" d="M1996.43,-283.02C2053.23,-251.42 2135.92,-205.43 2184.12,-178.63"/>
<polygon fill="black" stroke="black" points="2185.95,-181.61 2192.99,-173.69 2182.55,-175.5 2185.95,-181.61"/>
<text text-anchor="middle" x="2187" y="-227.8" font-family="Times,serif" font-size="14.00">use apps from</text>
<text text-anchor="middle" x="2187" y="-212.8" font-family="Times,serif" font-size="14.00">HTML5 repository</text>
</g>
<!-- cap&#45;template&#45;portal&#45;deployer&#45;&gt;cap&#45;template&#45;uaa -->
<g id="edge33" class="edge">
<title>cap&#45;template&#45;portal&#45;deployer&#45;&gt;cap&#45;template&#45;uaa</title>
<path fill="none" stroke="black" d="M1875.26,-283.12C1852.64,-269.81 1826.86,-254.13 1804,-239 1785.17,-226.53 1784.39,-216.23 1763,-209 1671.09,-177.91 984.82,-211.56 890,-191 881.31,-189.11 872.38,-186.27 863.8,-183"/>
<polygon fill="black" stroke="black" points="864.88,-179.66 854.29,-179.17 862.26,-186.16 864.88,-179.66"/>
<text text-anchor="middle" x="1867.5" y="-220.3" font-family="Times,serif" font-size="14.00">use xsuaa service</text>
</g>
<!-- cap&#45;template&#45;portal&#45;deployer&#45;&gt;cap&#45;template&#45;portal -->
<g id="edge31" class="edge">
<title>cap&#45;template&#45;portal&#45;deployer&#45;&gt;cap&#45;template&#45;portal</title>
<path fill="none" stroke="black" d="M1935,-282.82C1935,-255.06 1935,-216.29 1935,-189.15"/>
<polygon fill="black" stroke="black" points="1938.5,-189 1935,-179 1931.5,-189 1938.5,-189"/>
<text text-anchor="middle" x="1997" y="-220.3" font-family="Times,serif" font-size="14.00">publish apps into</text>
</g>
</g>
</svg>
